{"glyphs":{"0":{"ha":915,"x_min":83,"x_max":832,"o":"m 832 485 q 456 -17 832 -17 q 156 135 239 -17 q 83 485 83 268 q 189 892 83 778 q 456 989 278 989 q 722 892 633 989 q 832 485 832 774 m 560 872 q 538 885 560 872 q 457 899 517 899 q 354 872 397 899 q 288 805 311 844 q 250 706 264 765 q 231 492 231 617 q 281 178 231 282 q 457 74 331 74 q 633 177 583 74 q 682 492 682 281 q 625 806 682 708 q 560 872 603 844 z "},"1":{"ha":469,"x_min":14,"x_max":331,"o":"m 331 0 l 196 0 l 196 863 l 18 863 l 14 935 l 251 986 q 281 989 265 989 q 314 976 297 989 q 331 939 331 963 l 331 0 z "},"2":{"ha":788,"x_min":69,"x_max":718,"o":"m 453 115 l 718 115 l 718 0 l 69 0 l 69 106 q 306 351 217 261 q 440 490 396 440 q 503 572 485 540 q 543 722 543 646 q 497 842 543 797 q 378 886 450 886 q 142 842 275 886 l 107 928 q 387 989 250 989 q 606 922 524 989 q 689 724 689 856 q 653 571 689 636 q 619 507 633 533 q 569 441 604 481 q 516 383 533 401 q 453 321 499 365 q 393 261 408 276 l 250 121 l 260 99 q 453 115 361 115 z "},"3":{"ha":713,"x_min":54,"x_max":636,"o":"m 285 85 q 334 85 285 85 q 440 131 383 85 q 496 266 496 178 q 434 407 496 354 q 267 463 372 460 l 267 554 q 418 601 361 557 q 475 726 475 644 q 431 849 475 808 q 301 889 386 889 q 136 853 215 889 l 104 939 q 328 989 199 989 q 537 924 458 989 q 615 736 615 860 q 572 602 615 664 q 458 521 529 540 l 458 499 q 591 411 546 479 q 636 268 636 343 q 540 61 636 139 q 308 -17 444 -17 q 54 39 171 -17 l 89 126 q 285 85 188 85 z "},"4":{"ha":757,"x_min":14,"x_max":715,"o":"m 618 972 l 618 321 l 715 321 l 715 217 l 618 217 l 618 0 l 479 0 l 479 217 l 14 217 l 14 307 l 503 972 l 618 972 m 481 610 q 493 744 481 681 l 497 767 l 475 771 q 389 632 440 703 l 247 439 q 158 338 200 375 l 144 325 l 149 303 q 286 319 222 319 l 481 321 l 481 610 z "},"5":{"ha":783,"x_min":76,"x_max":700,"o":"m 111 131 q 319 85 213 85 q 485 144 426 85 q 543 303 543 204 q 474 451 543 403 q 261 504 404 499 l 122 510 l 122 972 l 635 972 l 635 868 l 268 868 l 268 607 q 394 599 343 604 q 508 574 444 593 q 609 524 571 556 q 674 435 647 493 q 700 296 700 376 q 596 65 700 146 q 345 -17 492 -17 q 76 44 199 -17 l 111 131 z "},"6":{"ha":860,"x_min":83,"x_max":790,"o":"m 253 489 q 468 611 314 611 q 706 528 622 611 q 790 299 790 444 q 703 68 790 153 q 456 -17 615 -17 q 156 124 236 -17 q 99 271 115 192 q 83 451 83 350 q 111 645 83 553 q 192 816 139 738 q 334 942 246 894 q 530 989 422 989 q 710 956 638 989 l 683 861 q 533 886 619 886 q 386 847 446 886 q 294 743 326 807 q 231 489 236 624 l 253 489 m 457 74 q 651 297 651 74 q 603 457 651 394 q 452 519 556 519 q 303 462 349 519 q 257 297 257 404 q 457 74 257 74 z "},"7":{"ha":736,"x_min":42,"x_max":694,"o":"m 383 858 l 42 858 l 42 972 l 694 972 l 694 861 l 238 0 l 89 0 l 461 692 q 550 844 504 774 l 563 863 l 550 885 q 383 858 486 858 z "},"8":{"ha":849,"x_min":69,"x_max":779,"o":"m 682 58 q 633 20 682 58 q 425 -17 585 -17 q 167 58 265 -17 q 69 269 69 132 q 112 409 69 347 q 226 492 154 471 l 226 514 q 97 724 97 568 q 188 924 97 860 q 426 989 279 989 q 662 924 572 989 q 751 724 751 860 q 622 514 751 568 l 622 492 q 737 409 694 471 q 779 269 779 347 q 682 58 779 132 m 581 126 q 608 150 581 126 q 635 258 635 174 q 583 399 635 343 q 426 454 532 454 q 267 398 321 454 q 214 258 214 342 q 269 126 214 175 q 426 78 324 78 q 581 126 528 78 m 557 853 q 532 874 557 853 q 426 896 507 896 q 294 852 346 896 q 242 728 242 808 q 288 598 242 649 q 426 547 335 547 q 563 598 518 547 q 607 729 607 649 q 557 853 607 810 z "},"9":{"ha":860,"x_min":69,"x_max":776,"o":"m 629 481 l 607 481 q 394 358 550 358 q 153 442 238 358 q 69 671 69 525 q 156 903 69 817 q 404 989 242 989 q 733 786 656 989 q 776 486 776 672 q 371 -17 776 -17 q 117 54 231 -17 l 151 140 q 383 87 261 86 q 567 181 504 88 q 629 481 629 275 m 246 829 q 208 672 208 769 q 256 513 208 575 q 408 450 304 450 q 557 508 511 450 q 603 672 603 565 q 407 899 603 893 q 246 829 289 899 z "}," ":{"ha":403,"x_min":0,"x_max":0,"o":""},"!":{"ha":364,"x_min":83,"x_max":281,"o":"m 113 13 q 98 27 113 13 q 83 82 83 42 q 113 151 83 122 q 182 181 142 181 q 251 151 222 181 q 281 82 281 122 q 251 13 281 42 q 182 -17 222 -17 q 113 13 142 -17 m 99 972 l 265 972 l 238 328 l 126 328 l 99 972 z "},"\"":{"ha":429,"x_min":35,"x_max":422,"o":"m 35 1061 l 136 1061 q 183 1011 183 1061 q 181 986 183 1000 l 133 694 l 35 699 l 35 1061 m 274 1061 l 375 1061 q 422 1011 422 1061 q 419 986 422 1000 l 372 694 l 274 699 l 274 1061 z "},"#":{"ha":1025,"x_min":83,"x_max":942,"o":"m 83 283 l 83 385 l 289 385 l 318 600 l 143 600 l 143 701 l 332 701 l 369 972 l 479 972 l 442 701 l 651 701 l 689 972 l 799 972 l 761 701 l 942 701 l 942 600 l 747 600 l 717 385 l 896 385 l 896 283 l 703 283 l 664 0 l 556 0 l 594 283 l 383 283 l 344 0 l 236 0 l 275 283 l 83 283 m 428 600 l 397 385 l 608 385 l 638 600 l 428 600 z "},"$":{"ha":718,"x_min":85,"x_max":664,"o":"m 371 103 q 478 135 436 103 q 521 226 521 168 q 381 382 521 317 l 253 443 q 97 660 97 515 q 170 821 97 760 q 347 894 243 882 l 343 1043 l 460 1043 l 453 896 q 633 847 526 888 l 600 754 q 392 800 482 800 q 239 685 239 800 q 267 615 239 643 q 351 558 294 586 l 500 485 q 664 258 664 404 q 601 88 664 150 q 443 8 538 26 l 450 -157 l 333 -157 l 338 1 q 85 67 213 8 l 126 164 q 371 103 263 103 z "},"%":{"ha":1108,"x_min":104,"x_max":1004,"o":"m 489 747 q 297 506 489 506 q 104 747 104 506 q 144 925 104 861 q 296 989 185 989 q 454 915 414 989 q 489 747 489 851 m 386 747 q 386 833 386 747 q 296 918 386 918 q 206 747 206 918 q 296 576 206 576 q 386 747 386 576 m 1004 225 q 812 -17 1004 -17 q 619 225 619 -17 q 660 403 619 339 q 811 467 700 467 q 969 393 929 467 q 1004 225 1004 329 m 901 225 q 901 310 901 225 q 811 396 901 396 q 721 225 721 396 q 811 54 721 54 q 901 225 901 54 m 311 0 l 185 0 l 797 972 l 924 972 l 311 0 z "},"&":{"ha":1018,"x_min":79,"x_max":1018,"o":"m 420 874 q 384 874 420 874 q 315 841 349 874 q 282 756 282 808 q 335 640 282 703 q 497 489 388 576 l 686 339 q 701 501 701 417 l 701 550 l 829 550 l 829 485 q 799 249 829 350 l 1018 75 l 922 -17 l 743 129 q 411 -18 640 -18 q 172 60 265 -18 q 79 269 79 138 q 267 524 79 429 q 139 763 139 651 q 224 931 139 874 q 416 989 308 989 q 650 940 524 989 l 608 832 q 420 874 492 874 m 429 92 q 640 213 572 92 l 363 439 q 260 374 296 422 q 224 258 224 325 q 281 142 224 192 q 429 92 338 92 z "},"'":{"ha":190,"x_min":35,"x_max":183,"o":"m 35 1061 l 136 1061 q 183 1011 183 1061 q 181 986 183 1000 l 133 694 l 35 699 l 35 1061 z "},"(":{"ha":414,"x_min":67,"x_max":372,"o":"m 226 590 q 221 541 226 590 q 215 371 215 492 q 226 151 215 250 q 249 -5 238 53 q 288 -122 261 -62 q 328 -201 315 -181 q 372 -268 342 -222 l 293 -322 q 119 -45 172 -206 q 67 371 67 115 q 119 788 67 626 q 293 1065 172 949 l 372 1011 q 328 944 340 965 q 288 864 315 924 q 249 747 261 804 q 226 590 238 689 z "},")":{"ha":417,"x_min":42,"x_max":347,"o":"m 188 151 q 193 201 188 151 q 199 371 199 250 q 188 590 199 492 q 165 747 176 689 q 126 864 153 804 q 86 944 99 924 q 42 1011 74 965 l 121 1065 q 294 788 242 949 q 347 371 347 626 q 294 -45 347 115 q 121 -322 242 -206 l 42 -268 q 85 -201 72 -222 q 126 -122 99 -181 q 165 -5 153 -62 q 188 151 176 53 z "},"*":{"ha":488,"x_min":8,"x_max":481,"o":"m 481 853 q 429 811 481 819 l 288 788 l 389 685 q 411 644 411 663 q 396 614 411 625 l 376 599 q 356 592 368 592 q 310 628 329 592 l 244 754 l 178 626 q 135 590 160 590 q 113 599 122 590 l 92 613 q 76 641 76 622 q 99 685 76 660 l 199 785 l 56 810 q 8 850 8 817 q 10 863 8 858 l 17 888 q 48 911 25 911 q 88 903 71 911 l 217 836 l 194 982 q 193 996 193 989 q 231 1044 193 1043 l 256 1044 q 293 996 293 1044 q 292 982 293 989 l 269 839 l 400 904 q 440 914 419 914 q 469 889 460 914 l 478 865 q 481 853 481 857 z "},"+":{"ha":836,"x_min":69,"x_max":767,"o":"m 767 565 l 767 460 l 469 460 l 469 144 l 360 144 l 360 460 l 69 460 l 69 565 l 360 565 l 360 882 l 469 882 l 469 565 l 767 565 z "},",":{"ha":369,"x_min":26,"x_max":258,"o":"m 199 129 q 243 112 228 128 q 258 78 258 96 q 256 50 258 60 l 226 -71 q 142 -218 215 -115 l 117 -251 l 26 -210 q 97 -42 88 -75 q 108 14 107 -10 l 114 133 l 199 129 z "},"-":{"ha":472,"x_min":69,"x_max":403,"o":"m 69 313 l 69 419 l 403 419 l 403 313 l 69 313 z "},".":{"ha":378,"x_min":90,"x_max":288,"o":"m 119 13 q 105 27 119 13 q 90 82 90 42 q 119 151 90 122 q 189 181 149 181 q 258 151 229 181 q 288 82 288 122 q 258 13 288 42 q 189 -17 229 -17 q 119 13 149 -17 z "},"/":{"ha":525,"x_min":-33,"x_max":525,"o":"m 99 -289 l -33 -289 l 393 1028 l 525 1028 l 99 -289 z "},":":{"ha":358,"x_min":89,"x_max":269,"o":"m 115 433 q 102 447 115 433 q 89 497 89 460 q 115 561 89 535 q 179 588 142 588 q 243 561 217 588 q 269 497 269 535 q 243 433 269 460 q 179 407 217 407 q 115 433 142 407 m 115 10 q 102 23 115 10 q 89 74 89 36 q 115 138 89 111 q 179 164 142 164 q 243 138 217 164 q 269 74 269 111 q 243 10 269 36 q 179 -17 217 -17 q 115 10 142 -17 z "},";":{"ha":358,"x_min":32,"x_max":275,"o":"m 121 399 q 108 412 121 399 q 94 463 94 425 q 121 526 94 500 q 185 553 147 553 q 249 526 222 553 q 275 463 275 500 q 249 399 275 425 q 185 372 222 372 q 121 399 147 372 m 204 129 q 249 112 233 128 q 264 78 264 96 q 261 50 264 60 l 232 -71 q 147 -218 221 -115 l 122 -251 l 32 -210 q 103 -42 93 -75 q 114 14 113 -10 l 119 133 l 204 129 z "},"<":{"ha":799,"x_min":69,"x_max":736,"o":"m 383 396 l 736 211 l 696 124 l 69 415 l 69 524 l 696 815 l 736 728 l 383 544 q 239 489 319 517 l 211 481 l 211 458 q 383 396 311 428 z "},"=":{"ha":856,"x_min":93,"x_max":763,"o":"m 763 661 l 763 556 l 93 556 l 93 661 l 763 661 m 763 383 l 763 278 l 93 278 l 93 383 l 763 383 z "},">":{"ha":799,"x_min":63,"x_max":729,"o":"m 63 211 l 415 396 q 560 450 471 426 l 588 458 l 588 481 q 415 544 485 508 l 63 728 l 103 815 l 729 524 l 729 415 l 103 124 l 63 211 z "},"?":{"ha":515,"x_min":0,"x_max":488,"o":"m 232 293 l 121 293 l 121 358 q 201 519 121 449 q 268 581 235 550 q 349 726 349 651 q 306 841 349 800 q 192 882 263 882 q 32 846 122 882 l 0 933 q 211 989 118 989 q 413 926 339 989 q 488 742 488 863 q 461 631 488 683 q 397 543 435 579 q 322 474 360 507 q 232 329 232 393 l 232 293 m 114 13 q 99 27 114 13 q 85 82 85 42 q 114 151 85 122 q 183 181 143 181 q 253 151 224 181 q 282 82 282 122 q 253 13 282 42 q 183 -17 224 -17 q 114 13 143 -17 z "},"@":{"ha":1096,"x_min":58,"x_max":1044,"o":"m 932 429 q 831 706 932 604 q 551 807 731 807 q 277 696 371 807 q 183 399 183 585 q 277 102 183 214 q 547 -10 371 -10 q 764 28 651 -10 l 794 -53 q 546 -103 675 -103 q 190 33 321 -103 q 58 401 58 169 q 192 767 58 633 q 550 901 325 901 q 910 779 775 901 q 1044 450 1044 657 q 973 216 1044 304 q 809 128 901 128 q 676 190 717 128 l 657 190 q 506 128 600 128 q 354 201 411 128 q 297 391 297 275 q 363 587 297 507 q 542 667 429 667 q 664 611 622 667 l 681 611 l 693 636 q 758 663 707 663 l 789 663 l 771 549 l 771 272 q 824 213 771 213 q 902 258 872 213 q 932 429 932 303 m 425 390 q 535 213 425 213 q 618 236 581 213 q 656 301 656 260 l 656 549 q 556 579 621 579 q 458 526 490 579 q 425 390 425 474 z "},"A":{"ha":881,"x_min":18,"x_max":863,"o":"m 551 972 l 863 0 l 724 0 l 640 258 l 249 258 l 157 0 l 18 0 l 365 972 l 551 972 m 379 626 l 289 372 l 604 372 l 524 626 q 474 819 492 728 l 467 854 l 444 854 q 379 626 415 728 z "},"B":{"ha":849,"x_min":139,"x_max":772,"o":"m 390 0 l 139 0 l 139 972 l 389 972 q 711 726 711 972 q 678 617 711 669 q 579 536 644 565 l 579 514 q 727 428 682 483 q 772 281 772 374 q 676 60 772 119 q 390 0 579 0 m 401 461 l 278 461 l 278 97 l 390 97 q 577 136 514 97 q 640 281 640 175 q 576 413 640 364 q 401 461 513 461 m 579 724 q 375 882 579 882 l 278 882 l 278 554 l 374 554 q 524 596 468 554 q 579 724 579 638 z "},"C":{"ha":792,"x_min":83,"x_max":750,"o":"m 718 843 q 512 881 594 881 q 374 851 429 881 q 288 765 318 821 q 245 642 258 710 q 232 486 232 575 q 245 330 232 397 q 289 207 258 263 q 507 92 350 92 q 722 135 590 92 l 750 33 q 506 -17 633 -17 q 83 486 83 -17 q 507 989 83 989 q 746 940 617 989 l 718 843 z "},"D":{"ha":953,"x_min":118,"x_max":865,"o":"m 257 111 l 421 111 q 652 210 585 111 q 719 486 719 310 q 418 867 719 867 l 257 867 l 257 111 m 417 0 l 118 0 l 118 972 l 417 972 q 755 846 644 972 q 865 486 865 719 q 417 0 865 0 z "},"E":{"ha":794,"x_min":132,"x_max":711,"o":"m 711 0 l 132 0 l 132 972 l 711 972 l 711 857 l 271 857 l 271 578 l 669 578 l 669 461 l 271 461 l 271 115 l 711 115 l 711 0 z "},"F":{"ha":774,"x_min":132,"x_max":718,"o":"m 271 0 l 132 0 l 132 972 l 718 972 l 718 856 l 271 856 l 271 550 l 676 550 l 676 433 l 271 433 l 271 0 z "},"G":{"ha":892,"x_min":83,"x_max":808,"o":"m 489 -17 q 183 115 282 -17 q 83 486 83 247 q 515 989 83 989 q 769 943 643 989 l 742 846 q 517 881 599 881 q 378 851 435 881 q 290 765 321 821 q 232 481 232 660 q 292 197 232 301 q 497 92 351 92 q 674 167 611 92 l 674 379 l 482 379 l 482 488 l 808 488 l 808 -11 l 782 -11 q 722 25 743 -11 l 703 61 l 681 61 q 594 3 650 24 q 489 -17 538 -17 z "},"H":{"ha":1014,"x_min":132,"x_max":881,"o":"m 271 0 l 132 0 l 132 972 l 271 972 l 271 550 l 742 550 l 742 972 l 881 972 l 881 0 l 742 0 l 742 433 l 271 433 l 271 0 z "},"I":{"ha":386,"x_min":124,"x_max":263,"o":"m 263 0 l 124 0 l 124 972 l 263 972 l 263 0 z "},"J":{"ha":400,"x_min":-14,"x_max":278,"o":"m -14 -192 l -14 -90 q 103 -51 68 -90 q 139 88 139 -12 l 139 971 l 278 971 l 278 106 q 211 -124 278 -56 q 14 -192 144 -192 l -14 -192 z "},"K":{"ha":819,"x_min":132,"x_max":804,"o":"m 782 972 l 444 518 l 804 -1 l 656 -21 l 303 508 l 626 972 l 782 972 m 271 0 l 132 0 l 132 972 l 271 972 l 271 0 z "},"L":{"ha":704,"x_min":121,"x_max":676,"o":"m 121 0 l 121 972 l 260 972 l 260 119 l 676 119 l 676 0 l 121 0 z "},"M":{"ha":1264,"x_min":126,"x_max":1138,"o":"m 1138 972 l 1138 0 l 999 0 l 999 679 l 1011 844 l 989 849 q 938 667 961 729 l 685 0 l 578 0 l 326 667 q 283 817 308 711 l 275 849 l 253 844 q 265 679 265 724 l 265 0 l 126 0 l 126 972 l 344 972 l 579 349 q 617 154 611 267 l 619 118 l 644 118 q 685 349 649 251 l 919 972 l 1138 972 z "},"N":{"ha":1006,"x_min":125,"x_max":881,"o":"m 264 624 l 264 0 l 125 0 l 125 972 l 250 972 l 669 350 q 731 206 706 299 l 739 176 l 761 181 q 742 344 742 300 l 742 972 l 881 972 l 881 0 l 756 0 l 333 624 q 275 764 297 676 l 267 793 l 244 789 q 264 624 264 668 z "},"O":{"ha":1021,"x_min":83,"x_max":938,"o":"m 938 486 q 510 -17 938 -17 q 83 486 83 -17 q 510 989 83 989 q 833 858 728 989 q 938 486 938 728 m 511 92 q 792 486 792 92 q 511 881 792 881 q 289 765 353 881 q 232 486 232 661 q 375 122 232 197 q 511 92 432 92 z "},"P":{"ha":776,"x_min":122,"x_max":746,"o":"m 261 0 l 122 0 l 122 972 l 426 972 q 664 895 582 972 q 746 665 746 818 q 371 358 746 358 l 261 358 l 261 0 m 261 464 l 394 464 q 555 515 497 464 q 613 665 613 567 q 415 869 613 869 l 261 869 l 261 464 z "},"Q":{"ha":1021,"x_min":83,"x_max":938,"o":"m 938 486 q 774 57 938 179 l 886 -64 l 819 -110 q 788 -119 804 -119 q 722 -82 750 -119 l 658 3 q 510 -17 592 -17 q 83 486 83 -17 q 510 989 83 989 q 833 858 728 989 q 938 486 938 728 m 792 486 q 511 881 792 881 q 289 765 353 881 q 232 486 232 661 q 375 122 232 197 q 495 92 432 92 q 586 99 558 92 l 486 235 l 563 286 l 688 150 q 792 486 792 243 z "},"R":{"ha":847,"x_min":122,"x_max":826,"o":"m 261 0 l 122 0 l 122 972 l 426 972 q 664 899 582 972 q 746 682 746 826 q 571 414 746 479 l 826 0 l 672 0 l 444 386 q 371 383 397 383 l 261 383 l 261 0 m 261 489 l 394 489 q 613 682 613 489 q 415 869 613 869 l 261 869 l 261 489 z "},"S":{"ha":760,"x_min":51,"x_max":692,"o":"m 371 93 q 490 132 442 93 q 538 238 538 171 q 388 411 538 340 l 246 478 q 72 721 72 560 q 169 917 72 844 q 397 989 267 989 q 589 960 507 989 q 664 931 615 950 l 626 832 q 394 882 492 882 q 222 750 222 882 q 251 669 222 701 q 340 607 279 636 l 507 525 q 692 272 692 433 q 663 138 692 196 q 585 47 633 79 q 353 -17 488 -17 q 51 57 218 -17 l 96 161 q 371 93 249 93 z "},"T":{"ha":743,"x_min":4,"x_max":739,"o":"m 440 0 l 300 0 l 300 849 l 4 849 l 4 972 l 739 972 l 739 849 l 440 849 l 440 0 z "},"U":{"ha":964,"x_min":111,"x_max":853,"o":"m 853 972 l 853 361 q 482 -17 853 -17 q 111 361 111 -17 l 111 972 l 250 972 l 250 389 q 299 173 250 247 q 482 99 347 99 q 665 173 617 99 q 714 389 714 247 l 714 972 l 853 972 z "},"V":{"ha":853,"x_min":4,"x_max":849,"o":"m 849 972 l 499 0 l 318 0 l 4 972 l 143 972 l 343 343 q 392 150 371 254 l 399 115 l 424 115 q 488 343 451 242 l 710 972 l 849 972 z "},"W":{"ha":1275,"x_min":10,"x_max":1265,"o":"m 597 640 l 449 0 l 258 0 l 10 972 l 157 972 l 314 318 q 342 147 335 229 l 343 118 l 365 118 q 394 318 374 228 l 543 972 l 732 972 l 881 318 q 907 147 897 247 l 910 118 l 932 118 q 961 318 939 228 l 1118 972 l 1265 972 l 1017 0 l 826 0 l 678 640 q 651 811 661 711 l 649 840 l 626 840 q 597 640 618 731 z "},"X":{"ha":807,"x_min":6,"x_max":788,"o":"m 419 389 l 397 389 q 310 226 368 318 l 167 0 l 6 0 l 342 504 l 60 972 l 214 972 l 332 753 l 400 611 l 422 611 q 496 753 453 682 l 625 972 l 779 972 l 481 504 l 788 0 l 626 0 l 501 226 l 419 389 z "},"Y":{"ha":778,"x_min":4,"x_max":774,"o":"m 451 0 l 315 0 l 315 365 l 4 972 l 151 972 l 331 596 q 369 471 358 538 l 372 449 l 394 449 q 439 596 407 531 l 626 972 l 774 972 l 451 365 l 451 0 z "},"Z":{"ha":757,"x_min":35,"x_max":715,"o":"m 336 119 l 715 119 l 715 0 l 35 0 l 35 119 l 446 735 q 536 844 485 793 l 554 863 l 542 885 q 403 858 474 858 l 74 858 l 74 972 l 686 972 l 686 858 l 271 243 q 181 132 235 189 l 163 114 l 175 92 q 336 119 236 119 z "},"[":{"ha":447,"x_min":125,"x_max":406,"o":"m 125 -206 l 125 1065 l 406 1065 l 406 954 l 253 954 l 253 -94 l 406 -94 l 406 -206 l 125 -206 z "},"\\":{"ha":490,"x_min":-35,"x_max":524,"o":"m 524 -289 l 392 -289 l -35 1028 l 97 1028 l 524 -289 z "},"]":{"ha":447,"x_min":42,"x_max":322,"o":"m 322 1065 l 322 -206 l 42 -206 l 42 -94 l 194 -94 l 194 954 l 42 954 l 42 1065 l 322 1065 z "},"^":{"ha":764,"x_min":83,"x_max":683,"o":"m 626 249 l 464 507 q 403 650 425 563 l 394 679 l 372 679 q 303 507 347 569 l 140 249 l 83 278 l 349 807 l 418 807 l 683 278 l 626 249 z "},"_":{"ha":911,"x_min":28,"x_max":881,"o":"m 28 0 l 28 99 l 881 99 l 881 0 l 28 0 z "},"`":{"ha":428,"x_min":42,"x_max":374,"o":"m 42 989 q 51 1018 42 1004 l 96 1081 l 374 879 l 331 817 l 89 931 q 42 989 42 951 z "},"a":{"ha":783,"x_min":79,"x_max":714,"o":"m 661 497 l 661 171 q 671 103 661 124 q 714 74 681 83 l 694 -10 q 652 -16 685 -17 q 599 -3 619 -15 q 558 43 578 8 l 538 81 l 515 81 q 311 -17 442 -17 q 142 40 204 -17 q 79 203 79 96 q 149 363 79 310 q 365 426 218 415 l 524 439 l 524 485 q 488 603 524 568 q 367 639 451 639 q 158 608 283 639 l 133 690 q 253 721 181 708 q 378 733 325 733 q 590 677 518 733 q 661 497 661 621 m 524 229 l 524 353 l 390 343 q 221 208 221 331 q 351 78 221 78 q 474 113 425 78 q 524 229 524 149 z "},"b":{"ha":810,"x_min":108,"x_max":740,"o":"m 247 617 q 454 733 313 733 q 668 635 596 733 q 740 358 740 538 q 658 81 740 179 q 404 -17 575 -17 q 108 25 301 -17 l 108 1028 l 247 1028 l 247 764 q 231 647 247 701 l 225 629 l 247 617 m 563 560 q 555 580 563 560 q 510 619 546 600 q 411 639 475 639 q 297 603 347 639 q 247 486 247 567 l 247 101 q 384 76 314 76 q 496 97 454 76 q 558 158 538 117 q 586 244 579 199 q 593 360 593 290 q 587 474 593 429 q 563 560 581 519 z "},"c":{"ha":643,"x_min":69,"x_max":608,"o":"m 217 358 q 217 293 217 358 q 265 153 217 228 q 406 79 314 79 q 581 104 499 79 l 608 19 q 414 -17 524 -17 q 69 358 69 -17 q 414 733 69 733 q 608 697 524 733 l 581 615 q 410 639 507 639 q 265 564 314 639 q 217 358 217 489 z "},"d":{"ha":808,"x_min":69,"x_max":731,"o":"m 397 639 q 349 639 397 639 q 258 565 300 639 q 217 358 217 492 q 256 151 217 225 q 395 78 296 78 q 558 133 494 78 l 558 611 q 397 639 494 639 m 365 -17 q 144 81 218 -17 q 69 356 69 178 q 156 633 69 533 q 401 733 242 733 q 536 708 469 733 l 558 700 l 558 1028 l 697 1028 l 697 143 l 731 -11 l 664 -11 q 604 25 625 -11 l 585 61 l 563 61 q 485 0 531 17 q 365 -17 439 -17 z "},"e":{"ha":747,"x_min":69,"x_max":685,"o":"m 658 38 q 399 -17 531 -17 q 153 84 238 -17 q 69 356 69 185 q 150 630 69 526 q 385 733 231 733 q 685 379 685 733 l 685 328 l 217 328 q 413 82 217 82 q 631 121 515 82 l 658 38 m 546 414 q 511 580 546 521 q 384 639 476 639 q 256 581 292 639 q 217 414 221 522 l 546 414 z "},"f":{"ha":513,"x_min":56,"x_max":540,"o":"m 161 772 q 223 981 161 918 q 426 1044 285 1044 q 540 1035 483 1044 l 525 944 q 428 950 485 950 q 300 799 300 950 l 300 717 l 506 717 l 506 622 l 300 622 l 300 0 l 161 0 l 161 622 l 56 622 l 56 671 l 161 717 l 161 772 z "},"g":{"ha":806,"x_min":69,"x_max":697,"o":"m 558 101 q 357 -17 492 -17 q 146 83 222 -17 q 69 358 69 182 q 154 634 69 535 q 401 733 239 733 q 697 692 504 733 l 697 -32 q 608 -232 697 -158 q 374 -306 519 -306 q 99 -243 229 -306 l 131 -154 q 163 -167 138 -157 q 199 -181 189 -176 q 232 -192 208 -185 q 271 -203 256 -199 q 351 -211 311 -211 q 503 -160 450 -211 q 561 -24 557 -108 q 576 72 564 25 l 581 89 l 558 101 m 399 78 q 510 114 461 78 q 558 231 558 150 l 558 622 q 403 639 475 639 q 259 565 301 639 q 217 357 217 492 q 244 161 217 229 q 399 78 279 78 z "},"h":{"ha":832,"x_min":108,"x_max":718,"o":"m 439 733 q 651 664 585 733 q 718 443 718 594 l 718 0 l 579 0 l 579 442 q 547 588 579 536 q 431 639 514 639 q 297 603 347 639 q 247 486 247 567 l 247 0 l 108 0 l 108 1028 l 247 1028 l 247 764 q 231 647 247 701 l 225 629 l 247 617 q 332 704 279 675 q 439 733 385 733 z "},"i":{"ha":367,"x_min":97,"x_max":269,"o":"m 253 0 l 114 0 l 114 717 l 253 717 l 253 0 m 122 899 q 110 911 122 899 q 97 960 97 924 q 122 1021 97 996 q 183 1046 147 1046 q 244 1021 219 1046 q 269 960 269 996 q 244 899 269 924 q 183 874 219 874 q 122 899 147 874 z "},"j":{"ha":374,"x_min":-32,"x_max":276,"o":"m -3 -306 l -32 -306 l -32 -204 q 84 -162 47 -204 q 121 -19 121 -119 l 121 717 l 260 717 l 260 -7 q 192 -237 260 -169 q -3 -306 125 -306 m 129 899 q 117 911 129 899 q 104 960 104 924 q 129 1021 104 996 q 190 1046 154 1046 q 251 1021 226 1046 q 276 960 276 996 q 251 899 276 924 q 190 874 226 874 q 129 899 154 874 z "},"k":{"ha":786,"x_min":108,"x_max":772,"o":"m 247 1028 l 247 0 l 108 0 l 108 1028 l 247 1028 m 728 717 l 432 428 l 772 -1 l 611 -21 l 278 428 l 536 717 l 728 717 z "},"l":{"ha":369,"x_min":115,"x_max":254,"o":"m 254 0 l 115 0 l 115 1028 l 254 1028 l 254 0 z "},"m":{"ha":1257,"x_min":93,"x_max":1142,"o":"m 444 733 q 646 656 579 733 l 668 656 q 751 717 711 701 q 851 733 790 733 q 1069 660 996 733 q 1142 444 1142 586 l 1142 0 l 1003 0 l 1003 443 q 847 639 1003 639 q 686 581 756 639 q 706 444 706 522 l 706 0 l 567 0 l 567 443 q 538 588 567 538 q 419 639 510 639 q 264 586 329 639 l 264 0 l 125 0 l 125 576 l 93 728 l 161 728 q 219 692 199 728 l 239 656 l 261 656 q 344 717 304 701 q 444 733 383 733 z "},"n":{"ha":849,"x_min":93,"x_max":733,"o":"m 161 728 q 219 692 199 728 l 239 656 l 261 656 q 344 717 304 701 q 454 733 385 733 q 667 664 600 733 q 733 443 733 594 l 733 0 l 594 0 l 594 442 q 563 588 594 536 q 433 639 531 639 q 264 586 335 639 l 264 0 l 125 0 l 125 576 l 93 728 l 161 728 z "},"o":{"ha":810,"x_min":69,"x_max":740,"o":"m 657 635 q 699 586 657 635 q 740 358 740 538 q 657 81 740 179 q 405 -17 574 -17 q 153 81 236 -17 q 69 358 69 179 q 153 635 69 538 q 405 733 236 733 q 657 635 574 733 m 405 639 q 311 639 405 639 q 217 358 217 639 q 405 78 217 78 q 593 358 593 78 q 405 639 593 639 z "},"p":{"ha":824,"x_min":93,"x_max":754,"o":"m 567 583 q 544 611 567 583 q 432 639 521 639 q 265 586 343 639 l 265 99 q 428 78 329 78 q 569 153 526 78 q 613 378 613 228 q 567 583 613 528 m 468 733 q 678 635 601 733 q 754 361 754 538 q 669 84 754 185 q 422 -17 585 -17 q 288 -3 354 -17 l 265 3 l 265 -289 l 126 -289 l 126 574 l 93 728 l 161 728 q 219 692 199 728 l 239 656 l 261 656 q 347 718 304 703 q 468 733 389 733 z "},"q":{"ha":806,"x_min":69,"x_max":697,"o":"m 558 101 q 357 -17 492 -17 q 146 83 222 -17 q 69 358 69 182 q 154 634 69 535 q 401 733 239 733 q 697 692 504 733 l 697 -292 l 558 -292 l 558 -46 q 575 71 558 17 l 581 89 l 558 101 m 558 232 l 558 621 q 403 639 478 639 q 259 565 301 639 q 217 357 217 492 q 244 161 217 229 q 393 78 279 78 q 510 115 461 78 q 558 232 558 151 z "},"r":{"ha":501,"x_min":93,"x_max":474,"o":"m 158 728 q 217 692 196 728 l 236 656 l 258 656 q 328 717 290 701 q 417 733 367 733 q 474 731 468 733 l 474 617 l 417 617 q 264 571 308 617 l 264 0 l 125 0 l 125 576 l 93 728 l 158 728 z "},"s":{"ha":699,"x_min":83,"x_max":606,"o":"m 606 201 q 531 37 606 90 q 334 -17 456 -17 q 83 47 213 -17 l 119 133 q 326 78 249 78 q 471 182 471 78 q 449 244 471 221 q 358 296 426 268 l 271 331 q 115 524 115 390 q 189 677 115 621 q 367 733 263 733 q 588 689 471 733 l 558 601 q 369 639 460 639 q 242 542 242 639 q 268 481 242 503 q 363 431 294 460 l 457 389 q 569 313 533 356 q 606 201 606 271 z "},"t":{"ha":549,"x_min":32,"x_max":507,"o":"m 232 890 l 276 890 l 276 717 l 482 717 l 482 621 l 276 621 l 276 201 q 298 113 276 143 q 376 82 319 82 q 489 93 433 82 l 507 1 q 375 -17 461 -17 q 190 41 243 -17 q 138 228 138 99 l 138 621 l 32 621 l 32 669 l 138 717 l 156 811 q 232 890 169 890 z "},"u":{"ha":832,"x_min":115,"x_max":739,"o":"m 363 -17 q 175 55 235 -17 q 115 274 115 126 l 115 717 l 254 717 l 254 275 q 392 78 254 78 q 568 131 493 78 l 568 717 l 707 717 l 707 140 l 739 -11 l 671 -11 q 613 25 633 -11 l 593 61 l 571 61 q 483 -1 528 15 q 363 -17 439 -17 z "},"v":{"ha":747,"x_min":28,"x_max":719,"o":"m 429 286 l 582 717 l 719 717 l 450 0 l 297 0 l 28 717 l 165 717 l 318 286 q 357 144 342 217 l 363 118 l 385 118 q 429 286 403 213 z "},"w":{"ha":1147,"x_min":31,"x_max":1117,"o":"m 763 0 l 619 401 q 588 563 596 465 l 585 593 l 563 593 q 528 401 556 481 l 385 0 l 253 0 l 31 717 l 160 717 l 272 310 q 306 146 292 244 l 310 117 l 332 117 q 371 310 342 228 l 513 717 l 635 717 l 776 310 q 811 147 801 239 l 815 117 l 838 117 q 875 310 851 225 l 988 717 l 1117 717 l 894 0 l 763 0 z "},"x":{"ha":749,"x_min":14,"x_max":735,"o":"m 576 0 l 456 172 q 392 278 410 240 l 385 292 l 363 292 q 293 172 340 240 l 172 0 l 14 0 l 301 382 l 50 717 l 204 717 l 304 576 q 356 486 339 526 l 363 472 l 385 472 q 444 576 408 524 l 543 717 l 699 717 l 446 382 l 735 0 l 576 0 z "},"y":{"ha":710,"x_min":28,"x_max":686,"o":"m 411 349 l 549 717 l 686 717 l 293 -289 l 150 -289 l 288 26 l 28 717 l 168 717 l 299 349 q 338 206 322 279 l 343 181 l 365 181 q 411 349 383 275 z "},"z":{"ha":635,"x_min":7,"x_max":614,"o":"m 288 103 l 614 103 l 614 0 l 7 0 l 7 103 l 354 504 l 458 614 l 446 636 q 311 614 381 614 l 49 614 l 49 717 l 600 717 l 600 614 l 253 213 l 151 104 l 161 83 q 288 103 238 103 z "},"{":{"ha":594,"x_min":86,"x_max":536,"o":"m 536 -186 l 500 -186 q 305 -118 372 -186 q 238 113 238 -50 l 238 196 q 196 308 238 269 q 86 347 154 347 l 86 457 q 196 496 154 457 q 238 608 238 535 l 238 692 q 305 922 238 854 q 500 990 372 990 l 536 990 l 536 896 q 404 863 444 896 q 364 747 364 831 l 364 664 q 334 488 364 544 q 213 413 304 431 l 213 390 q 333 328 304 381 q 363 154 363 275 l 363 53 q 404 -60 363 -28 q 536 -92 446 -92 l 536 -186 z "},"|":{"ha":375,"x_min":125,"x_max":250,"o":"m 250 -289 l 125 -289 l 125 1028 l 250 1028 l 250 -289 z "},"}":{"ha":594,"x_min":58,"x_max":508,"o":"m 94 -186 l 58 -186 l 58 -92 q 190 -60 149 -92 q 232 53 232 -28 l 232 154 q 261 328 232 275 q 382 390 290 381 l 382 413 q 260 488 290 431 q 231 664 231 544 l 231 747 q 190 863 231 831 q 58 896 150 896 l 58 990 l 94 990 q 290 922 222 990 q 357 692 357 854 l 357 608 q 399 496 357 535 q 508 457 440 457 l 508 347 q 399 308 440 347 q 357 196 357 269 l 357 113 q 290 -118 357 -50 q 94 -186 222 -186 z "},"~":{"ha":808,"x_min":39,"x_max":768,"o":"m 608 292 q 393 322 525 292 q 221 353 261 353 q 163 344 181 353 q 138 326 146 336 q 115 294 131 317 l 39 344 q 197 457 94 457 q 413 426 279 457 q 592 396 547 396 q 690 451 665 396 l 768 399 q 608 292 715 292 z "}," ":{"ha":403,"x_min":0,"x_max":0,"o":""},"¡":{"ha":350,"x_min":83,"x_max":281,"o":"m 251 704 q 266 690 251 704 q 281 635 281 675 q 251 565 281 594 q 182 536 222 536 q 113 565 142 536 q 83 635 83 594 q 113 704 83 675 q 182 733 142 733 q 251 704 222 733 m 99 -256 l 126 389 l 238 389 l 265 -256 l 99 -256 z "},"¢":{"ha":646,"x_min":83,"x_max":618,"o":"m 425 221 q 592 243 500 221 l 618 164 q 467 131 550 136 l 474 -15 l 357 -15 l 360 132 q 83 483 83 165 q 157 733 83 644 q 374 833 231 821 l 371 972 l 488 972 l 481 833 q 618 803 549 826 l 592 726 q 420 747 514 747 q 278 677 326 747 q 231 483 231 607 q 278 290 231 360 q 425 221 325 221 z "},"£":{"ha":753,"x_min":56,"x_max":725,"o":"m 297 450 l 307 279 q 225 121 307 164 l 238 99 q 342 114 286 114 l 725 114 l 725 0 l 58 0 l 58 115 q 140 179 111 140 q 169 275 169 218 q 163 450 169 332 l 56 450 l 56 538 l 157 538 q 149 742 149 707 q 231 918 149 847 q 438 989 313 989 q 516 983 489 989 q 558 975 543 978 q 592 967 572 972 l 618 957 q 665 940 660 943 l 638 843 q 439 881 525 881 q 319 838 353 881 q 286 706 286 794 q 292 538 286 617 l 553 538 l 553 450 l 297 450 z "},"¤":{"ha":796,"x_min":69,"x_max":726,"o":"m 167 453 q 115 616 115 524 q 168 781 115 708 l 69 875 l 142 947 l 235 846 q 398 897 308 897 q 560 844 488 897 l 654 947 l 726 875 l 626 781 q 679 616 679 706 q 628 453 679 526 l 726 361 l 654 289 l 564 388 q 397 333 490 333 q 232 386 304 333 l 142 289 l 69 361 l 167 453 m 258 755 q 229 726 258 755 q 200 615 200 697 q 258 476 200 533 q 397 418 317 418 q 536 476 478 418 q 594 615 594 533 q 536 755 594 697 q 397 813 478 813 q 258 755 317 813 z "},"¥":{"ha":778,"x_min":4,"x_max":774,"o":"m 47 361 l 47 449 l 272 449 l 4 972 l 151 972 l 331 596 q 369 471 358 538 l 372 449 l 394 449 q 439 596 407 531 l 626 972 l 774 972 l 496 449 l 719 449 l 719 361 l 451 361 l 451 265 l 719 265 l 719 178 l 451 178 l 451 0 l 315 0 l 315 178 l 47 178 l 47 265 l 315 265 l 315 361 l 47 361 z "},"¦":{"ha":361,"x_min":125,"x_max":236,"o":"m 236 440 l 125 440 l 125 1028 l 236 1028 l 236 440 m 236 -289 l 125 -289 l 125 313 l 236 313 l 236 -289 z "},"§":{"ha":715,"x_min":96,"x_max":618,"o":"m 528 278 q 618 121 618 217 q 542 -29 618 25 q 346 -83 467 -83 q 96 -19 225 -83 l 132 67 q 339 11 261 11 q 483 115 483 11 q 461 178 483 154 q 371 229 439 201 l 283 264 q 128 457 128 324 q 210 617 128 557 q 115 769 115 674 q 189 920 115 864 q 367 976 263 976 q 588 932 471 976 l 558 844 q 369 882 460 882 q 242 785 242 882 q 268 724 242 746 q 363 674 294 703 l 457 632 q 569 556 533 599 q 606 444 606 514 q 528 278 606 335 m 240 475 q 274 408 240 436 q 375 350 308 379 l 417 332 q 485 425 485 356 q 358 553 485 501 l 303 575 q 240 475 240 549 z "},"¨":{"ha":536,"x_min":36,"x_max":500,"o":"m 61 869 q 49 881 61 869 q 36 928 36 893 q 61 987 36 963 q 120 1011 86 1011 q 178 987 154 1011 q 203 928 203 963 q 178 869 203 893 q 120 844 154 844 q 61 869 86 844 m 475 987 q 488 975 475 987 q 500 928 500 963 q 475 869 500 893 q 416 844 450 844 q 358 869 382 844 q 333 928 333 893 q 358 987 333 963 q 416 1011 382 1011 q 475 987 450 1011 z "},"©":{"ha":949,"x_min":69,"x_max":858,"o":"m 464 776 q 551 776 464 776 q 749 670 639 776 q 858 386 858 564 q 750 101 858 208 q 464 -6 642 -6 q 178 101 286 -6 q 69 386 69 208 q 179 670 69 564 q 464 776 289 776 m 167 385 q 167 314 167 385 q 250 160 167 243 q 466 76 333 76 q 682 159 599 76 q 765 384 765 242 q 679 610 765 526 q 463 693 593 693 q 250 610 333 693 q 167 385 167 526 m 474 544 q 374 381 374 544 q 474 218 374 218 q 575 242 513 218 l 590 171 q 474 150 535 150 q 276 383 276 150 q 474 615 276 615 q 590 593 542 615 l 574 526 q 474 544 513 544 z "},"ª":{"ha":478,"x_min":71,"x_max":407,"o":"m 376 817 l 376 660 q 382 635 376 642 q 407 622 388 628 l 393 568 q 361 561 379 561 q 303 619 319 561 l 297 619 q 185 561 258 561 q 102 589 133 561 q 71 674 71 617 q 106 757 71 732 q 219 789 140 782 l 285 796 l 285 810 q 214 885 285 885 q 140 875 186 885 l 111 869 l 90 924 q 226 950 147 950 q 376 817 376 950 m 285 686 l 285 746 l 232 740 q 160 676 160 735 q 213 629 160 629 q 285 686 285 629 m 82 442 l 82 507 l 393 507 l 393 442 l 82 442 z "},"«":{"ha":624,"x_min":46,"x_max":540,"o":"m 235 57 l 46 296 l 46 424 l 235 661 l 297 622 l 167 358 l 297 96 l 235 57 m 478 57 l 289 296 l 289 424 l 478 661 l 540 622 l 410 358 l 540 96 l 478 57 z "},"¬":{"ha":889,"x_min":92,"x_max":789,"o":"m 789 671 l 789 211 l 676 211 l 676 558 l 92 558 l 92 671 l 789 671 z "},"®":{"ha":728,"x_min":67,"x_max":658,"o":"m 363 1014 q 430 1014 363 1014 q 577 935 496 1014 q 658 721 658 856 q 577 506 658 586 q 362 425 496 425 q 147 505 228 425 q 67 720 67 585 q 149 935 67 856 q 363 1014 231 1014 m 140 719 q 140 667 140 719 q 204 553 140 615 q 365 490 268 490 q 526 552 463 490 q 589 719 589 614 q 523 888 589 824 q 363 953 457 953 q 204 888 268 953 q 140 719 140 824 m 326 567 l 264 567 l 264 876 l 374 876 q 454 849 426 876 q 482 772 482 821 q 421 682 482 699 l 500 567 l 431 567 l 360 674 l 326 674 l 326 567 m 326 721 l 358 721 q 415 772 415 721 q 363 831 415 831 l 326 831 l 326 721 z "},"¯":{"ha":575,"x_min":69,"x_max":506,"o":"m 69 885 l 69 981 l 506 981 l 506 885 l 69 885 z "},"°":{"ha":461,"x_min":42,"x_max":419,"o":"m 229 606 q 190 606 229 606 q 97 656 151 606 q 42 785 42 707 q 97 916 42 864 q 229 968 151 968 q 363 916 307 968 q 419 785 419 864 q 363 656 419 707 q 229 606 307 606 m 229 885 q 208 885 229 885 q 160 858 188 885 q 133 785 133 831 q 160 714 133 740 q 229 688 188 688 q 299 714 271 688 q 326 785 326 740 q 299 858 326 831 q 229 885 271 885 z "},"±":{"ha":828,"x_min":93,"x_max":735,"o":"m 735 668 l 735 556 l 465 556 l 465 319 l 356 319 l 356 556 l 93 556 l 93 668 l 356 668 l 356 908 l 465 908 l 465 668 l 735 668 m 735 231 l 735 125 l 93 125 l 93 231 l 735 231 z "},"²":{"ha":372,"x_min":21,"x_max":344,"o":"m 344 592 l 344 514 l 21 514 l 21 582 q 188 764 150 717 q 225 847 225 811 q 207 901 225 883 q 147 918 189 918 q 46 893 106 918 l 24 951 q 171 989 96 989 q 287 954 246 989 q 328 862 328 919 q 283 747 328 804 q 139 592 239 690 l 344 592 z "},"³":{"ha":360,"x_min":28,"x_max":332,"o":"m 150 574 q 233 643 233 574 q 132 721 233 718 l 132 794 q 221 864 221 797 q 201 905 221 890 q 143 919 181 919 q 64 899 106 919 l 40 963 q 158 989 85 989 q 276 958 232 989 q 321 868 321 928 q 297 803 321 832 q 233 764 274 774 l 233 753 q 307 710 282 743 q 332 642 332 678 q 280 542 332 579 q 153 506 228 506 q 28 536 79 506 l 50 599 q 150 574 97 574 z "},"´":{"ha":428,"x_min":53,"x_max":385,"o":"m 385 988 q 338 929 385 950 l 96 815 l 53 878 l 331 1079 l 375 1017 q 385 988 385 1003 z "},"µ":{"ha":832,"x_min":115,"x_max":739,"o":"m 115 -292 l 115 717 l 254 717 l 254 258 q 392 78 254 78 q 568 131 493 78 l 568 717 l 707 717 l 707 140 l 739 -11 l 671 -11 q 613 25 633 -11 l 593 61 l 571 61 q 394 -17 499 -17 q 300 23 342 -17 q 240 101 258 63 l 218 89 q 254 -56 254 17 l 254 -292 l 115 -292 z "},"¶":{"ha":772,"x_min":31,"x_max":739,"o":"m 274 981 l 522 972 l 739 972 l 735 932 q 679 878 726 888 l 629 868 l 629 0 l 522 0 l 522 867 l 419 867 l 419 0 l 313 0 l 313 418 q 103 494 175 418 q 31 703 31 569 q 97 908 31 836 q 274 981 163 981 z "},"·":{"ha":369,"x_min":90,"x_max":288,"o":"m 119 304 q 105 319 119 304 q 90 374 90 333 q 119 443 90 414 q 189 472 149 472 q 258 443 229 472 q 288 374 288 414 q 258 304 288 333 q 189 275 229 275 q 119 304 149 275 z "},"¸":{"ha":319,"x_min":35,"x_max":285,"o":"m 124 -246 q 199 -179 199 -246 q 167 -133 199 -146 q 76 -117 136 -121 l 106 6 l 181 6 l 161 -67 q 252 -106 219 -75 q 285 -181 285 -137 q 129 -306 285 -306 q 35 -292 76 -306 l 49 -236 q 124 -246 85 -246 z "},"¹":{"ha":268,"x_min":7,"x_max":199,"o":"m 199 514 l 103 514 l 103 899 l 10 899 l 7 963 l 135 988 q 157 989 142 989 q 185 977 172 989 q 199 943 199 965 l 199 514 z "},"º":{"ha":457,"x_min":53,"x_max":400,"o":"m 225 949 q 400 757 400 949 q 225 565 400 565 q 53 757 53 565 q 225 949 53 949 m 225 629 q 310 758 310 629 q 225 888 310 888 q 163 850 182 888 q 143 757 143 813 q 225 629 143 629 m 69 442 l 69 507 l 381 507 l 381 442 l 69 442 z "},"»":{"ha":624,"x_min":83,"x_max":578,"o":"m 578 296 l 389 57 l 326 96 l 457 358 l 326 622 l 389 661 l 578 424 l 578 296 m 335 296 l 146 57 l 83 96 l 214 358 l 83 622 l 146 661 l 335 424 l 335 296 z "},"¼":{"ha":847,"x_min":14,"x_max":807,"o":"m 215 514 l 119 514 l 119 899 l 26 899 l 24 963 l 151 988 q 174 989 158 989 q 202 977 189 989 q 215 943 215 965 l 215 514 m 140 0 l 14 0 l 626 972 l 753 972 l 140 0 m 753 467 l 753 149 l 807 149 l 807 79 l 753 79 l 753 0 l 668 0 l 668 79 l 431 79 l 431 143 l 665 467 l 753 467 m 669 149 l 669 361 l 515 149 l 669 149 z "},"½":{"ha":890,"x_min":14,"x_max":839,"o":"m 140 0 l 14 0 l 626 972 l 753 972 l 140 0 m 215 514 l 119 514 l 119 899 l 26 899 l 24 963 l 151 988 q 174 989 158 989 q 202 977 189 989 q 215 943 215 965 l 215 514 m 839 78 l 839 0 l 515 0 l 515 68 q 682 250 644 203 q 719 333 719 297 q 701 387 719 369 q 642 404 683 404 q 540 379 600 404 l 518 438 q 665 475 590 475 q 781 440 740 475 q 822 348 822 406 q 778 233 822 290 q 633 78 733 176 l 839 78 z "},"¾":{"ha":917,"x_min":22,"x_max":876,"o":"m 144 574 q 228 643 228 574 q 126 721 228 718 l 126 794 q 215 864 215 797 q 195 905 215 890 q 138 919 175 919 q 58 899 100 919 l 35 963 q 153 989 79 989 q 271 958 226 989 q 315 868 315 928 q 292 803 315 832 q 228 764 268 774 l 228 753 q 301 710 276 743 q 326 642 326 678 q 274 542 326 579 q 148 506 222 506 q 22 536 74 506 l 44 599 q 144 574 92 574 m 210 0 l 83 0 l 696 972 l 822 972 l 210 0 m 822 467 l 822 149 l 876 149 l 876 79 l 822 79 l 822 0 l 738 0 l 738 79 l 500 79 l 500 143 l 735 467 l 822 467 m 739 149 l 739 361 l 585 149 l 739 149 z "},"¿":{"ha":501,"x_min":28,"x_max":515,"o":"m 394 424 l 394 358 q 314 197 394 268 q 247 137 281 167 q 190 68 214 107 q 167 -27 167 29 q 210 -124 167 -83 q 323 -165 253 -165 q 483 -129 393 -165 l 515 -217 q 304 -272 397 -272 q 102 -209 176 -272 q 28 -25 28 -146 q 54 85 28 33 q 118 174 81 138 q 193 243 156 210 q 283 388 283 324 l 283 424 l 394 424 m 401 704 q 416 690 401 704 q 431 635 431 675 q 401 565 431 594 q 332 536 372 536 q 263 565 292 536 q 233 635 233 594 q 263 704 233 675 q 332 733 292 733 q 401 704 372 733 z "},"À":{"ha":881,"x_min":18,"x_max":863,"o":"m 551 972 l 863 0 l 724 0 l 640 258 l 249 258 l 157 0 l 18 0 l 365 972 l 551 972 m 379 626 l 289 372 l 604 372 l 524 626 q 474 819 492 728 l 467 854 l 444 854 q 379 626 415 728 m 226 1183 q 232 1204 226 1193 l 264 1274 l 574 1125 l 542 1056 l 285 1126 q 226 1183 226 1142 z "},"Á":{"ha":881,"x_min":18,"x_max":863,"o":"m 551 972 l 863 0 l 724 0 l 640 258 l 249 258 l 157 0 l 18 0 l 365 972 l 551 972 m 379 626 l 289 372 l 604 372 l 524 626 q 474 819 492 728 l 467 854 l 444 854 q 379 626 415 728 m 668 1183 q 610 1126 668 1142 l 353 1056 l 321 1125 l 631 1274 l 663 1204 q 668 1183 668 1193 z "},"Â":{"ha":881,"x_min":18,"x_max":863,"o":"m 551 972 l 863 0 l 724 0 l 640 258 l 249 258 l 157 0 l 18 0 l 365 972 l 551 972 m 379 626 l 289 372 l 604 372 l 524 626 q 474 819 492 728 l 467 854 l 444 854 q 379 626 415 728 m 218 1069 l 392 1247 l 521 1247 l 694 1069 l 644 1025 l 456 1161 l 268 1025 l 218 1069 z "},"Ã":{"ha":881,"x_min":18,"x_max":863,"o":"m 551 972 l 863 0 l 724 0 l 640 258 l 249 258 l 157 0 l 18 0 l 365 972 l 551 972 m 379 626 l 289 372 l 604 372 l 524 626 q 474 819 492 728 l 467 854 l 444 854 q 379 626 415 728 m 546 1074 q 443 1102 500 1074 q 359 1131 386 1131 q 316 1119 332 1131 q 278 1076 300 1107 l 201 1126 q 360 1235 257 1235 q 463 1206 404 1235 q 544 1178 522 1178 q 628 1229 606 1178 l 706 1181 q 546 1074 653 1074 z "},"Ä":{"ha":881,"x_min":18,"x_max":863,"o":"m 551 972 l 863 0 l 724 0 l 640 258 l 249 258 l 157 0 l 18 0 l 365 972 l 551 972 m 379 626 l 289 372 l 604 372 l 524 626 q 474 819 492 728 l 467 854 l 444 854 q 379 626 415 728 m 274 1097 q 261 1109 274 1097 q 249 1156 249 1121 q 274 1215 249 1190 q 333 1239 299 1239 q 391 1215 367 1239 q 415 1156 415 1190 q 391 1097 415 1121 q 333 1072 367 1072 q 274 1097 299 1072 m 644 1215 q 657 1202 644 1215 q 669 1156 669 1190 q 644 1097 669 1121 q 585 1072 619 1072 q 527 1097 551 1072 q 503 1156 503 1121 q 527 1215 503 1190 q 585 1239 551 1239 q 644 1215 619 1239 z "},"Å":{"ha":881,"x_min":18,"x_max":863,"o":"m 551 972 l 863 0 l 724 0 l 640 258 l 249 258 l 157 0 l 18 0 l 365 972 l 551 972 m 379 626 l 289 372 l 604 372 l 524 626 q 474 819 492 728 l 467 854 l 444 854 q 379 626 415 728 m 458 1043 q 430 1043 458 1043 q 361 1080 401 1043 q 321 1173 321 1117 q 361 1267 321 1229 q 458 1304 401 1304 q 556 1267 515 1304 q 597 1173 597 1229 q 556 1080 597 1117 q 458 1043 515 1043 m 459 1233 q 446 1233 459 1233 q 417 1217 433 1233 q 400 1173 400 1200 q 417 1131 400 1146 q 459 1115 433 1115 q 501 1131 485 1115 q 518 1173 518 1146 q 501 1217 518 1200 q 459 1233 485 1233 z "},"Æ":{"ha":1396,"x_min":18,"x_max":1313,"o":"m 1313 0 l 733 0 l 733 258 l 349 258 l 185 0 l 18 0 l 685 972 l 1313 972 l 1313 857 l 872 857 l 872 578 l 1271 578 l 1271 461 l 872 461 l 872 115 l 1313 115 l 1313 0 m 733 372 l 733 672 q 753 825 733 738 l 758 854 l 714 854 q 663 726 696 776 l 425 372 l 733 372 z "},"Ç":{"ha":792,"x_min":83,"x_max":750,"o":"m 506 -17 l 488 -15 l 474 -67 q 565 -106 532 -75 q 597 -181 597 -137 q 442 -306 597 -306 q 347 -292 389 -306 l 361 -236 q 436 -246 397 -246 q 511 -179 511 -246 q 480 -133 511 -146 q 389 -117 449 -121 l 414 -10 q 83 486 83 40 q 507 989 83 989 q 746 940 617 989 l 718 843 q 512 881 594 881 q 374 851 429 881 q 288 765 318 821 q 245 642 258 710 q 232 486 232 575 q 245 330 232 397 q 289 207 258 263 q 507 92 350 92 q 722 135 590 92 l 750 33 q 506 -17 633 -17 z "},"È":{"ha":794,"x_min":132,"x_max":711,"o":"m 711 0 l 132 0 l 132 972 l 711 972 l 711 857 l 271 857 l 271 578 l 669 578 l 669 461 l 271 461 l 271 115 l 711 115 l 711 0 m 218 1183 q 224 1204 218 1193 l 256 1274 l 565 1125 l 533 1056 l 276 1126 q 218 1183 218 1142 z "},"É":{"ha":794,"x_min":132,"x_max":711,"o":"m 711 0 l 132 0 l 132 972 l 711 972 l 711 857 l 271 857 l 271 578 l 669 578 l 669 461 l 271 461 l 271 115 l 711 115 l 711 0 m 603 1183 q 544 1126 603 1142 l 288 1056 l 256 1125 l 565 1274 l 597 1204 q 603 1183 603 1193 z "},"Ê":{"ha":794,"x_min":132,"x_max":711,"o":"m 711 0 l 132 0 l 132 972 l 711 972 l 711 857 l 271 857 l 271 578 l 669 578 l 669 461 l 271 461 l 271 115 l 711 115 l 711 0 m 190 1069 l 364 1247 l 493 1247 l 667 1069 l 617 1025 l 428 1161 l 240 1025 l 190 1069 z "},"Ë":{"ha":794,"x_min":132,"x_max":711,"o":"m 711 0 l 132 0 l 132 972 l 711 972 l 711 857 l 271 857 l 271 578 l 669 578 l 669 461 l 271 461 l 271 115 l 711 115 l 711 0 m 236 1097 q 224 1109 236 1097 q 211 1156 211 1121 q 236 1215 211 1190 q 295 1239 261 1239 q 353 1215 329 1239 q 378 1156 378 1190 q 353 1097 378 1121 q 295 1072 329 1072 q 236 1097 261 1072 m 607 1215 q 619 1202 607 1215 q 632 1156 632 1190 q 607 1097 632 1121 q 548 1072 582 1072 q 490 1097 514 1072 q 465 1156 465 1121 q 490 1215 465 1190 q 548 1239 514 1239 q 607 1215 582 1239 z "},"Ì":{"ha":386,"x_min":-43,"x_max":304,"o":"m 263 0 l 124 0 l 124 972 l 263 972 l 263 0 m -43 1183 q -37 1204 -43 1193 l -6 1274 l 304 1125 l 272 1056 l 15 1126 q -43 1183 -43 1142 z "},"Í":{"ha":386,"x_min":88,"x_max":435,"o":"m 263 0 l 124 0 l 124 972 l 263 972 l 263 0 m 435 1183 q 376 1126 435 1142 l 119 1056 l 88 1125 l 397 1274 l 429 1204 q 435 1183 435 1193 z "},"Î":{"ha":386,"x_min":-44,"x_max":432,"o":"m 263 0 l 124 0 l 124 972 l 263 972 l 263 0 m -44 1069 l 129 1247 l 258 1247 l 432 1069 l 382 1025 l 193 1161 l 6 1025 l -44 1069 z "},"Ï":{"ha":386,"x_min":-8,"x_max":413,"o":"m 263 0 l 124 0 l 124 972 l 263 972 l 263 0 m 17 1097 q 4 1109 17 1097 q -8 1156 -8 1121 q 17 1215 -8 1190 q 76 1239 42 1239 q 134 1215 110 1239 q 158 1156 158 1190 q 134 1097 158 1121 q 76 1072 110 1072 q 17 1097 42 1072 m 388 1215 q 400 1202 388 1215 q 413 1156 413 1190 q 388 1097 413 1121 q 328 1072 363 1072 q 270 1097 294 1072 q 246 1156 246 1121 q 270 1215 246 1190 q 328 1239 294 1239 q 388 1215 363 1239 z "},"Ð":{"ha":953,"x_min":19,"x_max":865,"o":"m 19 442 l 19 549 l 118 549 l 118 972 l 417 972 q 755 846 644 972 q 865 486 865 719 q 417 0 865 0 l 118 0 l 118 442 l 19 442 m 257 111 l 421 111 q 652 210 585 111 q 719 486 719 310 q 418 867 719 867 l 257 867 l 257 549 l 478 549 l 478 442 l 257 442 l 257 111 z "},"Ñ":{"ha":1006,"x_min":125,"x_max":881,"o":"m 264 624 l 264 0 l 125 0 l 125 972 l 250 972 l 669 350 q 731 206 706 299 l 739 176 l 761 181 q 742 344 742 300 l 742 972 l 881 972 l 881 0 l 756 0 l 333 624 q 275 764 297 676 l 267 793 l 244 789 q 264 624 264 668 m 596 1075 q 493 1103 550 1075 q 409 1132 436 1132 q 366 1120 382 1132 q 328 1078 350 1108 l 251 1128 q 410 1236 307 1236 q 513 1208 454 1236 q 594 1179 572 1179 q 678 1231 656 1179 l 756 1182 q 596 1075 703 1075 z "},"Ò":{"ha":1021,"x_min":83,"x_max":938,"o":"m 938 486 q 510 -17 938 -17 q 83 486 83 -17 q 510 989 83 989 q 833 858 728 989 q 938 486 938 728 m 511 92 q 792 486 792 92 q 511 881 792 881 q 289 765 353 881 q 232 486 232 661 q 375 122 232 197 q 511 92 432 92 m 317 1183 q 322 1204 317 1193 l 354 1274 l 664 1125 l 632 1056 l 375 1126 q 317 1183 317 1142 z "},"Ó":{"ha":1021,"x_min":83,"x_max":938,"o":"m 938 486 q 510 -17 938 -17 q 83 486 83 -17 q 510 989 83 989 q 833 858 728 989 q 938 486 938 728 m 511 92 q 792 486 792 92 q 511 881 792 881 q 289 765 353 881 q 232 486 232 661 q 375 122 232 197 q 511 92 432 92 m 711 1183 q 653 1126 711 1142 l 396 1056 l 364 1125 l 674 1274 l 706 1204 q 711 1183 711 1193 z "},"Ô":{"ha":1021,"x_min":83,"x_max":938,"o":"m 938 486 q 510 -17 938 -17 q 83 486 83 -17 q 510 989 83 989 q 833 858 728 989 q 938 486 938 728 m 511 92 q 792 486 792 92 q 511 881 792 881 q 289 765 353 881 q 232 486 232 661 q 375 122 232 197 q 511 92 432 92 m 278 1069 l 451 1247 l 581 1247 l 754 1069 l 704 1025 l 515 1161 l 328 1025 l 278 1069 z "},"Õ":{"ha":1021,"x_min":83,"x_max":938,"o":"m 938 486 q 510 -17 938 -17 q 83 486 83 -17 q 510 989 83 989 q 833 858 728 989 q 938 486 938 728 m 511 92 q 792 486 792 92 q 511 881 792 881 q 289 765 353 881 q 232 486 232 661 q 375 122 232 197 q 511 92 432 92 m 608 1074 q 506 1102 563 1074 q 422 1131 449 1131 q 378 1119 394 1131 q 340 1076 363 1107 l 264 1126 q 422 1235 319 1235 q 526 1206 467 1235 q 607 1178 585 1178 q 690 1229 668 1178 l 768 1181 q 608 1074 715 1074 z "},"Ö":{"ha":1021,"x_min":83,"x_max":938,"o":"m 938 486 q 510 -17 938 -17 q 83 486 83 -17 q 510 989 83 989 q 833 858 728 989 q 938 486 938 728 m 511 92 q 792 486 792 92 q 511 881 792 881 q 289 765 353 881 q 232 486 232 661 q 375 122 232 197 q 511 92 432 92 m 335 1097 q 322 1109 335 1097 q 310 1156 310 1121 q 335 1215 310 1190 q 394 1239 360 1239 q 452 1215 428 1239 q 476 1156 476 1190 q 452 1097 476 1121 q 394 1072 428 1072 q 335 1097 360 1072 m 706 1215 q 718 1202 706 1215 q 731 1156 731 1190 q 706 1097 731 1121 q 647 1072 681 1072 q 588 1097 613 1072 q 564 1156 564 1121 q 588 1215 564 1190 q 647 1239 613 1239 q 706 1215 681 1239 z "},"×":{"ha":807,"x_min":83,"x_max":724,"o":"m 644 163 l 401 404 l 164 167 l 83 246 l 322 485 l 86 721 l 165 801 l 401 564 l 643 804 l 722 725 l 481 483 l 724 242 l 644 163 z "},"Ø":{"ha":1021,"x_min":83,"x_max":938,"o":"m 83 486 q 510 989 83 989 q 756 926 657 989 l 825 1021 l 925 947 l 847 839 q 938 486 938 711 q 510 -17 938 -17 q 272 40 367 -17 l 211 -46 l 106 26 l 178 125 q 83 486 83 251 m 683 825 q 526 881 619 881 q 376 851 432 881 q 289 765 319 821 q 232 486 232 661 q 239 358 232 404 q 258 243 246 311 l 283 239 q 363 381 303 297 l 683 825 m 511 92 q 792 486 792 92 q 767 721 792 633 l 742 725 q 674 597 724 668 l 344 140 q 511 92 408 92 z "},"Ù":{"ha":964,"x_min":111,"x_max":853,"o":"m 853 972 l 853 361 q 482 -17 853 -17 q 111 361 111 -17 l 111 972 l 250 972 l 250 389 q 299 173 250 247 q 482 99 347 99 q 665 173 617 99 q 714 389 714 247 l 714 972 l 853 972 m 296 1183 q 301 1204 296 1193 l 333 1274 l 643 1125 l 611 1056 l 354 1126 q 296 1183 296 1142 z "},"Ú":{"ha":964,"x_min":111,"x_max":853,"o":"m 853 972 l 853 361 q 482 -17 853 -17 q 111 361 111 -17 l 111 972 l 250 972 l 250 389 q 299 173 250 247 q 482 99 347 99 q 665 173 617 99 q 714 389 714 247 l 714 972 l 853 972 m 671 1183 q 613 1126 671 1142 l 356 1056 l 324 1125 l 633 1274 l 665 1204 q 671 1183 671 1193 z "},"Û":{"ha":964,"x_min":111,"x_max":853,"o":"m 853 972 l 853 361 q 482 -17 853 -17 q 111 361 111 -17 l 111 972 l 250 972 l 250 389 q 299 173 250 247 q 482 99 347 99 q 665 173 617 99 q 714 389 714 247 l 714 972 l 853 972 m 247 1069 l 421 1247 l 550 1247 l 724 1069 l 674 1025 l 485 1161 l 297 1025 l 247 1069 z "},"Ü":{"ha":964,"x_min":111,"x_max":853,"o":"m 853 972 l 853 361 q 482 -17 853 -17 q 111 361 111 -17 l 111 972 l 250 972 l 250 389 q 299 173 250 247 q 482 99 347 99 q 665 173 617 99 q 714 389 714 247 l 714 972 l 853 972 m 299 1097 q 286 1109 299 1097 q 274 1156 274 1121 q 299 1215 274 1190 q 358 1239 324 1239 q 416 1215 392 1239 q 440 1156 440 1190 q 416 1097 440 1121 q 358 1072 392 1072 q 299 1097 324 1072 m 669 1215 q 682 1202 669 1215 q 694 1156 694 1190 q 669 1097 694 1121 q 610 1072 644 1072 q 552 1097 576 1072 q 528 1156 528 1121 q 552 1215 528 1190 q 610 1239 576 1239 q 669 1215 644 1239 z "},"Ý":{"ha":778,"x_min":4,"x_max":774,"o":"m 451 0 l 315 0 l 315 365 l 4 972 l 151 972 l 331 596 q 369 471 358 538 l 372 449 l 394 449 q 439 596 407 531 l 626 972 l 774 972 l 451 365 l 451 0 m 601 1183 q 543 1126 601 1142 l 286 1056 l 254 1125 l 564 1274 l 596 1204 q 601 1183 601 1193 z "},"Þ":{"ha":776,"x_min":122,"x_max":746,"o":"m 261 0 l 122 0 l 122 972 l 261 972 l 261 775 l 426 775 q 664 698 582 775 q 746 468 746 621 q 371 161 746 161 l 261 161 l 261 0 m 261 267 l 394 267 q 555 318 497 267 q 613 468 613 369 q 415 672 613 672 l 261 672 l 261 267 z "},"ß":{"ha":971,"x_min":56,"x_max":915,"o":"m 744 954 q 788 840 788 904 q 751 735 788 776 q 669 672 714 694 q 588 616 625 650 q 551 542 551 582 q 578 481 551 503 q 672 431 604 460 l 767 389 q 879 313 843 356 q 915 201 915 271 q 840 37 915 90 q 644 -17 765 -17 q 393 47 522 -17 l 429 133 q 636 78 558 78 q 781 182 781 78 q 758 244 781 221 q 668 296 736 268 l 581 331 q 425 524 425 390 q 442 603 425 567 q 485 660 460 639 q 541 703 511 682 q 597 739 571 724 q 657 821 657 775 q 606 918 657 886 q 485 950 554 950 l 456 950 q 339 898 378 950 q 300 774 300 846 l 300 0 l 161 0 l 161 622 l 56 622 l 56 671 l 161 717 l 161 747 q 454 1044 161 1044 l 500 1044 q 744 954 665 1044 z "},"à":{"ha":783,"x_min":79,"x_max":714,"o":"m 661 497 l 661 171 q 671 103 661 124 q 714 74 681 83 l 694 -10 q 652 -16 685 -17 q 599 -3 619 -15 q 558 43 578 8 l 538 81 l 515 81 q 311 -17 442 -17 q 142 40 204 -17 q 79 203 79 96 q 149 363 79 310 q 365 426 218 415 l 524 439 l 524 485 q 488 603 524 568 q 367 639 451 639 q 158 608 283 639 l 133 690 q 253 721 181 708 q 378 733 325 733 q 590 677 518 733 q 661 497 661 621 m 524 229 l 524 353 l 390 343 q 221 208 221 331 q 351 78 221 78 q 474 113 425 78 q 524 229 524 149 m 203 989 q 213 1018 203 1004 l 257 1081 l 535 879 l 492 817 l 250 931 q 203 989 203 951 z "},"á":{"ha":783,"x_min":79,"x_max":714,"o":"m 661 497 l 661 171 q 671 103 661 124 q 714 74 681 83 l 694 -10 q 652 -16 685 -17 q 599 -3 619 -15 q 558 43 578 8 l 538 81 l 515 81 q 311 -17 442 -17 q 142 40 204 -17 q 79 203 79 96 q 149 363 79 310 q 365 426 218 415 l 524 439 l 524 485 q 488 603 524 568 q 367 639 451 639 q 158 608 283 639 l 133 690 q 253 721 181 708 q 378 733 325 733 q 590 677 518 733 q 661 497 661 621 m 524 229 l 524 353 l 390 343 q 221 208 221 331 q 351 78 221 78 q 474 113 425 78 q 524 229 524 149 m 558 988 q 511 929 558 950 l 269 815 l 226 878 l 504 1079 l 549 1017 q 558 988 558 1003 z "},"â":{"ha":783,"x_min":79,"x_max":714,"o":"m 661 497 l 661 171 q 671 103 661 124 q 714 74 681 83 l 694 -10 q 652 -16 685 -17 q 599 -3 619 -15 q 558 43 578 8 l 538 81 l 515 81 q 311 -17 442 -17 q 142 40 204 -17 q 79 203 79 96 q 149 363 79 310 q 365 426 218 415 l 524 439 l 524 485 q 488 603 524 568 q 367 639 451 639 q 158 608 283 639 l 133 690 q 253 721 181 708 q 378 733 325 733 q 590 677 518 733 q 661 497 661 621 m 524 229 l 524 353 l 390 343 q 221 208 221 331 q 351 78 221 78 q 474 113 425 78 q 524 229 524 149 m 157 849 l 331 1054 l 460 1054 l 633 849 l 583 804 l 394 961 l 207 804 l 157 849 z "},"ã":{"ha":783,"x_min":79,"x_max":714,"o":"m 661 497 l 661 171 q 671 103 661 124 q 714 74 681 83 l 694 -10 q 652 -16 685 -17 q 599 -3 619 -15 q 558 43 578 8 l 538 81 l 515 81 q 311 -17 442 -17 q 142 40 204 -17 q 79 203 79 96 q 149 363 79 310 q 365 426 218 415 l 524 439 l 524 485 q 488 603 524 568 q 367 639 451 639 q 158 608 283 639 l 133 690 q 253 721 181 708 q 378 733 325 733 q 590 677 518 733 q 661 497 661 621 m 524 229 l 524 353 l 390 343 q 221 208 221 331 q 351 78 221 78 q 474 113 425 78 q 524 229 524 149 m 489 847 q 386 876 443 847 q 302 904 329 904 q 259 892 275 904 q 221 850 243 881 l 144 900 q 303 1008 200 1008 q 406 980 347 1008 q 488 951 465 951 q 571 1003 549 951 l 649 954 q 489 847 596 847 z "},"ä":{"ha":783,"x_min":79,"x_max":714,"o":"m 661 497 l 661 171 q 671 103 661 124 q 714 74 681 83 l 694 -10 q 652 -16 685 -17 q 599 -3 619 -15 q 558 43 578 8 l 538 81 l 515 81 q 311 -17 442 -17 q 142 40 204 -17 q 79 203 79 96 q 149 363 79 310 q 365 426 218 415 l 524 439 l 524 485 q 488 603 524 568 q 367 639 451 639 q 158 608 283 639 l 133 690 q 253 721 181 708 q 378 733 325 733 q 590 677 518 733 q 661 497 661 621 m 524 229 l 524 353 l 390 343 q 221 208 221 331 q 351 78 221 78 q 474 113 425 78 q 524 229 524 149 m 189 869 q 176 881 189 869 q 164 928 164 893 q 189 987 164 963 q 248 1011 214 1011 q 306 987 282 1011 q 331 928 331 963 q 306 869 331 893 q 248 844 282 844 q 189 869 214 844 m 603 987 q 615 975 603 987 q 628 928 628 963 q 603 869 628 893 q 544 844 578 844 q 485 869 510 844 q 461 928 461 893 q 485 987 461 963 q 544 1011 510 1011 q 603 987 578 1011 z "},"å":{"ha":783,"x_min":79,"x_max":714,"o":"m 661 497 l 661 171 q 671 103 661 124 q 714 74 681 83 l 694 -10 q 652 -16 685 -17 q 599 -3 619 -15 q 558 43 578 8 l 538 81 l 515 81 q 311 -17 442 -17 q 142 40 204 -17 q 79 203 79 96 q 149 363 79 310 q 365 426 218 415 l 524 439 l 524 485 q 488 603 524 568 q 367 639 451 639 q 158 608 283 639 l 133 690 q 253 721 181 708 q 378 733 325 733 q 590 677 518 733 q 661 497 661 621 m 524 229 l 524 353 l 390 343 q 221 208 221 331 q 351 78 221 78 q 474 113 425 78 q 524 229 524 149 m 285 828 q 263 848 285 828 q 242 929 242 868 q 285 1031 242 990 q 390 1072 328 1072 q 497 1031 453 1072 q 542 929 542 990 q 497 828 542 868 q 390 789 453 789 q 285 828 328 789 m 391 999 q 377 999 391 999 q 343 979 363 999 q 324 930 324 960 q 343 881 324 900 q 391 863 363 863 q 440 881 419 863 q 460 930 460 900 q 440 979 460 960 q 391 999 419 999 z "},"æ":{"ha":1192,"x_min":79,"x_max":1129,"o":"m 829 733 q 1129 394 1129 733 l 1129 343 l 661 343 q 857 82 661 82 q 1075 121 960 82 l 1103 38 q 847 -17 976 -17 q 585 97 668 -17 l 563 97 q 349 -17 485 -17 q 146 39 213 -17 q 79 201 79 94 q 151 360 79 308 q 368 421 222 413 l 524 429 l 524 485 q 488 603 524 568 q 367 639 451 639 q 158 608 283 639 l 133 690 q 378 733 243 733 q 601 647 546 733 l 624 647 q 715 715 668 697 q 829 733 763 733 m 524 229 l 524 343 l 390 338 q 221 208 221 332 q 351 78 221 78 q 474 113 425 78 q 524 229 524 149 m 990 429 q 955 584 990 528 q 828 640 919 640 q 701 585 736 640 q 661 429 667 529 l 990 429 z "},"ç":{"ha":643,"x_min":69,"x_max":608,"o":"m 336 -246 q 411 -179 411 -246 q 380 -133 411 -146 q 289 -117 349 -121 l 315 -7 q 69 358 69 44 q 414 733 69 733 q 608 697 524 733 l 581 615 q 410 639 507 639 q 265 564 314 639 q 217 358 217 489 q 265 153 217 228 q 406 79 314 79 q 581 104 499 79 l 608 19 q 414 -17 524 -17 q 388 -15 396 -17 l 374 -67 q 465 -106 432 -75 q 497 -181 497 -137 q 342 -306 497 -306 q 247 -292 289 -306 l 261 -236 q 336 -246 297 -246 z "},"è":{"ha":747,"x_min":69,"x_max":685,"o":"m 658 38 q 399 -17 531 -17 q 153 84 238 -17 q 69 356 69 185 q 150 630 69 526 q 385 733 231 733 q 685 379 685 733 l 685 328 l 217 328 q 413 82 217 82 q 631 121 515 82 l 658 38 m 546 414 q 511 580 546 521 q 384 639 476 639 q 256 581 292 639 q 217 414 221 522 l 546 414 m 215 989 q 225 1018 215 1004 l 269 1081 l 547 879 l 504 817 l 263 931 q 215 989 215 951 z "},"é":{"ha":817,"x_min":107,"x_max":722,"o":"m 608 988 q 561 929 608 950 l 319 815 l 276 878 l 554 1079 l 599 1017 q 608 988 608 1003 m 422 733 q 722 379 722 733 l 722 328 l 254 328 q 450 82 254 82 q 668 121 553 82 l 696 38 q 440 -17 575 -14 q 436 -17 438 -17 q 191 84 275 -17 q 107 356 107 185 q 188 630 107 526 q 422 733 268 733 m 422 639 q 375 639 422 639 q 294 581 329 639 q 254 414 258 522 l 583 414 q 549 580 583 521 q 422 639 514 639 z "},"ê":{"ha":747,"x_min":69,"x_max":685,"o":"m 658 38 q 399 -17 531 -17 q 153 84 238 -17 q 69 356 69 185 q 150 630 69 526 q 385 733 231 733 q 685 379 685 733 l 685 328 l 217 328 q 413 82 217 82 q 631 121 515 82 l 658 38 m 546 414 q 511 580 546 521 q 384 639 476 639 q 256 581 292 639 q 217 414 221 522 l 546 414 m 147 849 l 321 1054 l 450 1054 l 624 849 l 574 804 l 385 961 l 197 804 l 147 849 z "},"ë":{"ha":747,"x_min":69,"x_max":685,"o":"m 385 733 q 685 379 685 733 l 685 328 l 217 328 q 413 82 217 82 q 631 121 515 82 l 658 38 q 403 -17 538 -14 q 399 -17 400 -17 q 153 84 238 -17 q 69 356 69 185 q 150 630 69 526 q 385 733 231 733 m 384 639 q 338 639 384 639 q 256 581 292 639 q 217 414 221 522 l 546 414 q 511 580 546 521 q 384 639 476 639 m 178 869 q 165 881 178 869 q 153 928 153 893 q 178 987 153 963 q 237 1011 203 1011 q 295 987 271 1011 q 319 928 319 963 q 295 869 319 893 q 237 844 271 844 q 178 869 203 844 m 592 987 q 604 975 592 987 q 617 928 617 963 q 592 869 617 893 q 533 844 567 844 q 474 869 499 844 q 450 928 450 893 q 474 987 450 963 q 533 1011 499 1011 q 592 987 567 1011 z "},"ì":{"ha":408,"x_min":6,"x_max":338,"o":"m 6 989 q 15 1018 6 1004 l 60 1081 l 338 879 l 294 817 l 53 931 q 6 989 6 951 m 274 0 l 135 0 l 135 717 l 274 717 l 274 0 z "},"í":{"ha":407,"x_min":67,"x_max":399,"o":"m 399 988 q 351 929 399 950 l 110 815 l 67 878 l 344 1079 l 389 1017 q 399 988 399 1003 m 274 0 l 135 0 l 135 717 l 274 717 l 274 0 z "},"î":{"ha":408,"x_min":-35,"x_max":442,"o":"m -35 849 l 139 1054 l 268 1054 l 442 849 l 392 804 l 203 961 l 15 804 l -35 849 m 272 0 l 133 0 l 133 717 l 272 717 l 272 0 z "},"ï":{"ha":408,"x_min":4,"x_max":404,"o":"m 29 892 q 17 905 29 892 q 4 951 4 917 q 29 1010 4 986 q 88 1035 54 1035 q 147 1010 122 1035 q 171 951 171 986 q 147 892 171 917 q 88 868 122 868 q 29 892 54 868 m 379 1010 q 392 998 379 1010 q 404 951 404 986 q 379 892 404 917 q 320 868 354 868 q 262 892 286 868 q 238 951 238 917 q 262 1010 238 986 q 320 1035 286 1035 q 379 1010 354 1035 m 274 0 l 135 0 l 135 717 l 274 717 l 274 0 z "},"ð":{"ha":810,"x_min":69,"x_max":740,"o":"m 740 357 q 653 80 740 176 q 404 -17 567 -17 q 156 79 242 -17 q 69 338 69 175 q 156 592 69 501 q 406 683 243 683 q 564 603 525 683 l 585 610 q 414 850 521 768 l 269 751 l 224 817 l 340 897 q 208 956 279 931 l 243 1042 q 433 961 356 1007 l 553 1043 l 599 976 l 503 911 q 740 357 740 725 m 215 338 q 215 281 215 338 q 261 149 215 225 q 403 74 307 74 q 547 150 500 74 q 594 339 594 226 q 549 522 594 451 q 406 592 503 592 q 262 521 308 592 q 215 338 215 450 z "},"ñ":{"ha":849,"x_min":93,"x_max":733,"o":"m 161 728 q 219 692 199 728 l 239 656 l 261 656 q 344 717 304 701 q 454 733 385 733 q 667 664 600 733 q 733 443 733 594 l 733 0 l 594 0 l 594 442 q 563 588 594 536 q 433 639 531 639 q 264 586 335 639 l 264 0 l 125 0 l 125 576 l 93 728 l 161 728 m 522 853 q 419 881 476 853 q 335 910 363 910 q 292 898 308 910 q 254 856 276 886 l 178 906 q 336 1014 233 1014 q 440 985 381 1014 q 521 957 499 957 q 604 1008 582 957 l 682 960 q 522 853 629 853 z "},"ò":{"ha":810,"x_min":69,"x_max":740,"o":"m 657 635 q 699 586 657 635 q 740 358 740 538 q 657 81 740 179 q 405 -17 574 -17 q 153 81 236 -17 q 69 358 69 179 q 153 635 69 538 q 405 733 236 733 q 657 635 574 733 m 405 639 q 311 639 405 639 q 217 358 217 639 q 405 78 217 78 q 593 358 593 78 q 405 639 593 639 m 213 989 q 222 1018 213 1004 l 267 1081 l 544 879 l 501 817 l 260 931 q 213 989 213 951 z "},"ó":{"ha":810,"x_min":69,"x_max":740,"o":"m 657 635 q 699 586 657 635 q 740 358 740 538 q 657 81 740 179 q 405 -17 574 -17 q 153 81 236 -17 q 69 358 69 179 q 153 635 69 538 q 405 733 236 733 q 657 635 574 733 m 405 639 q 311 639 405 639 q 217 358 217 639 q 405 78 217 78 q 593 358 593 78 q 405 639 593 639 m 569 988 q 522 929 569 950 l 281 815 l 238 878 l 515 1079 l 560 1017 q 569 988 569 1003 z "},"ô":{"ha":810,"x_min":69,"x_max":740,"o":"m 657 635 q 699 586 657 635 q 740 358 740 538 q 657 81 740 179 q 405 -17 574 -17 q 153 81 236 -17 q 69 358 69 179 q 153 635 69 538 q 405 733 236 733 q 657 635 574 733 m 405 639 q 311 639 405 639 q 217 358 217 639 q 405 78 217 78 q 593 358 593 78 q 405 639 593 639 m 165 849 l 339 1054 l 468 1054 l 642 849 l 592 804 l 403 961 l 215 804 l 165 849 z "},"õ":{"ha":810,"x_min":69,"x_max":740,"o":"m 657 635 q 699 586 657 635 q 740 358 740 538 q 657 81 740 179 q 405 -17 574 -17 q 153 81 236 -17 q 69 358 69 179 q 153 635 69 538 q 405 733 236 733 q 657 635 574 733 m 405 639 q 311 639 405 639 q 217 358 217 639 q 405 78 217 78 q 593 358 593 78 q 405 639 593 639 m 497 853 q 394 881 451 853 q 310 910 338 910 q 267 898 283 910 q 229 856 251 886 l 153 906 q 311 1014 208 1014 q 415 985 356 1014 q 496 957 474 957 q 579 1008 557 957 l 657 960 q 497 853 604 853 z "},"ö":{"ha":810,"x_min":69,"x_max":740,"o":"m 657 635 q 699 586 657 635 q 740 358 740 538 q 657 81 740 179 q 405 -17 574 -17 q 153 81 236 -17 q 69 358 69 179 q 153 635 69 538 q 405 733 236 733 q 657 635 574 733 m 405 639 q 311 639 405 639 q 217 358 217 639 q 405 78 217 78 q 593 358 593 78 q 405 639 593 639 m 197 869 q 185 881 197 869 q 172 928 172 893 q 197 987 172 963 q 256 1011 222 1011 q 315 987 290 1011 q 339 928 339 963 q 315 869 339 893 q 256 844 290 844 q 197 869 222 844 m 611 987 q 624 975 611 987 q 636 928 636 963 q 611 869 636 893 q 552 844 586 844 q 494 869 518 844 q 469 928 469 893 q 494 987 469 963 q 552 1011 518 1011 q 611 987 586 1011 z "},"÷":{"ha":836,"x_min":69,"x_max":767,"o":"m 354 665 q 341 678 354 665 q 328 729 328 692 q 354 793 328 767 q 418 819 381 819 q 482 793 456 819 q 508 729 508 767 q 482 665 508 692 q 418 639 456 639 q 354 665 381 639 m 354 136 q 341 149 354 136 q 328 200 328 163 q 354 264 328 238 q 418 290 381 290 q 482 264 456 290 q 508 200 508 238 q 482 136 508 163 q 418 110 456 110 q 354 136 381 110 m 767 517 l 767 411 l 69 411 l 69 517 l 767 517 z "},"ø":{"ha":810,"x_min":31,"x_max":767,"o":"m 679 604 q 740 344 740 510 q 657 81 740 179 q 404 -17 574 -17 q 196 40 276 -17 l 121 -47 l 31 28 l 118 129 q 69 358 69 218 q 153 635 69 538 q 404 733 236 733 q 597 685 521 733 l 676 776 l 767 704 l 679 604 m 406 78 q 593 358 593 78 q 599 513 593 460 l 574 517 q 504 399 546 447 l 276 133 q 406 78 324 78 m 406 639 q 217 358 217 639 q 210 231 217 300 l 235 224 q 313 354 260 293 l 521 597 q 406 639 476 639 z "},"ù":{"ha":832,"x_min":115,"x_max":739,"o":"m 363 -17 q 175 55 235 -17 q 115 274 115 126 l 115 717 l 254 717 l 254 275 q 392 78 254 78 q 568 131 493 78 l 568 717 l 707 717 l 707 140 l 739 -11 l 671 -11 q 613 25 633 -11 l 593 61 l 571 61 q 483 -1 528 15 q 363 -17 439 -17 m 224 989 q 233 1018 224 1004 l 278 1081 l 556 879 l 513 817 l 271 931 q 224 989 224 951 z "},"ú":{"ha":832,"x_min":115,"x_max":739,"o":"m 363 -17 q 175 55 235 -17 q 115 274 115 126 l 115 717 l 254 717 l 254 275 q 392 78 254 78 q 568 131 493 78 l 568 717 l 707 717 l 707 140 l 739 -11 l 671 -11 q 613 25 633 -11 l 593 61 l 571 61 q 483 -1 528 15 q 363 -17 439 -17 m 581 988 q 533 929 581 950 l 292 815 l 249 878 l 526 1079 l 571 1017 q 581 988 581 1003 z "},"û":{"ha":832,"x_min":115,"x_max":739,"o":"m 363 -17 q 175 55 235 -17 q 115 274 115 126 l 115 717 l 254 717 l 254 275 q 392 78 254 78 q 568 131 493 78 l 568 717 l 707 717 l 707 140 l 739 -11 l 671 -11 q 613 25 633 -11 l 593 61 l 571 61 q 483 -1 528 15 q 363 -17 439 -17 m 172 849 l 346 1054 l 475 1054 l 649 849 l 599 804 l 410 961 l 222 804 l 172 849 z "},"ü":{"ha":832,"x_min":115,"x_max":739,"o":"m 363 -17 q 175 55 235 -17 q 115 274 115 126 l 115 717 l 254 717 l 254 275 q 392 78 254 78 q 568 131 493 78 l 568 717 l 707 717 l 707 140 l 739 -11 l 671 -11 q 613 25 633 -11 l 593 61 l 571 61 q 483 -1 528 15 q 363 -17 439 -17 m 204 869 q 192 881 204 869 q 179 928 179 893 q 204 987 179 963 q 263 1011 229 1011 q 322 987 297 1011 q 346 928 346 963 q 322 869 346 893 q 263 844 297 844 q 204 869 229 844 m 618 987 q 631 975 618 987 q 643 928 643 963 q 618 869 643 893 q 559 844 593 844 q 501 869 525 844 q 476 928 476 893 q 501 987 476 963 q 559 1011 525 1011 q 618 987 593 1011 z "},"ý":{"ha":710,"x_min":28,"x_max":686,"o":"m 549 717 l 686 717 l 293 -289 l 150 -289 l 288 26 l 28 717 l 168 717 l 299 349 q 343 181 325 275 l 365 181 l 371 206 q 411 349 389 289 l 549 717 m 538 988 q 490 929 538 950 l 249 815 l 206 878 l 483 1079 l 528 1017 q 538 988 538 1003 z "},"þ":{"ha":824,"x_min":126,"x_max":754,"o":"m 567 583 q 544 611 567 583 q 432 639 521 639 q 265 586 343 639 l 265 99 q 428 78 329 78 q 569 153 526 78 q 613 378 613 228 q 567 583 613 528 m 265 1028 l 265 660 q 476 733 350 733 q 678 635 601 733 q 754 361 754 538 q 669 84 754 185 q 422 -17 585 -17 q 288 -3 354 -17 l 265 3 l 265 -289 l 126 -289 l 126 1028 l 265 1028 z "},"ÿ":{"ha":710,"x_min":28,"x_max":686,"o":"m 549 717 l 686 717 l 293 -289 l 150 -289 l 288 26 l 28 717 l 168 717 l 299 349 q 343 181 325 275 l 365 181 l 371 206 q 411 349 389 289 l 549 717 m 147 869 q 135 881 147 869 q 122 928 122 893 q 147 987 122 963 q 206 1011 172 1011 q 265 987 240 1011 q 289 928 289 963 q 265 869 289 893 q 206 844 240 844 q 147 869 172 844 m 561 987 q 574 975 561 987 q 586 928 586 963 q 561 869 586 893 q 502 844 536 844 q 444 869 468 844 q 419 928 419 893 q 444 987 419 963 q 502 1011 468 1011 q 561 987 536 1011 z "},"Ā":{"ha":881,"x_min":18,"x_max":863,"o":"m 551 972 l 863 0 l 724 0 l 640 258 l 249 258 l 157 0 l 18 0 l 365 972 l 551 972 m 379 626 l 289 372 l 604 372 l 524 626 q 474 819 492 728 l 467 854 l 444 854 q 379 626 415 728 m 239 1092 l 239 1188 l 675 1188 l 675 1092 l 239 1092 z "},"ā":{"ha":783,"x_min":79,"x_max":714,"o":"m 661 497 l 661 171 q 671 103 661 124 q 714 74 681 83 l 694 -10 q 652 -16 685 -17 q 599 -3 619 -15 q 558 43 578 8 l 538 81 l 515 81 q 311 -17 442 -17 q 142 40 204 -17 q 79 203 79 96 q 149 363 79 310 q 365 426 218 415 l 524 439 l 524 485 q 488 603 524 568 q 367 639 451 639 q 158 608 283 639 l 133 690 q 253 721 181 708 q 378 733 325 733 q 590 677 518 733 q 661 497 661 621 m 524 229 l 524 353 l 390 343 q 221 208 221 331 q 351 78 221 78 q 474 113 425 78 q 524 229 524 149 m 175 885 l 175 981 l 611 981 l 611 885 l 175 885 z "},"Ă":{"ha":881,"x_min":18,"x_max":863,"o":"m 551 972 l 863 0 l 724 0 l 640 258 l 249 258 l 157 0 l 18 0 l 365 972 l 551 972 m 379 626 l 289 372 l 604 372 l 524 626 q 474 819 492 728 l 467 854 l 444 854 q 379 626 415 728 m 713 1232 q 460 1028 713 1028 q 207 1232 207 1028 l 286 1244 q 334 1142 296 1168 q 460 1117 372 1117 q 585 1142 547 1117 q 633 1244 624 1168 l 713 1232 z "},"ă":{"ha":783,"x_min":79,"x_max":714,"o":"m 661 497 l 661 171 q 671 103 661 124 q 714 74 681 83 l 694 -10 q 652 -16 685 -17 q 599 -3 619 -15 q 558 43 578 8 l 538 81 l 515 81 q 311 -17 442 -17 q 142 40 204 -17 q 79 203 79 96 q 149 363 79 310 q 365 426 218 415 l 524 439 l 524 485 q 488 603 524 568 q 367 639 451 639 q 158 608 283 639 l 133 690 q 253 721 181 708 q 378 733 325 733 q 590 677 518 733 q 661 497 661 621 m 524 229 l 524 353 l 390 343 q 221 208 221 331 q 351 78 221 78 q 474 113 425 78 q 524 229 524 149 m 647 1044 q 394 840 647 840 q 142 1044 142 840 l 221 1057 q 269 955 231 981 q 394 929 307 929 q 520 955 482 929 q 568 1057 558 981 l 647 1044 z "},"Ą":{"ha":881,"x_min":18,"x_max":886,"o":"m 713 -164 q 732 -212 713 -194 q 784 -229 751 -229 q 846 -210 817 -229 l 886 -272 q 763 -306 829 -306 q 658 -265 697 -306 q 619 -164 619 -225 q 724 0 619 -79 l 640 258 l 249 258 l 157 0 l 18 0 l 365 972 l 551 972 l 863 0 q 713 -164 713 -78 m 379 626 l 289 372 l 604 372 l 524 626 q 478 819 496 715 l 471 854 l 440 854 q 379 626 415 728 z "},"ą":{"ha":783,"x_min":79,"x_max":731,"o":"m 661 497 l 661 171 q 671 103 661 124 q 714 74 681 83 l 694 -10 q 688 -12 692 -11 q 557 -164 557 -85 q 576 -212 557 -194 q 628 -229 596 -229 q 690 -210 661 -229 l 731 -272 q 608 -306 674 -306 q 503 -265 542 -306 q 464 -164 464 -225 q 582 8 464 -75 q 558 43 572 18 l 538 81 l 515 81 q 311 -17 442 -17 q 142 40 204 -17 q 79 203 79 96 q 149 363 79 310 q 365 426 218 415 l 524 439 l 524 485 q 488 603 524 568 q 367 639 451 639 q 158 608 283 639 l 133 690 q 253 721 181 708 q 378 733 325 733 q 590 677 518 733 q 661 497 661 621 m 524 229 l 524 353 l 390 343 q 221 208 221 331 q 351 78 221 78 q 474 113 425 78 q 524 229 524 149 z "},"Ć":{"ha":792,"x_min":83,"x_max":750,"o":"m 718 843 q 512 881 594 881 q 374 851 429 881 q 288 765 318 821 q 245 642 258 710 q 232 486 232 575 q 245 330 232 397 q 289 207 258 263 q 507 92 350 92 q 722 135 590 92 l 750 33 q 506 -17 633 -17 q 83 486 83 -17 q 507 989 83 989 q 746 940 617 989 l 718 843 m 689 1183 q 631 1126 689 1142 l 374 1056 l 342 1125 l 651 1274 l 683 1204 q 689 1183 689 1193 z "},"ć":{"ha":643,"x_min":69,"x_max":608,"o":"m 586 988 q 539 929 586 950 l 297 815 l 254 878 l 532 1079 l 576 1017 q 586 988 586 1003 m 217 358 q 217 293 217 358 q 265 153 217 228 q 406 79 314 79 q 581 104 499 79 l 608 19 q 414 -17 524 -17 q 69 358 69 -17 q 414 733 69 733 q 608 697 524 733 l 581 615 q 410 639 507 639 q 265 564 314 639 q 217 358 217 489 z "},"Ĉ":{"ha":792,"x_min":83,"x_max":750,"o":"m 718 843 q 512 881 594 881 q 374 851 429 881 q 288 765 318 821 q 245 642 258 710 q 232 486 232 575 q 245 330 232 397 q 289 207 258 263 q 507 92 350 92 q 722 135 590 92 l 750 33 q 506 -17 633 -17 q 83 486 83 -17 q 507 989 83 989 q 746 940 617 989 l 718 843 m 247 1069 l 421 1247 l 550 1247 l 724 1069 l 674 1025 l 485 1161 l 297 1025 l 247 1069 z "},"ĉ":{"ha":643,"x_min":69,"x_max":639,"o":"m 217 358 q 217 293 217 358 q 265 153 217 228 q 406 79 314 79 q 581 104 499 79 l 608 19 q 414 -17 524 -17 q 69 358 69 -17 q 414 733 69 733 q 608 697 524 733 l 581 615 q 410 639 507 639 q 265 564 314 639 q 217 358 217 489 m 163 849 l 336 1054 l 465 1054 l 639 849 l 589 804 l 400 961 l 213 804 l 163 849 z "},"Ċ":{"ha":792,"x_min":83,"x_max":750,"o":"m 718 843 q 512 881 594 881 q 374 851 429 881 q 288 765 318 821 q 245 642 258 710 q 232 486 232 575 q 245 330 232 397 q 289 207 258 263 q 507 92 350 92 q 722 135 590 92 l 750 33 q 506 -17 633 -17 q 83 486 83 -17 q 507 989 83 989 q 746 940 617 989 l 718 843 m 400 1103 q 385 1117 400 1103 q 371 1172 371 1132 q 400 1242 371 1213 q 469 1271 429 1271 q 539 1242 510 1271 q 568 1172 568 1213 q 539 1103 568 1132 q 469 1074 510 1074 q 400 1103 429 1074 z "},"ċ":{"ha":643,"x_min":69,"x_max":608,"o":"m 217 358 q 217 293 217 358 q 265 153 217 228 q 406 79 314 79 q 581 104 499 79 l 608 19 q 414 -17 524 -17 q 69 358 69 -17 q 414 733 69 733 q 608 697 524 733 l 581 615 q 410 639 507 639 q 265 564 314 639 q 217 358 217 489 m 318 865 q 303 880 318 865 q 289 935 289 894 q 318 1004 289 975 q 388 1033 347 1033 q 457 1004 428 1033 q 486 935 486 975 q 457 865 486 894 q 388 836 428 836 q 318 865 347 836 z "},"Č":{"ha":792,"x_min":83,"x_max":750,"o":"m 718 843 q 512 881 594 881 q 374 851 429 881 q 288 765 318 821 q 245 642 258 710 q 232 486 232 575 q 245 330 232 397 q 289 207 258 263 q 507 92 350 92 q 722 135 590 92 l 750 33 q 506 -17 633 -17 q 83 486 83 -17 q 507 989 83 989 q 746 940 617 989 l 718 843 m 414 1060 l 240 1238 l 290 1282 l 478 1146 l 667 1282 l 717 1238 l 543 1060 l 414 1060 z "},"č":{"ha":657,"x_min":69,"x_max":622,"o":"m 217 358 q 217 293 217 358 q 265 153 217 228 q 406 79 314 79 q 581 104 499 79 l 608 19 q 414 -17 524 -17 q 69 358 69 -17 q 414 733 69 733 q 608 697 524 733 l 581 615 q 410 639 507 639 q 265 564 314 639 q 217 358 217 489 m 622 1033 l 449 828 l 319 828 l 146 1033 l 196 1078 l 385 921 l 572 1078 l 622 1033 z "},"Ď":{"ha":953,"x_min":118,"x_max":865,"o":"m 257 111 l 421 111 q 652 210 585 111 q 719 486 719 310 q 418 867 719 867 l 257 867 l 257 111 m 417 0 l 118 0 l 118 972 l 417 972 q 755 846 644 972 q 865 486 865 719 q 417 0 865 0 m 383 1060 l 210 1238 l 260 1282 l 447 1146 l 636 1282 l 686 1238 l 513 1060 l 383 1060 z "},"ď":{"ha":924,"x_min":69,"x_max":965,"o":"m 397 639 q 349 639 397 639 q 258 565 300 639 q 217 358 217 492 q 256 151 217 225 q 395 78 296 78 q 558 133 494 78 l 558 611 q 397 639 494 639 m 365 -17 q 144 81 218 -17 q 69 356 69 178 q 156 633 69 533 q 401 733 242 733 q 536 708 469 733 l 558 700 l 558 1028 l 697 1028 l 697 143 l 731 -11 l 664 -11 q 604 25 625 -11 l 585 61 l 563 61 q 485 0 531 17 q 365 -17 439 -17 m 965 1038 q 964 1022 965 1028 l 944 919 q 867 797 936 881 l 844 769 l 756 813 q 776 860 761 826 q 799 908 792 893 q 821 993 818 954 l 826 1093 l 914 1088 q 965 1038 965 1083 z "},"Đ":{"ha":953,"x_min":19,"x_max":865,"o":"m 19 442 l 19 549 l 118 549 l 118 972 l 417 972 q 755 846 644 972 q 865 486 865 719 q 417 0 865 0 l 118 0 l 118 442 l 19 442 m 257 111 l 421 111 q 652 210 585 111 q 719 486 719 310 q 418 867 719 867 l 257 867 l 257 549 l 478 549 l 478 442 l 257 442 l 257 111 z "},"đ":{"ha":808,"x_min":69,"x_max":782,"o":"m 236 818 l 236 904 l 558 904 l 558 1028 l 697 1028 l 697 904 l 782 904 l 782 818 l 697 818 l 697 143 l 731 -11 l 664 -11 q 604 25 625 -11 l 585 61 l 563 61 q 485 0 531 17 q 365 -17 439 -17 q 144 81 218 -17 q 69 356 69 178 q 156 633 69 533 q 401 733 242 733 q 536 708 469 733 l 558 700 l 558 818 l 236 818 m 397 639 q 349 639 397 639 q 258 565 300 639 q 217 358 217 492 q 256 151 217 225 q 395 78 296 78 q 558 133 494 78 l 558 611 q 397 639 494 639 z "},"Ē":{"ha":794,"x_min":132,"x_max":711,"o":"m 711 0 l 132 0 l 132 972 l 711 972 l 711 857 l 271 857 l 271 578 l 669 578 l 669 461 l 271 461 l 271 115 l 711 115 l 711 0 m 201 1092 l 201 1188 l 638 1188 l 638 1092 l 201 1092 z "},"ē":{"ha":747,"x_min":69,"x_max":685,"o":"m 385 733 q 685 379 685 733 l 685 328 l 217 328 q 413 82 217 82 q 631 121 515 82 l 658 38 q 403 -17 538 -14 q 399 -17 400 -17 q 153 84 238 -17 q 69 356 69 185 q 150 630 69 526 q 385 733 231 733 m 384 639 q 338 639 384 639 q 256 581 292 639 q 217 414 221 522 l 546 414 q 511 580 546 521 q 384 639 476 639 m 181 885 l 181 981 l 617 981 l 617 885 l 181 885 z "},"Ĕ":{"ha":794,"x_min":132,"x_max":711,"o":"m 711 0 l 132 0 l 132 972 l 711 972 l 711 857 l 271 857 l 271 578 l 669 578 l 669 461 l 271 461 l 271 115 l 711 115 l 711 0 m 669 1251 q 417 1047 669 1047 q 164 1251 164 1047 l 243 1264 q 291 1162 253 1188 q 417 1136 329 1136 q 542 1162 504 1136 q 590 1264 581 1188 l 669 1251 z "},"ĕ":{"ha":747,"x_min":69,"x_max":685,"o":"m 385 733 q 685 379 685 733 l 685 328 l 217 328 q 413 82 217 82 q 631 121 515 82 l 658 38 q 403 -17 538 -14 q 399 -17 400 -17 q 153 84 238 -17 q 69 356 69 185 q 150 630 69 526 q 385 733 231 733 m 384 639 q 338 639 384 639 q 256 581 292 639 q 217 414 221 522 l 546 414 q 511 580 546 521 q 384 639 476 639 m 633 1044 q 381 840 633 840 q 128 1044 128 840 l 207 1057 q 255 955 217 981 q 381 929 293 929 q 506 955 468 929 q 554 1057 544 981 l 633 1044 z "},"Ė":{"ha":794,"x_min":132,"x_max":711,"o":"m 711 0 l 132 0 l 132 972 l 711 972 l 711 857 l 271 857 l 271 578 l 669 578 l 669 461 l 271 461 l 271 115 l 711 115 l 711 0 m 354 1103 q 340 1117 354 1103 q 325 1172 325 1132 q 354 1242 325 1213 q 424 1271 383 1271 q 493 1242 464 1271 q 522 1172 522 1213 q 493 1103 522 1132 q 424 1074 464 1074 q 354 1103 383 1074 z "},"ė":{"ha":747,"x_min":69,"x_max":685,"o":"m 385 733 q 685 379 685 733 l 685 328 l 217 328 q 413 82 217 82 q 631 121 515 82 l 658 38 q 403 -17 538 -14 q 399 -17 400 -17 q 153 84 238 -17 q 69 356 69 185 q 150 630 69 526 q 385 733 231 733 m 384 639 q 338 639 384 639 q 256 581 292 639 q 217 414 221 522 l 546 414 q 511 580 546 521 q 384 639 476 639 m 315 865 q 301 880 315 865 q 286 935 286 894 q 315 1004 286 975 q 385 1033 344 1033 q 454 1004 425 1033 q 483 935 483 975 q 454 865 483 894 q 385 836 425 836 q 315 865 344 836 z "},"Ę":{"ha":794,"x_min":132,"x_max":733,"o":"m 711 115 l 711 0 q 602 -78 644 -35 q 560 -158 560 -121 q 579 -212 560 -194 q 631 -229 599 -229 q 693 -210 664 -229 l 733 -272 q 610 -306 676 -306 q 506 -265 544 -306 q 467 -164 467 -225 q 571 0 467 -79 l 132 0 l 132 972 l 711 972 l 711 857 l 271 857 l 271 578 l 669 578 l 669 461 l 271 461 l 271 115 l 711 115 z "},"ę":{"ha":740,"x_min":69,"x_max":685,"o":"m 385 733 q 685 379 685 733 l 685 328 l 217 328 q 413 82 217 82 q 631 121 515 82 l 658 38 q 476 -162 476 -79 q 495 -208 476 -189 q 549 -226 514 -226 q 617 -196 583 -226 l 665 -253 q 532 -306 601 -306 q 424 -266 463 -306 q 385 -172 385 -226 q 417 -79 385 -117 q 507 -1 449 -42 l 500 21 q 389 -17 450 -17 q 152 85 235 -17 q 69 357 69 188 q 150 630 69 526 q 385 733 231 733 m 546 414 q 511 580 546 521 q 384 639 476 639 q 256 581 292 639 q 217 414 221 522 l 546 414 z "},"Ě":{"ha":794,"x_min":132,"x_max":711,"o":"m 711 0 l 132 0 l 132 972 l 711 972 l 711 857 l 271 857 l 271 578 l 669 578 l 669 461 l 271 461 l 271 115 l 711 115 l 711 0 m 346 1060 l 172 1238 l 222 1282 l 410 1146 l 599 1282 l 649 1238 l 475 1060 l 346 1060 z "},"ě":{"ha":747,"x_min":69,"x_max":685,"o":"m 658 38 q 399 -17 531 -17 q 153 84 238 -17 q 69 356 69 185 q 150 630 69 526 q 385 733 231 733 q 685 379 685 733 l 685 328 l 217 328 q 413 82 217 82 q 631 121 515 82 l 658 38 m 546 414 q 511 580 546 521 q 384 639 476 639 q 256 581 292 639 q 217 414 221 522 l 546 414 m 628 1033 l 454 828 l 325 828 l 151 1033 l 201 1078 l 390 921 l 578 1078 l 628 1033 z "},"Ĝ":{"ha":892,"x_min":83,"x_max":808,"o":"m 489 -17 q 183 115 282 -17 q 83 486 83 247 q 515 989 83 989 q 769 943 643 989 l 742 846 q 517 881 599 881 q 378 851 435 881 q 290 765 321 821 q 232 481 232 660 q 292 197 232 301 q 497 92 351 92 q 674 167 611 92 l 674 379 l 482 379 l 482 488 l 808 488 l 808 -11 l 782 -11 q 722 25 743 -11 l 703 61 l 681 61 q 594 3 650 24 q 489 -17 538 -17 m 246 1069 l 419 1247 l 549 1247 l 722 1069 l 672 1025 l 483 1161 l 296 1025 l 246 1069 z "},"ĝ":{"ha":806,"x_min":69,"x_max":697,"o":"m 558 101 q 357 -17 492 -17 q 146 83 222 -17 q 69 358 69 182 q 154 634 69 535 q 401 733 239 733 q 697 692 504 733 l 697 -32 q 608 -232 697 -158 q 374 -306 519 -306 q 99 -243 229 -306 l 131 -154 q 163 -167 138 -157 q 199 -181 189 -176 q 232 -192 208 -185 q 271 -203 256 -199 q 351 -211 311 -211 q 503 -160 450 -211 q 561 -24 557 -108 q 576 72 564 25 l 581 89 l 558 101 m 399 78 q 510 114 461 78 q 558 231 558 150 l 558 622 q 403 639 475 639 q 259 565 301 639 q 217 357 217 492 q 244 161 217 229 q 399 78 279 78 m 186 849 l 360 1054 l 489 1054 l 663 849 l 613 804 l 424 961 l 236 804 l 186 849 z "},"Ğ":{"ha":892,"x_min":83,"x_max":808,"o":"m 489 -17 q 183 115 282 -17 q 83 486 83 247 q 515 989 83 989 q 769 943 643 989 l 742 846 q 517 881 599 881 q 378 851 435 881 q 290 765 321 821 q 232 481 232 660 q 292 197 232 301 q 497 92 351 92 q 674 167 611 92 l 674 379 l 482 379 l 482 488 l 808 488 l 808 -11 l 782 -11 q 722 25 743 -11 l 703 61 l 681 61 q 594 3 650 24 q 489 -17 538 -17 m 738 1251 q 485 1047 738 1047 q 232 1251 232 1047 l 311 1264 q 359 1162 321 1188 q 485 1136 397 1136 q 610 1162 572 1136 q 658 1264 649 1188 l 738 1251 z "},"ğ":{"ha":806,"x_min":69,"x_max":697,"o":"m 558 101 q 357 -17 492 -17 q 146 83 222 -17 q 69 358 69 182 q 154 634 69 535 q 401 733 239 733 q 697 692 504 733 l 697 -32 q 608 -232 697 -158 q 374 -306 519 -306 q 99 -243 229 -306 l 131 -154 q 163 -167 138 -157 q 199 -181 189 -176 q 232 -192 208 -185 q 271 -203 256 -199 q 351 -211 311 -211 q 503 -160 450 -211 q 561 -24 557 -108 q 576 72 564 25 l 581 89 l 558 101 m 399 78 q 510 114 461 78 q 558 231 558 150 l 558 622 q 403 639 475 639 q 259 565 301 639 q 217 357 217 492 q 244 161 217 229 q 399 78 279 78 m 656 1044 q 403 840 656 840 q 150 1044 150 840 l 229 1057 q 277 955 239 981 q 403 929 315 929 q 528 955 490 929 q 576 1057 567 981 l 656 1044 z "},"Ġ":{"ha":892,"x_min":83,"x_max":808,"o":"m 489 -17 q 183 115 282 -17 q 83 486 83 247 q 515 989 83 989 q 769 943 643 989 l 742 846 q 517 881 599 881 q 378 851 435 881 q 290 765 321 821 q 232 481 232 660 q 292 197 232 301 q 497 92 351 92 q 674 167 611 92 l 674 379 l 482 379 l 482 488 l 808 488 l 808 -11 l 782 -11 q 722 25 743 -11 l 703 61 l 681 61 q 594 3 650 24 q 489 -17 538 -17 m 411 1103 q 397 1117 411 1103 q 382 1172 382 1132 q 411 1242 382 1213 q 481 1271 440 1271 q 550 1242 521 1271 q 579 1172 579 1213 q 550 1103 579 1132 q 481 1074 521 1074 q 411 1103 440 1074 z "},"ġ":{"ha":806,"x_min":69,"x_max":697,"o":"m 558 101 q 357 -17 492 -17 q 146 83 222 -17 q 69 358 69 182 q 154 634 69 535 q 401 733 239 733 q 697 692 504 733 l 697 -32 q 608 -232 697 -158 q 374 -306 519 -306 q 99 -243 229 -306 l 131 -154 q 163 -167 138 -157 q 199 -181 189 -176 q 232 -192 208 -185 q 271 -203 256 -199 q 351 -211 311 -211 q 503 -160 450 -211 q 561 -24 557 -108 q 576 72 564 25 l 581 89 l 558 101 m 399 78 q 510 114 461 78 q 558 231 558 150 l 558 622 q 403 639 475 639 q 259 565 301 639 q 217 357 217 492 q 244 161 217 229 q 399 78 279 78 m 331 865 q 316 880 331 865 q 301 935 301 894 q 331 1004 301 975 q 400 1033 360 1033 q 469 1004 440 1033 q 499 935 499 975 q 469 865 499 894 q 400 836 440 836 q 331 865 360 836 z "},"Ģ":{"ha":892,"x_min":83,"x_max":808,"o":"m 489 -17 q 183 115 282 -17 q 83 486 83 247 q 515 989 83 989 q 769 943 643 989 l 742 846 q 517 881 599 881 q 378 851 435 881 q 290 765 321 821 q 232 481 232 660 q 292 197 232 301 q 497 92 351 92 q 674 167 611 92 l 674 379 l 482 379 l 482 488 l 808 488 l 808 -11 l 782 -11 q 722 25 743 -11 l 703 61 l 681 61 q 594 3 650 24 q 489 -17 538 -17 m 536 -85 q 581 -102 565 -86 q 596 -136 596 -118 q 593 -164 596 -154 l 564 -285 q 478 -432 553 -329 l 454 -465 l 364 -424 q 435 -256 425 -289 q 446 -200 444 -224 l 451 -81 l 536 -85 z "},"ģ":{"ha":806,"x_min":69,"x_max":697,"o":"m 397 822 q 353 840 368 824 q 338 874 338 856 q 340 901 338 892 l 369 1022 q 456 1169 381 1067 l 479 1203 l 569 1161 q 499 994 508 1026 q 488 938 489 961 l 482 818 l 397 822 m 558 101 q 357 -17 492 -17 q 146 83 222 -17 q 69 358 69 182 q 154 634 69 535 q 401 733 239 733 q 697 692 504 733 l 697 -32 q 608 -232 697 -158 q 374 -306 519 -306 q 99 -243 229 -306 l 131 -154 q 163 -167 138 -157 q 199 -181 189 -176 q 232 -192 208 -185 q 271 -203 256 -199 q 351 -211 311 -211 q 503 -160 450 -211 q 561 -24 557 -108 q 576 72 564 25 l 581 89 l 558 101 m 399 78 q 510 114 461 78 q 558 231 558 150 l 558 622 q 403 639 475 639 q 259 565 301 639 q 217 357 217 492 q 244 161 217 229 q 399 78 279 78 z "},"Ĥ":{"ha":1014,"x_min":132,"x_max":881,"o":"m 271 0 l 132 0 l 132 972 l 271 972 l 271 550 l 742 550 l 742 972 l 881 972 l 881 0 l 742 0 l 742 433 l 271 433 l 271 0 m 260 1069 l 433 1247 l 563 1247 l 736 1069 l 686 1025 l 497 1161 l 310 1025 l 260 1069 z "},"ĥ":{"ha":832,"x_min":108,"x_max":718,"o":"m 439 733 q 651 664 585 733 q 718 443 718 594 l 718 0 l 579 0 l 579 442 q 547 588 579 536 q 431 639 514 639 q 297 603 347 639 q 247 486 247 567 l 247 0 l 108 0 l 108 1028 l 247 1028 l 247 764 q 231 647 247 701 l 225 629 l 247 617 q 332 704 279 675 q 439 733 385 733 m 168 1126 l 342 1332 l 471 1332 l 644 1126 l 594 1082 l 406 1239 l 218 1082 l 168 1126 z "},"Ħ":{"ha":1014,"x_min":31,"x_max":981,"o":"m 31 722 l 31 810 l 132 810 l 132 972 l 271 972 l 271 810 l 742 810 l 742 972 l 881 972 l 881 810 l 981 810 l 981 722 l 881 722 l 881 0 l 742 0 l 742 433 l 271 433 l 271 0 l 132 0 l 132 722 l 31 722 m 271 550 l 742 550 l 742 722 l 271 722 l 271 550 z "},"ħ":{"ha":832,"x_min":17,"x_max":718,"o":"m 579 842 l 247 842 l 247 764 q 231 647 247 701 l 225 629 l 247 617 q 332 704 279 675 q 439 733 385 733 q 651 664 585 733 q 718 443 718 594 l 718 0 l 579 0 l 579 442 q 547 588 579 536 q 431 639 514 639 q 297 603 347 639 q 247 486 247 567 l 247 0 l 108 0 l 108 842 l 17 842 l 17 931 l 108 931 l 108 1028 l 247 1028 l 247 931 l 579 931 l 579 842 z "},"Ĩ":{"ha":386,"x_min":-67,"x_max":438,"o":"m 263 0 l 124 0 l 124 972 l 263 972 l 263 0 m 278 1074 q 175 1102 232 1074 q 91 1131 118 1131 q 48 1119 64 1131 q 10 1076 32 1107 l -67 1126 q 92 1235 -11 1235 q 195 1206 136 1235 q 276 1178 254 1178 q 360 1229 338 1178 l 438 1181 q 278 1074 385 1074 z "},"ĩ":{"ha":410,"x_min":-49,"x_max":456,"o":"m 274 0 l 135 0 l 135 717 l 274 717 l 274 0 m 296 853 q 193 881 250 853 q 109 910 136 910 q 66 898 82 910 q 28 856 50 886 l -49 906 q 110 1014 7 1014 q 213 985 154 1014 q 294 957 272 957 q 378 1008 356 957 l 456 960 q 296 853 403 853 z "},"ī":{"ha":369,"x_min":-33,"x_max":403,"o":"m 254 0 l 115 0 l 115 717 l 254 717 l 254 0 m -33 885 l -33 981 l 403 981 l 403 885 l -33 885 z "},"Ĭ":{"ha":386,"x_min":-60,"x_max":446,"o":"m 263 0 l 124 0 l 124 972 l 263 972 l 263 0 m 446 1251 q 193 1047 446 1047 q -60 1251 -60 1047 l 19 1264 q 67 1162 29 1188 q 193 1136 106 1136 q 319 1162 281 1136 q 367 1264 357 1188 l 446 1251 z "},"Į":{"ha":386,"x_min":18,"x_max":285,"o":"m 263 0 q 153 -78 196 -35 q 111 -158 111 -121 q 131 -212 111 -194 q 183 -229 150 -229 q 244 -210 215 -229 l 285 -272 q 162 -306 228 -306 q 57 -265 96 -306 q 18 -164 18 -225 q 124 0 18 -79 l 124 972 l 263 972 l 263 0 z "},"į":{"ha":367,"x_min":8,"x_max":275,"o":"m 101 -164 q 121 -212 101 -194 q 173 -229 140 -229 q 235 -210 206 -229 l 275 -272 q 152 -306 218 -306 q 47 -265 86 -306 q 8 -164 8 -225 q 114 0 8 -79 l 114 717 l 253 717 l 253 0 q 101 -164 101 -78 m 121 890 q 108 903 121 890 q 94 953 94 917 q 121 1015 94 989 q 183 1042 147 1042 q 246 1015 219 1042 q 272 953 272 989 q 246 890 272 917 q 183 864 219 864 q 121 890 147 864 z "},"İ":{"ha":386,"x_min":96,"x_max":293,"o":"m 263 0 l 124 0 l 124 972 l 263 972 l 263 0 m 125 1103 q 110 1117 125 1103 q 96 1172 96 1132 q 125 1242 96 1213 q 194 1271 154 1271 q 264 1242 235 1271 q 293 1172 293 1213 q 264 1103 293 1132 q 194 1074 235 1074 q 125 1103 154 1074 z "},"ı":{"ha":369,"x_min":115,"x_max":254,"o":"m 254 0 l 115 0 l 115 717 l 254 717 l 254 0 z "},"Ĳ":{"ha":754,"x_min":124,"x_max":632,"o":"m 263 0 l 124 0 l 124 972 l 263 972 l 263 0 m 340 -192 l 340 -90 q 458 -51 422 -90 q 493 88 493 -12 l 493 971 l 632 971 l 632 106 q 565 -124 632 -56 q 368 -192 499 -192 l 340 -192 z "},"ĳ":{"ha":740,"x_min":97,"x_max":643,"o":"m 253 0 l 114 0 l 114 717 l 253 717 l 253 0 m 122 899 q 110 911 122 899 q 97 960 97 924 q 122 1021 97 996 q 183 1046 147 1046 q 244 1021 219 1046 q 269 960 269 996 q 244 899 269 924 q 183 874 219 874 q 122 899 147 874 m 364 -306 l 335 -306 l 335 -204 q 451 -162 414 -204 q 488 -19 488 -119 l 488 717 l 626 717 l 626 -7 q 559 -237 626 -169 q 364 -306 492 -306 m 496 899 q 483 911 496 899 q 471 960 471 924 q 496 1021 471 996 q 557 1046 521 1046 q 618 1021 593 1046 q 643 960 643 996 q 618 899 643 924 q 557 874 593 874 q 496 899 521 874 z "},"Ĵ":{"ha":400,"x_min":-37,"x_max":439,"o":"m -14 -192 l -14 -90 q 103 -51 68 -90 q 139 88 139 -12 l 139 971 l 278 971 l 278 106 q 211 -124 278 -56 q 14 -192 144 -192 l -14 -192 m -37 1099 l 136 1304 l 265 1304 l 439 1099 l 389 1054 l 200 1211 l 13 1054 l -37 1099 z "},"ĵ":{"ha":351,"x_min":-62,"x_max":414,"o":"m -3 -306 l -32 -306 l -32 -204 q 84 -162 47 -204 q 121 -19 121 -119 l 121 717 l 260 717 l 260 -7 q 192 -237 260 -169 q -3 -306 125 -306 m -62 849 l 111 1054 l 240 1054 l 414 849 l 364 804 l 175 961 l -12 804 l -62 849 z "},"Ķ":{"ha":819,"x_min":132,"x_max":804,"o":"m 782 972 l 444 518 l 804 -1 l 656 -21 l 303 508 l 626 972 l 782 972 m 271 0 l 132 0 l 132 972 l 271 972 l 271 0 m 456 -85 q 500 -102 485 -86 q 515 -136 515 -118 q 513 -164 515 -154 l 483 -285 q 397 -432 472 -329 l 374 -465 l 283 -424 q 354 -256 344 -289 q 365 -200 364 -224 l 371 -81 l 456 -85 z "},"ķ":{"ha":786,"x_min":108,"x_max":772,"o":"m 247 1028 l 247 0 l 108 0 l 108 1028 l 247 1028 m 728 717 l 432 428 l 772 -1 l 611 -21 l 278 428 l 536 717 l 728 717 m 414 -85 q 458 -102 443 -86 q 474 -136 474 -118 q 471 -164 474 -154 l 442 -285 q 356 -432 431 -329 l 332 -465 l 242 -424 q 313 -256 303 -289 q 324 -200 322 -224 l 329 -81 l 414 -85 z "},"ĸ":{"ha":804,"x_min":132,"x_max":789,"o":"m 271 717 l 271 0 l 132 0 l 132 717 l 271 717 m 731 717 l 449 354 l 789 -1 l 635 -21 l 301 354 l 574 717 l 731 717 z "},"Ĺ":{"ha":704,"x_min":121,"x_max":676,"o":"m 121 0 l 121 972 l 260 972 l 260 119 l 676 119 l 676 0 l 121 0 m 603 1183 q 544 1126 603 1142 l 288 1056 l 256 1125 l 565 1274 l 597 1204 q 603 1183 603 1193 z "},"ĺ":{"ha":369,"x_min":19,"x_max":367,"o":"m 115 0 l 115 1028 l 254 1028 l 254 0 l 115 0 m 367 1211 q 308 1154 367 1169 l 51 1083 l 19 1153 l 329 1301 l 361 1232 q 367 1211 367 1221 z "},"Ļ":{"ha":704,"x_min":121,"x_max":676,"o":"m 121 0 l 121 972 l 260 972 l 260 119 l 676 119 l 676 0 l 121 0 m 428 -85 q 472 -102 457 -86 q 488 -136 488 -118 q 485 -164 488 -154 l 456 -285 q 369 -432 444 -329 l 346 -465 l 256 -424 q 326 -256 317 -289 q 338 -200 336 -224 l 343 -81 l 428 -85 z "},"ļ":{"ha":369,"x_min":28,"x_max":260,"o":"m 254 0 l 115 0 l 115 1028 l 254 1028 l 254 0 m 200 -85 q 244 -102 229 -86 q 260 -136 260 -118 q 257 -164 260 -154 l 228 -285 q 142 -432 217 -329 l 118 -465 l 28 -424 q 99 -256 89 -289 q 110 -200 108 -224 l 115 -81 l 200 -85 z "},"Ľ":{"ha":704,"x_min":121,"x_max":676,"o":"m 121 0 l 121 972 l 260 972 l 260 119 l 676 119 l 676 0 l 121 0 m 643 1038 q 642 1022 643 1028 l 622 919 q 544 797 614 881 l 522 769 l 433 813 q 454 860 439 826 q 476 908 469 893 q 499 993 496 954 l 504 1093 l 592 1088 q 643 1038 643 1083 z "},"ľ":{"ha":478,"x_min":115,"x_max":519,"o":"m 115 0 l 115 1028 l 254 1028 l 254 0 l 115 0 m 519 1038 q 518 1022 519 1028 l 499 919 q 422 797 490 881 l 399 769 l 310 813 q 331 860 315 826 q 353 908 346 893 q 375 993 372 954 l 381 1093 l 468 1088 q 519 1038 519 1083 z "},"Ŀ":{"ha":704,"x_min":121,"x_max":676,"o":"m 121 0 l 121 972 l 260 972 l 260 119 l 676 119 l 676 0 l 121 0 m 458 443 q 444 458 458 443 q 429 513 429 472 q 458 582 429 553 q 528 611 488 611 q 597 582 568 611 q 626 513 626 553 q 597 443 626 472 q 528 414 568 414 q 458 443 488 414 z "},"ŀ":{"ha":544,"x_min":124,"x_max":538,"o":"m 263 0 l 124 0 l 124 1028 l 263 1028 l 263 0 m 369 450 q 355 465 369 450 q 340 519 340 479 q 369 589 340 560 q 439 618 399 618 q 508 589 479 618 q 538 519 538 560 q 508 450 538 479 q 439 421 479 421 q 369 450 399 421 z "},"Ł":{"ha":704,"x_min":17,"x_max":676,"o":"m 121 972 l 260 972 l 260 540 l 467 604 l 467 508 l 260 444 l 260 119 l 676 119 l 676 0 l 121 0 l 121 401 l 17 369 l 17 465 l 121 497 l 121 972 z "},"ł":{"ha":369,"x_min":22,"x_max":371,"o":"m 254 0 l 115 0 l 115 469 l 22 440 l 22 536 l 115 565 l 115 1028 l 254 1028 l 254 608 l 371 644 l 371 549 l 254 513 l 254 0 z "},"Ń":{"ha":1006,"x_min":125,"x_max":881,"o":"m 264 624 l 264 0 l 125 0 l 125 972 l 250 972 l 669 350 q 731 206 706 299 l 739 176 l 761 181 q 742 344 742 300 l 742 972 l 881 972 l 881 0 l 756 0 l 333 624 q 275 764 297 676 l 267 793 l 244 789 q 264 624 264 668 m 667 1183 q 608 1126 667 1142 l 351 1056 l 319 1125 l 629 1274 l 661 1204 q 667 1183 667 1193 z "},"ń":{"ha":849,"x_min":93,"x_max":733,"o":"m 161 728 q 219 692 199 728 l 239 656 l 261 656 q 344 717 304 701 q 454 733 385 733 q 667 664 600 733 q 733 443 733 594 l 733 0 l 594 0 l 594 442 q 563 588 594 536 q 433 639 531 639 q 264 586 335 639 l 264 0 l 125 0 l 125 576 l 93 728 l 161 728 m 604 988 q 557 929 604 950 l 315 815 l 272 878 l 550 1079 l 594 1017 q 604 988 604 1003 z "},"Ņ":{"ha":1006,"x_min":125,"x_max":881,"o":"m 264 624 l 264 0 l 125 0 l 125 972 l 250 972 l 669 350 q 731 206 706 299 l 739 176 l 761 181 q 742 344 742 300 l 742 972 l 881 972 l 881 0 l 756 0 l 333 624 q 275 764 297 676 l 267 793 l 244 789 q 264 624 264 668 m 525 -85 q 569 -102 554 -86 q 585 -136 585 -118 q 582 -164 585 -154 l 553 -285 q 467 -432 542 -329 l 443 -465 l 353 -424 q 424 -256 414 -289 q 435 -200 433 -224 l 440 -81 l 525 -85 z "},"ņ":{"ha":849,"x_min":93,"x_max":733,"o":"m 161 728 q 219 692 199 728 l 239 656 l 261 656 q 344 717 304 701 q 454 733 385 733 q 667 664 600 733 q 733 443 733 594 l 733 0 l 594 0 l 594 442 q 563 588 594 536 q 433 639 531 639 q 264 586 335 639 l 264 0 l 125 0 l 125 576 l 93 728 l 161 728 m 456 -85 q 500 -102 485 -86 q 515 -136 515 -118 q 513 -164 515 -154 l 483 -285 q 397 -432 472 -329 l 374 -465 l 283 -424 q 354 -256 344 -289 q 365 -200 364 -224 l 371 -81 l 456 -85 z "},"Ň":{"ha":1006,"x_min":125,"x_max":881,"o":"m 264 624 l 264 0 l 125 0 l 125 972 l 250 972 l 669 350 q 731 206 706 299 l 739 176 l 761 181 q 742 344 742 300 l 742 972 l 881 972 l 881 0 l 756 0 l 333 624 q 275 764 297 676 l 267 793 l 244 789 q 264 624 264 668 m 433 1060 l 260 1238 l 310 1282 l 497 1146 l 686 1282 l 736 1238 l 563 1060 l 433 1060 z "},"ň":{"ha":849,"x_min":93,"x_max":733,"o":"m 161 728 q 219 692 199 728 l 239 656 l 261 656 q 344 717 304 701 q 454 733 385 733 q 667 664 600 733 q 733 443 733 594 l 733 0 l 594 0 l 594 442 q 563 588 594 536 q 433 639 531 639 q 264 586 335 639 l 264 0 l 125 0 l 125 576 l 93 728 l 161 728 m 663 1033 l 489 828 l 360 828 l 186 1033 l 236 1078 l 425 921 l 613 1078 l 663 1033 z "},"ŉ":{"ha":872,"x_min":-42,"x_max":757,"o":"m 185 729 q 243 693 222 729 l 263 657 l 285 657 q 368 719 328 703 q 478 735 408 735 q 690 665 624 735 q 757 444 757 596 l 757 1 l 618 1 l 618 443 q 586 589 618 538 q 456 640 554 640 q 288 588 358 640 l 288 1 l 149 1 l 149 578 l 117 729 l 185 729 m 168 1038 q 167 1022 168 1028 l 147 919 q 69 797 139 881 l 47 769 l -42 813 q -21 860 -36 826 q 1 908 -6 893 q 24 993 21 954 l 29 1093 l 117 1088 q 168 1038 168 1083 z "},"Ŋ":{"ha":1006,"x_min":125,"x_max":881,"o":"m 264 624 l 264 0 l 125 0 l 125 972 l 250 972 l 669 350 q 731 206 706 299 l 739 176 l 761 181 q 742 344 742 300 l 742 972 l 881 972 l 881 -107 q 831 -251 881 -197 q 681 -306 782 -306 q 571 -283 624 -306 l 597 -199 q 672 -211 632 -211 q 727 -183 713 -211 q 742 -106 742 -156 l 742 21 l 333 624 q 275 764 297 676 l 267 793 l 244 789 q 264 624 264 668 z "},"ŋ":{"ha":849,"x_min":93,"x_max":733,"o":"m 733 443 l 733 -107 q 684 -251 733 -197 q 533 -306 635 -306 q 424 -283 476 -306 l 450 -199 q 525 -211 485 -211 q 580 -183 565 -211 q 594 -106 594 -156 l 594 442 q 563 588 594 536 q 433 639 531 639 q 264 586 335 639 l 264 0 l 125 0 l 125 576 l 93 728 l 161 728 q 219 692 199 728 l 239 656 l 261 656 q 344 717 304 701 q 454 733 385 733 q 667 664 600 733 q 733 443 733 594 z "},"Ō":{"ha":1021,"x_min":83,"x_max":938,"o":"m 938 486 q 510 -17 938 -17 q 83 486 83 -17 q 510 989 83 989 q 833 858 728 989 q 938 486 938 728 m 511 92 q 792 486 792 92 q 511 881 792 881 q 289 765 353 881 q 232 486 232 661 q 375 122 232 197 q 511 92 432 92 m 292 1092 l 292 1188 l 728 1188 l 728 1092 l 292 1092 z "},"ō":{"ha":810,"x_min":69,"x_max":740,"o":"m 657 635 q 699 586 657 635 q 740 358 740 538 q 657 81 740 179 q 405 -17 574 -17 q 153 81 236 -17 q 69 358 69 179 q 153 635 69 538 q 405 733 236 733 q 657 635 574 733 m 405 639 q 311 639 405 639 q 217 358 217 639 q 405 78 217 78 q 593 358 593 78 q 405 639 593 639 m 192 885 l 192 981 l 628 981 l 628 885 l 192 885 z "},"Ŏ":{"ha":1021,"x_min":83,"x_max":938,"o":"m 938 486 q 510 -17 938 -17 q 83 486 83 -17 q 510 989 83 989 q 833 858 728 989 q 938 486 938 728 m 511 92 q 792 486 792 92 q 511 881 792 881 q 289 765 353 881 q 232 486 232 661 q 375 122 232 197 q 511 92 432 92 m 765 1251 q 513 1047 765 1047 q 260 1251 260 1047 l 339 1264 q 387 1162 349 1188 q 513 1136 425 1136 q 638 1162 600 1136 q 686 1264 676 1188 l 765 1251 z "},"ŏ":{"ha":810,"x_min":69,"x_max":740,"o":"m 657 635 q 699 586 657 635 q 740 358 740 538 q 657 81 740 179 q 405 -17 574 -17 q 153 81 236 -17 q 69 358 69 179 q 153 635 69 538 q 405 733 236 733 q 657 635 574 733 m 405 639 q 311 639 405 639 q 217 358 217 639 q 405 78 217 78 q 593 358 593 78 q 405 639 593 639 m 661 1044 q 408 840 661 840 q 156 1044 156 840 l 235 1057 q 283 955 244 981 q 408 929 321 929 q 534 955 496 929 q 582 1057 572 981 l 661 1044 z "},"Ő":{"ha":1021,"x_min":83,"x_max":938,"o":"m 938 486 q 510 -17 938 -17 q 83 486 83 -17 q 510 989 83 989 q 833 858 728 989 q 938 486 938 728 m 511 92 q 792 486 792 92 q 511 881 792 881 q 289 765 353 881 q 232 486 232 661 q 375 122 232 197 q 511 92 432 92 m 561 1306 q 579 1263 579 1290 q 549 1210 579 1236 l 346 1036 l 288 1085 l 501 1353 l 561 1306 m 808 1306 q 826 1263 826 1290 q 796 1210 826 1236 l 593 1036 l 535 1085 l 749 1353 l 808 1306 z "},"ő":{"ha":810,"x_min":69,"x_max":740,"o":"m 657 635 q 699 586 657 635 q 740 358 740 538 q 657 81 740 179 q 405 -17 574 -17 q 153 81 236 -17 q 69 358 69 179 q 153 635 69 538 q 405 733 236 733 q 657 635 574 733 m 405 639 q 311 639 405 639 q 217 358 217 639 q 405 78 217 78 q 593 358 593 78 q 405 639 593 639 m 460 1085 q 478 1042 478 1069 q 447 989 478 1015 l 244 815 l 186 864 l 400 1132 l 460 1085 m 707 1085 q 725 1042 725 1069 q 694 989 725 1015 l 492 815 l 433 864 l 647 1132 l 707 1085 z "},"Œ":{"ha":1313,"x_min":83,"x_max":1229,"o":"m 1229 0 l 650 0 q 510 -17 588 -17 q 83 486 83 -17 q 510 989 83 989 q 651 972 586 989 l 1229 972 l 1229 857 l 789 857 l 789 578 l 1188 578 l 1188 461 l 789 461 l 789 115 l 1229 115 l 1229 0 m 289 207 q 304 179 289 207 q 376 122 319 151 q 513 92 432 92 q 650 124 593 92 l 650 849 q 513 881 593 881 q 376 851 432 881 q 289 765 319 821 q 245 642 258 710 q 232 486 232 574 q 245 331 232 399 q 289 207 258 263 z "},"œ":{"ha":1271,"x_min":69,"x_max":1208,"o":"m 908 733 q 1208 379 1208 733 l 1208 328 l 740 328 q 936 82 740 82 q 1154 121 1039 82 l 1182 38 q 945 -17 1056 -17 q 777 17 835 -17 q 679 111 719 50 l 657 111 q 406 -17 575 -17 q 153 81 236 -17 q 69 358 69 179 q 153 635 69 538 q 410 733 236 733 q 657 607 585 733 l 679 607 q 908 733 751 733 m 406 639 q 217 358 217 639 q 405 78 217 78 q 593 358 593 78 l 593 375 q 406 639 586 639 m 1069 414 q 1035 580 1069 521 q 908 639 1000 639 q 780 581 815 639 q 740 414 744 522 l 1069 414 z "},"Ŕ":{"ha":847,"x_min":122,"x_max":826,"o":"m 261 0 l 122 0 l 122 972 l 426 972 q 664 899 582 972 q 746 682 746 826 q 571 414 746 479 l 826 0 l 672 0 l 444 386 q 371 383 397 383 l 261 383 l 261 0 m 261 489 l 394 489 q 613 682 613 489 q 415 869 613 869 l 261 869 l 261 489 m 607 1183 q 549 1126 607 1142 l 292 1056 l 260 1125 l 569 1274 l 601 1204 q 607 1183 607 1193 z "},"ŕ":{"ha":501,"x_min":93,"x_max":485,"o":"m 158 728 q 217 692 196 728 l 236 656 l 258 656 q 328 717 290 701 q 417 733 367 733 q 474 731 468 733 l 474 617 l 417 617 q 264 571 308 617 l 264 0 l 125 0 l 125 576 l 93 728 l 158 728 m 485 988 q 438 929 485 950 l 196 815 l 153 878 l 431 1079 l 475 1017 q 485 988 485 1003 z "},"Ŗ":{"ha":847,"x_min":122,"x_max":826,"o":"m 261 0 l 122 0 l 122 972 l 426 972 q 664 899 582 972 q 746 682 746 826 q 571 414 746 479 l 826 0 l 672 0 l 444 386 q 371 383 397 383 l 261 383 l 261 0 m 261 489 l 394 489 q 613 682 613 489 q 415 869 613 869 l 261 869 l 261 489 m 442 -85 q 486 -102 471 -86 q 501 -136 501 -118 q 499 -164 501 -154 l 469 -285 q 383 -432 458 -329 l 360 -465 l 269 -424 q 340 -256 331 -289 q 351 -200 350 -224 l 357 -81 l 442 -85 z "},"ŗ":{"ha":501,"x_min":40,"x_max":474,"o":"m 213 -85 q 257 -102 242 -86 q 272 -136 272 -118 q 269 -164 272 -154 l 240 -285 q 156 -432 229 -329 l 131 -465 l 40 -424 q 111 -256 101 -289 q 122 -200 121 -224 l 128 -81 l 213 -85 m 158 728 q 217 692 196 728 l 236 656 l 258 656 q 328 717 290 701 q 417 733 367 733 q 474 731 468 733 l 474 617 l 417 617 q 264 571 308 617 l 264 0 l 125 0 l 125 576 l 93 728 l 158 728 z "},"Ř":{"ha":847,"x_min":122,"x_max":826,"o":"m 261 0 l 122 0 l 122 972 l 426 972 q 664 899 582 972 q 746 682 746 826 q 571 414 746 479 l 826 0 l 672 0 l 444 386 q 371 383 397 383 l 261 383 l 261 0 m 261 489 l 394 489 q 613 682 613 489 q 415 869 613 869 l 261 869 l 261 489 m 329 1060 l 156 1238 l 206 1282 l 393 1146 l 582 1282 l 632 1238 l 458 1060 l 329 1060 z "},"ř":{"ha":501,"x_min":11,"x_max":488,"o":"m 158 728 q 217 692 196 728 l 236 656 l 258 656 q 328 717 290 701 q 417 733 367 733 q 474 731 468 733 l 474 617 l 417 617 q 264 571 308 617 l 264 0 l 125 0 l 125 576 l 93 728 l 158 728 m 488 1033 l 314 828 l 185 828 l 11 1033 l 61 1078 l 250 921 l 438 1078 l 488 1033 z "},"Ś":{"ha":760,"x_min":51,"x_max":692,"o":"m 371 93 q 490 132 442 93 q 538 238 538 171 q 388 411 538 340 l 246 478 q 72 721 72 560 q 169 917 72 844 q 397 989 267 989 q 589 960 507 989 q 664 931 615 950 l 626 832 q 394 882 492 882 q 222 750 222 882 q 251 669 222 701 q 340 607 279 636 l 507 525 q 692 272 692 433 q 663 138 692 196 q 585 47 633 79 q 353 -17 488 -17 q 51 57 218 -17 l 96 161 q 371 93 249 93 m 553 1183 q 494 1126 553 1142 l 238 1056 l 206 1125 l 515 1274 l 547 1204 q 553 1183 553 1193 z "},"ś":{"ha":699,"x_min":83,"x_max":606,"o":"m 606 201 q 531 37 606 90 q 334 -17 456 -17 q 83 47 213 -17 l 119 133 q 326 78 249 78 q 471 182 471 78 q 449 244 471 221 q 358 296 426 268 l 271 331 q 115 524 115 390 q 189 677 115 621 q 367 733 263 733 q 588 689 471 733 l 558 601 q 369 639 460 639 q 242 542 242 639 q 268 481 242 503 q 363 431 294 460 l 457 389 q 569 313 533 356 q 606 201 606 271 m 568 988 q 521 929 568 950 l 279 815 l 236 878 l 514 1079 l 558 1017 q 568 988 568 1003 z "},"Ŝ":{"ha":760,"x_min":51,"x_max":692,"o":"m 371 93 q 490 132 442 93 q 538 238 538 171 q 388 411 538 340 l 246 478 q 72 721 72 560 q 169 917 72 844 q 397 989 267 989 q 589 960 507 989 q 664 931 615 950 l 626 832 q 394 882 492 882 q 222 750 222 882 q 251 669 222 701 q 340 607 279 636 l 507 525 q 692 272 692 433 q 663 138 692 196 q 585 47 633 79 q 353 -17 488 -17 q 51 57 218 -17 l 96 161 q 371 93 249 93 m 147 1069 l 321 1247 l 450 1247 l 624 1069 l 574 1025 l 385 1161 l 197 1025 l 147 1069 z "},"ŝ":{"ha":699,"x_min":83,"x_max":606,"o":"m 606 201 q 531 37 606 90 q 334 -17 456 -17 q 83 47 213 -17 l 119 133 q 326 78 249 78 q 471 182 471 78 q 449 244 471 221 q 358 296 426 268 l 271 331 q 115 524 115 390 q 189 677 115 621 q 367 733 263 733 q 588 689 471 733 l 558 601 q 369 639 460 639 q 242 542 242 639 q 268 481 242 503 q 363 431 294 460 l 457 389 q 569 313 533 356 q 606 201 606 271 m 111 849 l 285 1054 l 414 1054 l 588 849 l 538 804 l 349 961 l 161 804 l 111 849 z "},"Ş":{"ha":760,"x_min":51,"x_max":692,"o":"m 338 -246 q 413 -179 413 -246 q 381 -133 413 -146 q 290 -117 350 -121 l 314 -14 q 51 57 186 -4 l 96 161 q 371 93 249 93 q 490 132 442 93 q 538 238 538 171 q 388 411 538 340 l 246 478 q 72 721 72 560 q 169 917 72 844 q 397 989 267 989 q 589 960 507 989 q 664 931 615 950 l 626 832 q 394 882 492 882 q 222 750 222 882 q 251 669 222 701 q 340 607 279 636 l 507 525 q 692 272 692 433 q 665 142 692 199 q 592 53 638 86 q 389 -15 506 -10 l 375 -67 q 466 -106 433 -75 q 499 -181 499 -137 q 343 -306 499 -306 q 249 -292 290 -306 l 263 -236 q 338 -246 299 -246 z "},"ş":{"ha":699,"x_min":83,"x_max":606,"o":"m 321 -246 q 396 -179 396 -246 q 365 -133 396 -146 q 274 -117 333 -121 l 297 -14 q 83 47 188 -6 l 119 133 q 326 78 249 78 q 471 182 471 78 q 449 244 471 221 q 358 296 426 268 l 271 331 q 115 524 115 390 q 189 677 115 621 q 367 733 263 733 q 588 689 471 733 l 558 601 q 369 639 460 639 q 242 542 242 639 q 268 481 242 503 q 363 431 294 460 l 457 389 q 569 313 533 356 q 606 201 606 271 q 541 44 606 97 q 372 -15 476 -8 l 358 -67 q 449 -106 417 -75 q 482 -181 482 -137 q 326 -306 482 -306 q 232 -292 274 -306 l 246 -236 q 321 -246 282 -246 z "},"Š":{"ha":760,"x_min":51,"x_max":692,"o":"m 371 93 q 490 132 442 93 q 538 238 538 171 q 388 411 538 340 l 246 478 q 72 721 72 560 q 169 917 72 844 q 397 989 267 989 q 589 960 507 989 q 664 931 615 950 l 626 832 q 394 882 492 882 q 222 750 222 882 q 251 669 222 701 q 340 607 279 636 l 507 525 q 692 272 692 433 q 663 138 692 196 q 585 47 633 79 q 353 -17 488 -17 q 51 57 218 -17 l 96 161 q 371 93 249 93 m 317 1060 l 143 1238 l 193 1282 l 381 1146 l 569 1282 l 619 1238 l 446 1060 l 317 1060 z "},"š":{"ha":699,"x_min":83,"x_max":606,"o":"m 606 201 q 531 37 606 90 q 334 -17 456 -17 q 83 47 213 -17 l 119 133 q 326 78 249 78 q 471 182 471 78 q 449 244 471 221 q 358 296 426 268 l 271 331 q 115 524 115 390 q 189 677 115 621 q 367 733 263 733 q 588 689 471 733 l 558 601 q 369 639 460 639 q 242 542 242 639 q 268 481 242 503 q 363 431 294 460 l 457 389 q 569 313 533 356 q 606 201 606 271 m 600 1033 l 426 828 l 297 828 l 124 1033 l 174 1078 l 363 921 l 550 1078 l 600 1033 z "},"Ţ":{"ha":743,"x_min":4,"x_max":739,"o":"m 347 -246 q 422 -179 422 -246 q 391 -133 422 -146 q 300 -117 360 -121 l 328 0 l 300 0 l 300 849 l 4 849 l 4 972 l 739 972 l 739 849 l 440 849 l 440 0 l 403 0 l 385 -67 q 476 -106 443 -75 q 508 -181 508 -137 q 353 -306 508 -306 q 258 -292 300 -306 l 272 -236 q 347 -246 308 -246 z "},"ţ":{"ha":549,"x_min":32,"x_max":507,"o":"m 375 -17 l 342 -15 l 328 -67 q 419 -106 386 -75 q 451 -181 451 -137 q 296 -306 451 -306 q 201 -292 243 -306 l 215 -236 q 290 -246 251 -246 q 365 -179 365 -246 q 334 -133 365 -146 q 243 -117 303 -121 l 269 -4 q 167 72 197 15 q 138 228 138 128 l 138 621 l 32 621 l 32 669 l 138 717 l 156 811 q 232 890 169 890 l 276 890 l 276 717 l 482 717 l 482 621 l 276 621 l 276 201 q 298 113 276 143 q 376 82 319 82 q 489 93 433 82 l 507 1 q 375 -17 461 -17 z "},"Ť":{"ha":743,"x_min":4,"x_max":739,"o":"m 440 0 l 300 0 l 300 849 l 4 849 l 4 972 l 739 972 l 739 849 l 440 849 l 440 0 m 303 1060 l 129 1238 l 179 1282 l 367 1146 l 556 1282 l 606 1238 l 432 1060 l 303 1060 z "},"ť":{"ha":549,"x_min":32,"x_max":575,"o":"m 232 890 l 276 890 l 276 717 l 482 717 l 482 621 l 276 621 l 276 201 q 298 113 276 143 q 376 82 319 82 q 489 93 433 82 l 507 1 q 375 -17 461 -17 q 190 41 243 -17 q 138 228 138 99 l 138 621 l 32 621 l 32 669 l 138 717 l 156 811 q 232 890 169 890 m 575 1093 q 574 1078 575 1083 l 554 975 q 478 853 546 936 l 454 825 l 365 868 q 386 915 371 882 q 408 964 401 949 q 431 1049 428 1010 l 436 1149 l 524 1143 q 575 1093 575 1139 z "},"Ŧ":{"ha":743,"x_min":4,"x_max":739,"o":"m 63 464 l 63 551 l 300 551 l 300 849 l 4 849 l 4 972 l 739 972 l 739 849 l 440 849 l 440 551 l 679 551 l 679 464 l 440 464 l 440 0 l 300 0 l 300 464 l 63 464 z "},"ŧ":{"ha":549,"x_min":32,"x_max":507,"o":"m 232 890 l 276 890 l 276 717 l 482 717 l 482 621 l 276 621 l 276 479 l 482 479 l 482 393 l 276 393 l 276 201 q 298 113 276 143 q 376 82 319 82 q 489 93 433 82 l 507 1 q 375 -17 461 -17 q 190 41 243 -17 q 138 228 138 99 l 138 393 l 32 393 l 32 479 l 138 479 l 138 621 l 32 621 l 32 669 l 138 717 l 156 811 q 232 890 169 890 z "},"Ũ":{"ha":964,"x_min":111,"x_max":853,"o":"m 853 972 l 853 361 q 482 -17 853 -17 q 111 361 111 -17 l 111 972 l 250 972 l 250 389 q 299 173 250 247 q 482 99 347 99 q 665 173 617 99 q 714 389 714 247 l 714 972 l 853 972 m 575 1074 q 472 1102 529 1074 q 388 1131 415 1131 q 345 1119 361 1131 q 307 1076 329 1107 l 231 1126 q 389 1235 286 1235 q 492 1206 433 1235 q 574 1178 551 1178 q 657 1229 635 1178 l 735 1181 q 575 1074 682 1074 z "},"ũ":{"ha":832,"x_min":115,"x_max":739,"o":"m 363 -17 q 175 55 235 -17 q 115 274 115 126 l 115 717 l 254 717 l 254 275 q 392 78 254 78 q 568 131 493 78 l 568 717 l 707 717 l 707 140 l 739 -11 l 671 -11 q 613 25 633 -11 l 593 61 l 571 61 q 483 -1 528 15 q 363 -17 439 -17 m 513 853 q 410 881 467 853 q 326 910 353 910 q 283 898 299 910 q 244 856 267 886 l 168 906 q 326 1014 224 1014 q 430 985 371 1014 q 511 957 489 957 q 594 1008 572 957 l 672 960 q 513 853 619 853 z "},"Ū":{"ha":964,"x_min":111,"x_max":853,"o":"m 853 972 l 853 361 q 482 -17 853 -17 q 111 361 111 -17 l 111 972 l 250 972 l 250 389 q 299 173 250 247 q 482 99 347 99 q 665 173 617 99 q 714 389 714 247 l 714 972 l 853 972 m 264 1092 l 264 1188 l 700 1188 l 700 1092 l 264 1092 z "},"ū":{"ha":832,"x_min":115,"x_max":739,"o":"m 363 -17 q 175 55 235 -17 q 115 274 115 126 l 115 717 l 254 717 l 254 275 q 392 78 254 78 q 568 131 493 78 l 568 717 l 707 717 l 707 140 l 739 -11 l 671 -11 q 613 25 633 -11 l 593 61 l 571 61 q 483 -1 528 15 q 363 -17 439 -17 m 201 885 l 201 981 l 638 981 l 638 885 l 201 885 z "},"Ŭ":{"ha":964,"x_min":111,"x_max":853,"o":"m 853 972 l 853 361 q 482 -17 853 -17 q 111 361 111 -17 l 111 972 l 250 972 l 250 389 q 299 173 250 247 q 482 99 347 99 q 665 173 617 99 q 714 389 714 247 l 714 972 l 853 972 m 739 1251 q 486 1047 739 1047 q 233 1251 233 1047 l 313 1264 q 360 1162 322 1188 q 486 1136 399 1136 q 612 1162 574 1136 q 660 1264 650 1188 l 739 1251 z "},"ŭ":{"ha":832,"x_min":115,"x_max":739,"o":"m 363 -17 q 175 55 235 -17 q 115 274 115 126 l 115 717 l 254 717 l 254 275 q 392 78 254 78 q 568 131 493 78 l 568 717 l 707 717 l 707 140 l 739 -11 l 671 -11 q 613 25 633 -11 l 593 61 l 571 61 q 483 -1 528 15 q 363 -17 439 -17 m 667 1044 q 414 840 667 840 q 161 1044 161 840 l 240 1057 q 288 955 250 981 q 414 929 326 929 q 540 955 501 929 q 588 1057 578 981 l 667 1044 z "},"Ů":{"ha":964,"x_min":111,"x_max":853,"o":"m 853 972 l 853 361 q 482 -17 853 -17 q 111 361 111 -17 l 111 972 l 250 972 l 250 389 q 299 173 250 247 q 482 99 347 99 q 665 173 617 99 q 714 389 714 247 l 714 972 l 853 972 m 482 1043 q 453 1043 482 1043 q 385 1080 425 1043 q 344 1173 344 1117 q 385 1267 344 1229 q 482 1304 425 1304 q 580 1267 539 1304 q 621 1173 621 1229 q 580 1080 621 1117 q 482 1043 539 1043 m 482 1233 q 469 1233 482 1233 q 440 1217 456 1233 q 424 1173 424 1200 q 440 1131 424 1146 q 483 1115 457 1115 q 525 1131 508 1115 q 542 1173 542 1146 q 525 1217 542 1200 q 482 1233 508 1233 z "},"ů":{"ha":832,"x_min":115,"x_max":739,"o":"m 363 -17 q 175 55 235 -17 q 115 274 115 126 l 115 717 l 254 717 l 254 275 q 392 78 254 78 q 568 131 493 78 l 568 717 l 707 717 l 707 140 l 739 -11 l 671 -11 q 613 25 633 -11 l 593 61 l 571 61 q 483 -1 528 15 q 363 -17 439 -17 m 308 828 q 287 848 308 828 q 265 929 265 868 q 308 1031 265 990 q 414 1072 351 1072 q 521 1031 476 1072 q 565 929 565 990 q 521 828 565 868 q 414 789 476 789 q 308 828 351 789 m 415 999 q 400 999 415 999 q 367 979 386 999 q 347 930 347 960 q 367 881 347 900 q 415 863 386 863 q 463 881 443 863 q 483 930 483 900 q 463 979 483 960 q 415 999 443 999 z "},"Ű":{"ha":964,"x_min":111,"x_max":853,"o":"m 853 972 l 853 361 q 482 -17 853 -17 q 111 361 111 -17 l 111 972 l 250 972 l 250 389 q 299 173 250 247 q 482 99 347 99 q 665 173 617 99 q 714 389 714 247 l 714 972 l 853 972 m 538 1306 q 556 1263 556 1290 q 525 1210 556 1236 l 322 1036 l 264 1085 l 478 1353 l 538 1306 m 785 1306 q 803 1263 803 1290 q 772 1210 803 1236 l 569 1036 l 511 1085 l 725 1353 l 785 1306 z "},"ű":{"ha":832,"x_min":115,"x_max":739,"o":"m 363 -17 q 175 55 235 -17 q 115 274 115 126 l 115 717 l 254 717 l 254 275 q 392 78 254 78 q 568 131 493 78 l 568 717 l 707 717 l 707 140 l 739 -11 l 671 -11 q 613 25 633 -11 l 593 61 l 571 61 q 483 -1 528 15 q 363 -17 439 -17 m 468 1085 q 486 1042 486 1069 q 456 989 486 1015 l 253 815 l 194 864 l 408 1132 l 468 1085 m 715 1085 q 733 1042 733 1069 q 703 989 733 1015 l 500 815 l 442 864 l 656 1132 l 715 1085 z "},"Ų":{"ha":964,"x_min":111,"x_max":853,"o":"m 853 972 l 853 361 q 672 18 853 97 q 537 -66 590 -18 q 483 -164 483 -114 q 503 -212 483 -194 q 555 -229 522 -229 q 617 -210 588 -229 l 657 -272 q 534 -306 600 -306 q 429 -265 468 -306 q 390 -156 390 -225 q 474 -17 390 -87 q 111 361 111 -12 l 111 972 l 250 972 l 250 389 q 299 173 250 247 q 482 99 347 99 q 665 173 617 99 q 714 389 714 247 l 714 972 l 853 972 z "},"ų":{"ha":832,"x_min":115,"x_max":756,"o":"m 363 -17 q 175 55 235 -17 q 115 274 115 126 l 115 717 l 254 717 l 254 275 q 392 78 254 78 q 568 131 493 78 l 568 717 l 707 717 l 707 140 l 739 -11 q 622 -85 663 -50 q 582 -157 582 -119 q 601 -212 582 -194 q 653 -229 621 -229 q 715 -210 686 -229 l 756 -272 q 633 -306 699 -306 q 528 -265 567 -306 q 489 -169 489 -225 q 521 -75 489 -114 q 622 10 553 -36 q 593 61 614 24 l 571 61 q 483 -1 528 15 q 363 -17 439 -17 z "},"Ŵ":{"ha":1275,"x_min":10,"x_max":1265,"o":"m 597 640 l 449 0 l 258 0 l 10 972 l 157 972 l 314 318 q 342 147 335 229 l 343 118 l 365 118 q 394 318 374 228 l 543 972 l 732 972 l 881 318 q 907 147 897 247 l 910 118 l 932 118 q 961 318 939 228 l 1118 972 l 1265 972 l 1017 0 l 826 0 l 678 640 q 651 811 661 711 l 649 840 l 626 840 q 597 640 618 731 m 400 1069 l 574 1247 l 703 1247 l 876 1069 l 826 1025 l 638 1161 l 450 1025 l 400 1069 z "},"ŵ":{"ha":1147,"x_min":31,"x_max":1117,"o":"m 763 0 l 619 401 q 588 563 596 465 l 585 593 l 563 593 q 528 401 556 481 l 385 0 l 253 0 l 31 717 l 160 717 l 272 310 q 306 146 292 244 l 310 117 l 332 117 q 371 310 342 228 l 513 717 l 635 717 l 776 310 q 811 147 801 239 l 815 117 l 838 117 q 875 310 851 225 l 988 717 l 1117 717 l 894 0 l 763 0 m 336 849 l 510 1054 l 639 1054 l 813 849 l 763 804 l 574 961 l 386 804 l 336 849 z "},"Ŷ":{"ha":778,"x_min":4,"x_max":774,"o":"m 451 0 l 315 0 l 315 365 l 4 972 l 151 972 l 331 596 q 369 471 358 538 l 372 449 l 394 449 q 439 596 407 531 l 626 972 l 774 972 l 451 365 l 451 0 m 147 1069 l 321 1247 l 450 1247 l 624 1069 l 574 1025 l 385 1161 l 197 1025 l 147 1069 z "},"ŷ":{"ha":710,"x_min":28,"x_max":686,"o":"m 411 349 l 549 717 l 686 717 l 293 -289 l 150 -289 l 288 26 l 28 717 l 168 717 l 299 349 q 338 206 322 279 l 343 181 l 365 181 q 411 349 383 275 m 111 849 l 285 1054 l 414 1054 l 588 849 l 538 804 l 349 961 l 161 804 l 111 849 z "},"Ÿ":{"ha":778,"x_min":4,"x_max":774,"o":"m 451 0 l 315 0 l 315 365 l 4 972 l 151 972 l 331 596 q 369 471 358 538 l 372 449 l 394 449 q 439 596 407 531 l 626 972 l 774 972 l 451 365 l 451 0 m 196 1097 q 183 1109 196 1097 q 171 1156 171 1121 q 196 1215 171 1190 q 255 1239 221 1239 q 313 1215 289 1239 q 338 1156 338 1190 q 313 1097 338 1121 q 255 1072 289 1072 q 196 1097 221 1072 m 567 1215 q 579 1202 567 1215 q 592 1156 592 1190 q 567 1097 592 1121 q 508 1072 542 1072 q 449 1097 474 1072 q 425 1156 425 1121 q 449 1215 425 1190 q 508 1239 474 1239 q 567 1215 542 1239 z "},"Ź":{"ha":757,"x_min":35,"x_max":715,"o":"m 336 119 l 715 119 l 715 0 l 35 0 l 35 119 l 446 735 q 536 844 485 793 l 554 863 l 542 885 q 403 858 474 858 l 74 858 l 74 972 l 686 972 l 686 858 l 271 243 q 181 132 235 189 l 163 114 l 175 92 q 336 119 236 119 m 593 1183 q 535 1126 593 1142 l 278 1056 l 246 1125 l 556 1274 l 588 1204 q 593 1183 593 1193 z "},"ź":{"ha":732,"x_min":63,"x_max":669,"o":"m 531 988 q 483 929 531 950 l 242 815 l 199 878 l 476 1079 l 521 1017 q 531 988 531 1003 m 343 103 l 669 103 l 669 0 l 63 0 l 63 103 l 410 504 l 514 614 l 501 636 q 367 614 436 614 l 104 614 l 104 717 l 656 717 l 656 614 l 308 213 l 207 104 l 217 83 q 343 103 293 103 z "},"Ż":{"ha":757,"x_min":35,"x_max":715,"o":"m 336 119 l 715 119 l 715 0 l 35 0 l 35 119 l 446 735 q 536 844 485 793 l 554 863 l 542 885 q 403 858 474 858 l 74 858 l 74 972 l 686 972 l 686 858 l 271 243 q 181 132 235 189 l 163 114 l 175 92 q 336 119 236 119 m 303 1103 q 288 1117 303 1103 q 274 1172 274 1132 q 303 1242 274 1213 q 372 1271 332 1271 q 442 1242 413 1271 q 471 1172 471 1213 q 442 1103 471 1132 q 372 1074 413 1074 q 303 1103 332 1074 z "},"ż":{"ha":669,"x_min":0,"x_max":607,"o":"m 281 103 l 607 103 l 607 0 l 0 0 l 0 103 l 347 504 l 451 614 l 439 636 q 304 614 374 614 l 42 614 l 42 717 l 593 717 l 593 614 l 246 213 l 144 104 l 154 83 q 281 103 231 103 m 229 865 q 215 880 229 865 q 200 935 200 894 q 229 1004 200 975 q 299 1033 258 1033 q 368 1004 339 1033 q 397 935 397 975 q 368 865 397 894 q 299 836 339 836 q 229 865 258 836 z "},"Ž":{"ha":757,"x_min":35,"x_max":715,"o":"m 336 119 l 715 119 l 715 0 l 35 0 l 35 119 l 446 735 q 536 844 485 793 l 554 863 l 542 885 q 403 858 474 858 l 74 858 l 74 972 l 686 972 l 686 858 l 271 243 q 181 132 235 189 l 163 114 l 175 92 q 336 119 236 119 m 311 1060 l 138 1238 l 188 1282 l 375 1146 l 564 1282 l 614 1238 l 440 1060 l 311 1060 z "},"ž":{"ha":669,"x_min":0,"x_max":607,"o":"m 281 103 l 607 103 l 607 0 l 0 0 l 0 103 l 347 504 l 451 614 l 439 636 q 304 614 374 614 l 42 614 l 42 717 l 593 717 l 593 614 l 246 213 l 144 104 l 154 83 q 281 103 231 103 m 540 1033 l 367 828 l 238 828 l 64 1033 l 114 1078 l 303 921 l 490 1078 l 540 1033 z "},"ſ":{"ha":513,"x_min":56,"x_max":540,"o":"m 161 772 q 223 981 161 918 q 426 1044 285 1044 q 540 1035 483 1044 l 525 944 q 428 950 485 950 q 300 799 300 950 l 300 0 l 161 0 l 161 622 l 56 622 l 56 671 l 161 717 l 161 772 z "},"ƒ":{"ha":576,"x_min":-83,"x_max":596,"o":"m 483 1044 q 596 1029 535 1044 l 569 939 q 474 950 492 950 q 326 799 346 950 l 317 717 l 522 717 l 511 622 l 307 622 l 243 106 q 155 -126 222 -60 q -56 -192 88 -192 l -83 -192 l -71 -90 q 96 49 79 -90 l 167 622 l 61 622 l 67 671 l 178 717 l 185 772 q 272 981 203 918 q 483 1044 342 1044 z "},"Ơ":{"ha":1021,"x_min":83,"x_max":1072,"o":"m 947 1044 l 1038 1044 q 1072 1013 1072 1044 q 1000 826 1072 903 q 893 753 958 782 q 938 486 938 646 q 510 -17 938 -17 q 83 486 83 -17 q 510 989 83 989 q 849 838 740 989 q 947 1044 947 879 m 511 92 q 792 486 792 92 q 511 881 792 881 q 289 765 353 881 q 232 486 232 661 q 375 122 232 197 q 511 92 432 92 z "},"ơ":{"ha":810,"x_min":69,"x_max":875,"o":"m 875 743 q 725 497 875 583 q 740 358 740 432 q 657 81 740 179 q 405 -17 574 -17 q 153 81 236 -17 q 69 358 69 179 q 153 635 69 538 q 404 733 236 733 q 688 590 606 733 q 750 775 750 644 l 840 775 q 875 743 875 775 m 405 639 q 311 639 405 639 q 217 358 217 639 q 405 78 217 78 q 593 358 593 78 q 405 639 593 639 z "},"Ư":{"ha":964,"x_min":111,"x_max":1117,"o":"m 853 972 l 853 361 q 482 -17 853 -17 q 111 361 111 -17 l 111 972 l 250 972 l 250 389 q 299 173 250 247 q 482 99 347 99 q 665 173 617 99 q 714 389 714 247 l 714 972 l 853 972 m 992 1044 l 1082 1044 q 1117 1013 1117 1044 q 1049 832 1117 903 q 875 731 982 761 l 875 832 q 992 1044 992 864 z "},"ư":{"ha":832,"x_min":115,"x_max":940,"o":"m 815 775 l 906 775 q 940 743 940 775 q 868 557 940 633 q 707 463 806 493 l 707 140 l 739 -11 l 671 -11 q 613 25 633 -11 l 593 61 l 571 61 q 483 -1 528 15 q 363 -17 439 -17 q 175 55 235 -17 q 115 274 115 126 l 115 717 l 254 717 l 254 275 q 392 78 254 78 q 568 131 493 78 l 568 717 l 707 717 l 707 565 q 815 775 815 601 z "},"ǫ":{"ha":810,"x_min":69,"x_max":740,"o":"m 740 358 q 549 7 740 89 q 426 -71 474 -25 q 378 -156 378 -117 q 397 -212 378 -194 q 449 -229 417 -229 q 511 -210 482 -229 l 551 -272 q 428 -306 494 -306 q 324 -265 363 -306 q 285 -158 285 -225 q 372 -15 285 -90 q 145 91 221 -6 q 69 363 69 188 q 153 635 69 538 q 405 733 236 733 q 657 635 574 733 q 740 358 740 538 m 405 639 q 311 639 405 639 q 217 358 217 639 q 405 78 217 78 q 593 358 593 78 q 405 639 593 639 z "},"ǰ":{"ha":400,"x_min":-31,"x_max":446,"o":"m -14 -192 l -14 -90 q 103 -51 68 -90 q 139 88 139 -12 l 139 971 l 278 971 l 278 106 q 211 -124 278 -56 q 14 -192 144 -192 l -14 -192 m 143 1060 l -31 1238 l 19 1282 l 207 1146 l 396 1282 l 446 1238 l 272 1060 l 143 1060 z "},"Ǻ":{"ha":881,"x_min":18,"x_max":863,"o":"m 351 932 q 318 1022 318 968 q 358 1113 318 1075 q 456 1150 399 1150 q 553 1113 513 1150 q 594 1023 594 1075 q 563 935 594 971 l 863 0 l 724 0 l 640 258 l 249 258 l 157 0 l 18 0 l 351 932 m 379 626 l 289 372 l 604 372 l 524 626 q 474 819 492 728 l 467 854 l 444 854 q 379 626 415 728 m 683 1308 q 625 1251 683 1267 l 368 1181 l 336 1250 l 646 1399 l 678 1329 q 683 1308 683 1318 m 456 1079 q 443 1079 456 1079 q 414 1063 431 1079 q 397 1019 397 1047 q 414 976 397 992 q 456 961 431 961 q 499 976 482 961 q 515 1019 515 992 q 499 1063 515 1046 q 456 1079 482 1079 z "},"ǻ":{"ha":783,"x_min":79,"x_max":714,"o":"m 661 497 l 661 171 q 671 103 661 124 q 714 74 681 83 l 694 -10 q 652 -16 685 -17 q 599 -3 619 -15 q 558 43 578 8 l 538 81 l 515 81 q 311 -17 442 -17 q 142 40 204 -17 q 79 203 79 96 q 149 363 79 310 q 365 426 218 415 l 524 439 l 524 485 q 488 603 524 568 q 367 639 451 639 q 158 608 283 639 l 133 690 q 253 721 181 708 q 378 733 325 733 q 590 677 518 733 q 661 497 661 621 m 524 229 l 524 353 l 390 343 q 221 208 221 331 q 351 78 221 78 q 474 113 425 78 q 524 229 524 149 m 285 828 q 263 848 285 828 q 242 929 242 868 q 285 1031 242 990 q 390 1072 328 1072 q 497 1031 453 1072 q 542 929 542 990 q 497 828 542 868 q 390 789 453 789 q 285 828 328 789 m 391 999 q 377 999 391 999 q 343 979 363 999 q 324 930 324 960 q 343 881 324 900 q 391 863 363 863 q 440 881 419 863 q 460 930 460 900 q 440 979 460 960 q 391 999 419 999 m 592 1317 q 544 1258 592 1279 l 303 1144 l 260 1207 l 538 1408 l 582 1346 q 592 1317 592 1332 z "},"Ǽ":{"ha":1396,"x_min":18,"x_max":1313,"o":"m 1313 0 l 733 0 l 733 258 l 349 258 l 185 0 l 18 0 l 685 972 l 1313 972 l 1313 857 l 872 857 l 872 578 l 1271 578 l 1271 461 l 872 461 l 872 115 l 1313 115 l 1313 0 m 733 372 l 733 672 q 753 825 733 738 l 758 854 l 714 854 q 663 726 696 776 l 425 372 l 733 372 m 1122 1183 q 1064 1126 1122 1142 l 807 1056 l 775 1125 l 1085 1274 l 1117 1204 q 1122 1183 1122 1193 z "},"ǽ":{"ha":1235,"x_min":94,"x_max":1144,"o":"m 844 733 q 1144 394 1144 733 l 1144 343 l 676 343 q 872 82 676 82 q 1090 121 975 82 l 1118 38 q 863 -17 992 -17 q 600 97 683 -17 l 578 97 q 364 -17 500 -17 q 161 39 228 -17 q 94 201 94 94 q 166 360 94 308 q 383 421 238 413 l 539 429 l 539 485 q 503 603 539 568 q 383 639 467 639 q 174 608 299 639 l 149 690 q 393 733 258 733 q 617 647 561 733 l 639 647 q 731 715 683 697 q 844 733 778 733 m 539 229 l 539 343 l 406 338 q 236 208 236 332 q 367 78 236 78 q 490 113 440 78 q 539 229 539 149 m 1006 429 q 970 584 1006 528 q 843 640 935 640 q 717 585 751 640 q 676 429 682 529 l 1006 429 m 897 988 q 850 929 897 950 l 608 815 l 565 878 l 843 1079 l 888 1017 q 897 988 897 1003 z "},"Ǿ":{"ha":1021,"x_min":83,"x_max":938,"o":"m 83 486 q 510 989 83 989 q 756 926 657 989 l 825 1021 l 925 947 l 847 839 q 938 486 938 711 q 510 -17 938 -17 q 272 40 367 -17 l 211 -46 l 106 26 l 178 125 q 83 486 83 251 m 683 825 q 526 881 619 881 q 376 851 432 881 q 289 765 319 821 q 232 486 232 661 q 239 358 232 404 q 258 243 246 311 l 283 239 q 363 381 303 297 l 683 825 m 511 92 q 792 486 792 92 q 767 721 792 633 l 742 725 q 674 597 724 668 l 344 140 q 511 92 408 92 m 725 1183 q 667 1126 725 1142 l 410 1056 l 378 1125 l 688 1274 l 719 1204 q 725 1183 725 1193 z "},"ǿ":{"ha":810,"x_min":31,"x_max":767,"o":"m 679 604 q 740 344 740 510 q 657 81 740 179 q 404 -17 574 -17 q 196 40 276 -17 l 121 -47 l 31 28 l 118 129 q 69 358 69 218 q 153 635 69 538 q 404 733 236 733 q 597 685 521 733 l 676 776 l 767 704 l 679 604 m 406 78 q 593 358 593 78 q 599 513 593 460 l 574 517 q 504 399 546 447 l 276 133 q 406 78 324 78 m 406 639 q 217 358 217 639 q 210 231 217 300 l 235 224 q 313 354 260 293 l 521 597 q 406 639 476 639 m 611 988 q 564 929 611 950 l 322 815 l 279 878 l 557 1079 l 601 1017 q 611 988 611 1003 z "},"Ș":{"ha":760,"x_min":51,"x_max":692,"o":"m 371 93 q 490 132 442 93 q 538 238 538 171 q 388 411 538 340 l 246 478 q 72 721 72 560 q 169 917 72 844 q 397 989 267 989 q 589 960 507 989 q 664 931 615 950 l 626 832 q 394 882 492 882 q 222 750 222 882 q 251 669 222 701 q 340 607 279 636 l 507 525 q 692 272 692 433 q 663 138 692 196 q 585 47 633 79 q 353 -17 488 -17 q 51 57 218 -17 l 96 161 q 371 93 249 93 m 408 -85 q 453 -102 438 -86 q 468 -136 468 -118 q 465 -164 468 -154 l 436 -285 q 350 -432 425 -329 l 326 -465 l 236 -424 q 307 -256 297 -289 q 318 -200 317 -224 l 324 -81 l 408 -85 z "},"ș":{"ha":699,"x_min":83,"x_max":606,"o":"m 606 201 q 531 37 606 90 q 334 -17 456 -17 q 83 47 213 -17 l 119 133 q 326 78 249 78 q 471 182 471 78 q 449 244 471 221 q 358 296 426 268 l 271 331 q 115 524 115 390 q 189 677 115 621 q 367 733 263 733 q 588 689 471 733 l 558 601 q 369 639 460 639 q 242 542 242 639 q 268 481 242 503 q 363 431 294 460 l 457 389 q 569 313 533 356 q 606 201 606 271 m 383 -85 q 428 -102 413 -86 q 443 -136 443 -118 q 440 -164 443 -154 l 411 -285 q 325 -432 400 -329 l 301 -465 l 211 -424 q 282 -256 272 -289 q 293 -200 292 -224 l 299 -81 l 383 -85 z "},"Ț":{"ha":743,"x_min":4,"x_max":739,"o":"m 440 0 l 300 0 l 300 849 l 4 849 l 4 972 l 739 972 l 739 849 l 440 849 l 440 0 m 390 -85 q 435 -102 419 -86 q 450 -136 450 -118 q 447 -164 450 -154 l 418 -285 q 333 -432 407 -329 l 308 -465 l 218 -424 q 289 -256 279 -289 q 300 -200 299 -224 l 306 -81 l 390 -85 z "},"ț":{"ha":549,"x_min":32,"x_max":507,"o":"m 232 890 l 276 890 l 276 717 l 482 717 l 482 621 l 276 621 l 276 201 q 298 113 276 143 q 376 82 319 82 q 489 93 433 82 l 507 1 q 375 -17 461 -17 q 190 41 243 -17 q 138 228 138 99 l 138 621 l 32 621 l 32 669 l 138 717 l 156 811 q 232 890 169 890 m 344 -85 q 389 -102 374 -86 q 404 -136 404 -118 q 401 -164 404 -154 l 372 -285 q 286 -432 361 -329 l 263 -465 l 172 -424 q 243 -256 233 -289 q 254 -200 253 -224 l 260 -81 l 344 -85 z "},"ȷ":{"ha":374,"x_min":-32,"x_max":260,"o":"m -3 -306 l -32 -306 l -32 -204 q 84 -162 47 -204 q 121 -19 121 -119 l 121 717 l 260 717 l 260 -7 q 192 -237 260 -169 q -3 -306 125 -306 z "},"ɐ":{"ha":783,"x_min":69,"x_max":704,"o":"m 122 219 l 122 546 q 113 613 122 593 q 69 643 103 633 l 89 726 q 131 733 99 733 q 185 720 164 732 q 225 674 206 708 l 246 636 l 268 636 q 472 733 342 733 q 642 677 579 733 q 704 514 704 621 q 635 354 704 407 q 418 290 565 301 l 260 278 l 260 232 q 296 113 260 149 q 416 78 332 78 q 625 108 500 78 l 650 26 q 531 -4 603 8 q 406 -17 458 -17 q 194 40 265 -17 q 122 219 122 96 m 260 488 l 260 364 l 393 374 q 563 508 563 386 q 432 639 563 639 q 309 603 358 639 q 260 488 260 568 z "},"ɑ":{"ha":826,"x_min":69,"x_max":754,"o":"m 426 639 q 265 556 318 639 q 211 349 211 474 q 257 151 211 225 q 390 78 303 78 q 513 113 460 78 q 567 215 567 149 l 567 586 q 510 621 549 603 q 426 639 471 639 m 400 733 q 500 717 463 733 q 569 656 538 701 l 592 656 l 613 694 q 644 722 625 717 q 700 728 663 728 l 726 728 l 701 571 l 701 171 q 711 103 701 124 q 754 74 721 83 l 739 -10 q 704 -17 729 -17 q 613 25 635 -17 l 582 81 l 560 81 q 479 6 519 28 q 361 -17 439 -17 q 144 85 218 -17 q 69 347 69 186 q 160 621 69 508 q 400 733 251 733 z "},"ɒ":{"ha":847,"x_min":93,"x_max":778,"o":"m 421 78 q 583 160 529 78 q 636 367 636 243 q 590 565 636 492 q 457 639 544 639 q 334 603 388 639 q 281 501 281 568 l 281 131 q 338 96 299 114 q 421 78 376 78 m 447 -17 q 347 -1 385 -17 q 278 61 310 15 l 256 61 l 235 22 q 206 -6 224 0 q 156 -11 188 -11 l 121 -11 l 146 146 l 146 546 q 136 613 146 593 q 93 643 126 633 l 108 726 q 143 733 118 733 q 235 692 213 733 l 265 636 l 288 636 q 368 711 328 689 q 486 733 408 733 q 703 632 629 733 q 778 369 778 531 q 687 96 778 208 q 447 -17 596 -17 z "},"ɓ":{"ha":810,"x_min":108,"x_max":740,"o":"m 563 560 q 555 580 563 560 q 510 619 546 600 q 411 639 475 639 q 297 603 347 639 q 247 486 247 567 l 247 101 q 384 76 314 76 q 496 97 454 76 q 558 158 538 117 q 586 244 579 199 q 593 360 593 290 q 587 474 593 429 q 563 560 581 519 m 247 617 q 454 733 313 733 q 668 635 596 733 q 740 358 740 538 q 658 81 740 179 q 404 -17 575 -17 q 108 25 301 -17 l 108 775 q 179 974 108 904 q 390 1044 250 1044 q 576 1018 497 1044 l 550 933 q 433 950 490 950 q 285 901 324 950 q 247 750 247 851 q 231 647 247 704 l 225 629 l 247 617 z "},"ɔ":{"ha":643,"x_min":35,"x_max":574,"o":"m 63 104 q 237 79 144 79 q 378 153 329 79 q 426 358 426 228 q 378 564 426 489 q 233 639 329 639 q 63 615 136 639 l 35 697 q 229 733 119 733 q 574 358 574 733 q 229 -17 574 -17 q 35 19 119 -17 l 63 104 z "},"ɕ":{"ha":699,"x_min":69,"x_max":664,"o":"m 213 358 q 239 192 213 246 l 260 192 q 308 299 269 258 q 390 353 346 340 q 485 365 433 365 q 615 319 567 365 q 664 199 664 272 q 592 43 664 103 q 422 -17 519 -17 q 256 14 324 -17 q 232 -160 239 -61 l 139 -153 q 169 72 139 -37 q 69 352 69 175 q 158 631 69 529 q 410 733 247 733 q 604 697 519 733 l 576 615 q 410 639 503 639 q 213 358 213 638 m 286 119 q 403 78 335 78 q 517 110 472 78 q 561 199 561 143 q 539 255 561 235 q 483 275 517 275 q 300 149 369 275 q 286 119 294 139 z "},"ɖ":{"ha":808,"x_min":69,"x_max":868,"o":"m 722 -194 q 731 -202 722 -194 q 774 -211 740 -211 q 842 -199 807 -211 l 868 -283 q 758 -306 815 -306 q 608 -251 657 -306 q 558 -107 558 -197 l 558 61 q 482 0 526 17 q 365 -17 438 -17 q 144 81 218 -17 q 69 356 69 178 q 156 633 69 533 q 401 733 242 733 q 536 708 469 733 l 558 700 l 558 1028 l 697 1028 l 697 -106 q 701 -157 697 -137 q 722 -194 704 -176 m 397 640 q 349 640 397 640 q 258 566 300 640 q 217 358 217 492 q 256 151 217 225 q 395 78 296 78 q 558 133 494 78 l 558 611 q 397 640 494 640 z "},"ɗ":{"ha":808,"x_min":69,"x_max":868,"o":"m 664 -11 q 604 25 625 -11 l 585 61 l 563 61 q 485 0 531 17 q 365 -17 439 -17 q 144 81 218 -17 q 69 356 69 178 q 156 633 69 533 q 401 733 242 733 q 536 708 469 733 l 558 700 l 558 867 q 608 1011 558 957 q 758 1065 657 1065 q 868 1043 815 1065 l 842 958 q 767 971 807 971 q 712 943 726 971 q 697 865 697 915 l 697 143 l 731 -11 l 664 -11 m 397 639 q 349 639 397 639 q 258 565 300 639 q 217 358 217 492 q 256 151 217 225 q 395 78 296 78 q 558 133 494 78 l 558 611 q 397 639 494 639 z "},"ɘ":{"ha":747,"x_min":63,"x_max":678,"o":"m 363 733 q 597 630 517 733 q 678 356 678 526 q 593 85 678 186 q 344 -17 508 -17 q 89 38 215 -17 l 117 121 q 335 82 232 82 q 531 328 531 82 l 63 328 l 63 379 q 363 733 63 733 m 531 414 q 491 581 526 522 q 363 640 456 640 q 236 581 271 640 q 201 414 201 521 l 531 414 z "},"ə":{"ha":747,"x_min":63,"x_max":678,"o":"m 363 -17 q 63 338 63 -17 l 63 410 l 531 410 q 483 574 531 513 q 333 635 435 635 q 117 596 232 635 l 89 679 q 344 733 215 733 q 593 632 508 733 q 678 360 678 531 q 597 87 678 190 q 363 -17 517 -17 m 201 324 q 236 141 201 206 q 363 76 271 76 q 491 140 456 76 q 531 324 526 204 l 201 324 z "},"ɚ":{"ha":906,"x_min":63,"x_max":969,"o":"m 358 -17 q 63 260 93 -17 q 519 471 294 339 q 460 594 504 554 q 322 635 415 635 q 113 596 228 635 l 85 679 q 340 733 211 733 q 639 549 564 733 q 728 624 699 589 q 787 511 753 556 q 858 467 821 467 q 907 544 907 467 l 969 535 q 856 407 969 407 q 778 435 811 407 q 713 524 746 464 l 661 481 q 674 358 674 425 q 593 87 674 190 q 358 -17 513 -17 m 528 365 l 528 389 q 203 229 382 301 q 360 76 226 76 q 475 128 440 76 q 518 231 513 181 q 528 365 528 303 z "},"ɛ":{"ha":610,"x_min":76,"x_max":556,"o":"m 510 615 q 364 639 439 639 q 210 531 210 639 q 394 421 210 425 l 394 332 q 255 299 293 331 q 217 205 217 267 q 258 110 217 143 q 374 78 299 78 q 528 101 450 78 l 556 19 q 353 -17 471 -17 q 156 36 235 -17 q 76 197 76 89 q 107 306 76 257 q 211 365 138 356 l 211 388 q 107 440 138 397 q 76 536 76 482 q 156 688 76 642 q 349 733 236 733 q 538 697 463 733 l 510 615 z "},"ɜ":{"ha":610,"x_min":54,"x_max":533,"o":"m 400 531 q 244 639 400 639 q 100 615 171 639 l 72 697 q 260 733 147 733 q 453 688 374 733 q 533 536 533 642 q 503 440 533 482 q 399 388 472 397 l 399 365 q 503 306 472 356 q 533 197 533 257 q 454 36 533 89 q 257 -17 375 -17 q 54 19 139 -17 l 82 101 q 235 78 160 78 q 352 110 311 78 q 393 205 393 143 q 355 299 393 267 q 215 332 317 331 l 215 421 q 400 531 400 425 z "},"ɝ":{"ha":789,"x_min":54,"x_max":851,"o":"m 533 197 q 454 36 533 89 q 257 -17 375 -17 q 54 19 139 -17 l 82 101 q 235 78 160 78 q 352 110 311 78 q 393 205 393 143 q 355 299 393 267 q 215 332 317 331 l 215 421 q 400 531 400 425 q 360 613 400 586 q 245 639 319 639 q 100 615 171 639 l 72 697 q 254 733 147 733 q 524 601 478 733 q 610 676 571 633 q 669 564 635 608 q 740 519 703 519 q 789 597 789 519 l 851 588 q 738 460 851 460 q 660 488 693 460 q 594 576 628 517 q 533 533 561 549 q 399 388 533 404 l 399 365 q 503 307 474 356 q 533 197 533 258 z "},"ɟ":{"ha":400,"x_min":-14,"x_max":401,"o":"m 278 194 l 278 -7 q 210 -237 278 -169 q 15 -306 143 -306 l -14 -306 l -14 -204 q 102 -162 65 -204 q 139 -19 139 -119 l 139 194 l 13 194 l 13 283 l 139 283 l 139 717 l 278 717 l 278 283 l 401 283 l 401 194 l 278 194 z "},"ɠ":{"ha":806,"x_min":69,"x_max":868,"o":"m 401 733 q 558 718 474 733 q 607 868 558 814 q 758 922 656 922 q 868 900 815 922 l 842 815 q 767 828 807 828 q 712 800 726 828 q 697 722 697 772 l 697 -32 q 608 -232 697 -158 q 374 -306 519 -306 q 99 -243 229 -306 l 131 -154 q 163 -167 138 -157 q 199 -181 189 -176 q 232 -192 208 -185 q 271 -203 256 -199 q 351 -211 311 -211 q 503 -160 450 -211 q 561 -24 557 -108 q 576 72 564 25 l 581 89 l 558 101 q 357 -17 492 -17 q 146 83 222 -17 q 69 358 69 182 q 154 634 69 535 q 401 733 239 733 m 399 78 q 510 114 461 78 q 558 231 558 150 l 558 622 q 403 639 475 639 q 259 565 301 639 q 217 357 217 492 q 244 161 217 229 q 399 78 279 78 z "},"ɡ":{"ha":725,"x_min":35,"x_max":690,"o":"m 636 456 q 558 296 636 349 q 356 243 479 243 q 290 246 313 243 q 228 165 228 210 q 240 135 228 144 q 289 122 251 126 l 436 107 q 690 -93 690 79 q 618 -253 690 -200 q 425 -306 546 -306 q 124 -258 214 -306 q 35 -110 35 -211 q 56 -28 35 -67 q 97 30 76 11 q 150 71 118 49 q 132 143 132 110 q 213 263 132 213 q 109 340 142 279 q 76 483 76 401 q 356 733 76 733 q 483 717 428 733 l 690 717 l 686 676 q 631 622 676 631 l 578 613 l 578 590 q 608 561 597 574 q 636 456 636 525 m 133 -96 q 215 -174 133 -151 q 454 -196 296 -196 q 553 -172 513 -196 q 594 -104 594 -149 q 551 -37 594 -60 q 400 -3 507 -14 l 214 17 q 133 -96 133 -35 m 358 324 q 507 488 507 324 q 356 651 507 651 q 206 488 206 651 q 358 324 206 324 z "},"ɢ":{"ha":796,"x_min":83,"x_max":713,"o":"m 435 -17 q 169 88 256 -17 q 83 379 83 192 q 458 775 83 775 q 665 743 565 775 l 654 638 q 458 665 519 665 q 229 379 229 665 q 277 167 229 244 q 443 89 325 89 q 579 149 535 89 l 579 272 l 429 272 l 429 381 l 713 381 l 713 -12 l 689 -12 q 638 17 657 -12 l 621 44 l 601 44 q 526 -1 575 15 q 435 -17 478 -17 z "},"ɣ":{"ha":778,"x_min":21,"x_max":757,"o":"m 458 118 q 571 -132 571 -53 q 524 -258 571 -211 q 389 -306 476 -306 q 254 -258 301 -306 q 207 -129 207 -211 q 319 117 207 -47 q 213 317 247 246 l 21 717 l 163 717 l 328 363 q 372 228 353 310 l 378 201 l 400 201 q 450 363 422 303 l 615 717 l 757 717 l 565 317 l 458 118 m 331 -192 q 345 -202 331 -192 q 389 -211 360 -211 q 447 -192 418 -211 q 476 -133 476 -174 q 388 40 476 -68 q 301 -133 301 -71 q 331 -192 301 -174 z "},"ɤ":{"ha":792,"x_min":-28,"x_max":819,"o":"m 761 599 q 699 643 729 643 q 638 599 669 643 l 472 369 q 575 155 575 240 q 528 22 575 69 q 397 -25 482 -25 q 266 22 313 -25 q 219 147 219 69 q 319 368 219 247 l 154 599 q 92 643 122 643 q 31 599 63 643 l -28 631 q 36 704 -8 675 q 139 733 81 733 q 274 646 213 733 l 396 472 l 518 646 q 580 712 550 690 q 660 733 610 733 q 756 704 711 733 q 819 631 800 675 l 761 599 m 342 85 q 356 75 342 85 q 397 65 369 65 q 453 85 425 65 q 481 152 481 106 q 397 290 481 199 q 314 151 314 196 q 342 85 314 106 z "},"ɥ":{"ha":832,"x_min":114,"x_max":724,"o":"m 393 -17 q 181 53 247 -17 q 114 274 114 122 l 114 717 l 253 717 l 253 275 q 285 129 253 181 q 401 78 318 78 q 535 114 485 78 q 585 231 585 150 l 585 717 l 724 717 l 724 -289 l 585 -289 l 585 -47 q 601 69 585 15 l 607 88 l 585 100 q 500 13 553 42 q 393 -17 447 -17 z "},"ɦ":{"ha":831,"x_min":108,"x_max":717,"o":"m 717 0 l 578 0 l 578 442 q 545 588 578 536 q 429 639 513 639 q 247 486 247 639 l 247 0 l 108 0 l 108 775 q 179 974 108 904 q 390 1044 250 1044 q 576 1018 497 1044 l 550 933 q 433 950 490 950 q 285 901 324 950 q 247 750 247 851 q 231 647 247 704 l 225 629 l 247 617 q 332 704 279 675 q 438 733 385 733 q 650 664 583 733 q 717 443 717 594 l 717 0 z "},"ɧ":{"ha":831,"x_min":108,"x_max":717,"o":"m 247 486 l 247 0 l 108 0 l 108 775 q 179 974 108 904 q 390 1044 250 1044 q 576 1018 497 1044 l 550 933 q 433 950 490 950 q 285 901 324 950 q 247 750 247 851 q 231 647 247 704 l 225 629 l 247 617 q 332 704 279 675 q 438 733 385 733 q 650 664 583 733 q 717 443 717 594 l 717 -107 q 667 -251 717 -197 q 517 -306 618 -306 q 407 -283 460 -306 l 433 -199 q 508 -211 468 -211 q 563 -183 549 -211 q 578 -106 578 -156 l 578 442 q 545 588 578 536 q 429 639 513 639 q 247 486 247 639 z "},"ɨ":{"ha":394,"x_min":1,"x_max":390,"o":"m 1 322 l 1 411 l 128 411 l 128 717 l 267 717 l 267 411 l 390 411 l 390 322 l 267 322 l 267 0 l 128 0 l 128 322 l 1 322 m 136 899 q 124 911 136 899 q 111 960 111 924 q 136 1021 111 996 q 197 1046 161 1046 q 258 1021 233 1046 q 283 960 283 996 q 258 899 283 924 q 197 874 233 874 q 136 899 161 874 z "},"ɪ":{"ha":400,"x_min":47,"x_max":353,"o":"m 47 671 l 47 758 l 353 758 l 353 671 l 268 671 l 268 88 l 353 88 l 353 0 l 47 0 l 47 88 l 132 88 l 132 671 l 47 671 z "},"ɫ":{"ha":417,"x_min":-54,"x_max":481,"o":"m 329 436 q 278 443 297 436 l 278 0 l 139 0 l 139 536 q 94 546 117 546 q 21 493 53 546 l -54 538 q 96 638 -6 638 q 139 632 111 638 l 139 1028 l 278 1028 l 278 540 q 330 528 306 528 q 371 540 354 528 q 404 581 388 553 l 481 533 q 329 436 433 436 z "},"ɬ":{"ha":628,"x_min":14,"x_max":628,"o":"m 475 0 l 336 0 l 336 408 q 14 617 14 418 q 57 738 14 693 q 159 782 100 782 q 254 760 218 782 q 307 707 290 738 l 338 650 l 360 656 q 336 758 336 711 l 336 1028 l 475 1028 l 475 494 l 628 490 l 625 397 l 475 403 l 475 0 m 108 621 q 163 529 108 557 q 344 499 217 501 q 303 597 333 550 q 179 692 243 692 q 124 669 140 692 q 108 621 108 646 z "},"ɭ":{"ha":386,"x_min":124,"x_max":433,"o":"m 288 -194 q 297 -202 288 -194 q 339 -211 306 -211 q 407 -199 372 -211 l 433 -283 q 324 -306 381 -306 q 173 -251 222 -306 q 124 -107 124 -197 l 124 1028 l 263 1028 l 263 -106 q 266 -157 263 -137 q 288 -194 269 -176 z "},"ɮ":{"ha":981,"x_min":115,"x_max":904,"o":"m 600 614 l 254 614 l 254 0 l 115 0 l 115 1028 l 254 1028 l 254 717 l 863 717 l 863 614 l 646 344 q 837 233 769 315 q 904 35 904 151 q 799 -214 904 -122 q 548 -306 693 -306 q 281 -244 403 -306 l 315 -158 q 532 -203 433 -203 q 693 -135 631 -203 q 756 33 756 -67 q 550 244 756 214 l 488 254 l 488 343 l 607 490 q 706 597 657 550 l 724 614 l 711 636 q 600 614 640 614 z "},"ɯ":{"ha":1257,"x_min":115,"x_max":1164,"o":"m 1096 -11 q 1038 25 1058 -11 l 1018 61 l 996 61 q 913 -1 953 15 q 813 -17 874 -17 q 611 61 678 -17 l 589 61 q 506 -1 546 15 q 406 -17 467 -17 q 188 57 261 -17 q 115 272 115 131 l 115 717 l 254 717 l 254 274 q 410 78 254 78 q 569 135 501 78 q 551 272 551 190 l 551 717 l 690 717 l 690 274 q 719 128 690 179 q 838 78 747 78 q 993 131 928 78 l 993 717 l 1132 717 l 1132 140 l 1164 -11 l 1096 -11 z "},"ɰ":{"ha":1257,"x_min":115,"x_max":1132,"o":"m 993 61 l 982 61 q 903 -1 938 14 q 799 -17 868 -17 q 611 61 678 -17 l 589 61 q 506 -1 546 15 q 406 -17 467 -17 q 188 57 261 -17 q 115 272 115 131 l 115 717 l 254 717 l 254 274 q 410 78 254 78 q 569 135 501 78 q 551 272 551 190 l 551 717 l 690 717 l 690 274 q 719 128 690 179 q 838 78 747 78 q 993 131 928 78 l 993 717 l 1132 717 l 1132 -289 l 993 -289 l 993 61 z "},"ɱ":{"ha":1257,"x_min":93,"x_max":1142,"o":"m 1142 444 l 1142 -107 q 1092 -251 1142 -197 q 942 -306 1043 -306 q 832 -283 885 -306 l 858 -199 q 933 -211 893 -211 q 988 -183 974 -211 q 1003 -106 1003 -156 l 1003 443 q 847 639 1003 639 q 686 581 756 639 q 706 444 706 522 l 706 0 l 567 0 l 567 443 q 538 588 567 538 q 419 639 510 639 q 264 586 329 639 l 264 0 l 125 0 l 125 576 l 93 728 l 161 728 q 219 692 199 728 l 239 656 l 261 656 q 344 717 304 701 q 444 733 383 733 q 646 656 579 733 l 668 656 q 751 717 711 701 q 851 733 790 733 q 1069 660 996 733 q 1142 444 1142 586 z "},"ɲ":{"ha":849,"x_min":-46,"x_max":733,"o":"m 733 443 l 733 0 l 594 0 l 594 442 q 563 588 594 536 q 433 639 531 639 q 264 586 335 639 l 264 -107 q 215 -251 264 -197 q 64 -306 165 -306 q -46 -283 7 -306 l -19 -199 q 56 -211 15 -211 q 110 -183 96 -211 q 125 -106 125 -156 l 125 576 l 93 728 l 161 728 q 219 692 199 728 l 239 656 l 261 656 q 344 717 304 701 q 454 733 385 733 q 667 664 600 733 q 733 443 733 594 z "},"ɳ":{"ha":849,"x_min":93,"x_max":904,"o":"m 733 443 l 733 -106 q 737 -157 733 -137 q 758 -194 740 -176 q 810 -211 776 -211 q 878 -199 843 -211 l 904 -283 q 794 -306 851 -306 q 644 -251 693 -306 q 594 -107 594 -197 l 594 442 q 563 588 594 536 q 433 639 531 639 q 264 586 335 639 l 264 0 l 125 0 l 125 576 l 93 728 l 161 728 q 219 692 199 728 l 239 656 l 261 656 q 344 717 304 701 q 454 733 385 733 q 667 664 600 733 q 733 443 733 594 z "},"ɴ":{"ha":899,"x_min":125,"x_max":774,"o":"m 260 450 l 260 0 l 125 0 l 125 758 l 256 758 l 579 322 q 631 222 611 285 l 636 201 l 657 204 q 639 318 639 288 l 639 758 l 774 758 l 774 0 l 656 0 l 315 450 q 267 544 288 481 l 261 564 l 243 560 q 260 450 260 478 z "},"ɵ":{"ha":821,"x_min":75,"x_max":746,"o":"m 663 635 q 704 586 663 635 q 746 358 746 538 q 663 81 746 179 q 410 -17 579 -17 q 158 81 242 -17 q 75 358 75 179 q 158 635 75 538 q 410 733 242 733 q 663 635 579 733 m 411 78 q 597 319 585 78 l 222 319 q 411 78 235 78 m 596 408 q 411 639 581 639 q 224 408 242 639 l 596 408 z "},"ɶ":{"ha":1153,"x_min":83,"x_max":1069,"o":"m 1069 -4 l 572 -4 l 572 -3 q 450 -17 513 -17 q 83 377 83 -17 q 450 771 83 771 q 572 757 521 771 l 572 758 l 1069 758 l 1069 644 l 710 644 l 710 460 l 1035 460 l 1035 346 l 710 346 l 710 110 l 1069 110 l 1069 -4 m 451 89 q 572 114 525 89 l 572 639 q 451 665 522 665 q 281 588 329 665 q 232 376 232 511 q 281 165 232 242 q 451 89 329 89 z "},"ɷ":{"ha":1063,"x_min":76,"x_max":986,"o":"m 201 633 q 263 683 201 633 q 531 733 325 733 q 861 633 736 733 q 986 347 986 532 q 932 73 986 163 q 722 -17 878 -17 q 600 21 647 -17 q 542 118 553 58 l 519 118 q 460 21 508 58 q 340 -17 413 -17 q 131 73 185 -17 q 76 347 76 163 q 201 633 76 532 m 710 78 q 819 158 797 78 q 835 238 832 201 q 838 339 838 274 q 764 565 838 492 q 531 639 690 639 q 297 565 371 639 q 224 339 224 492 q 278 97 224 139 q 354 78 303 78 q 467 231 458 78 l 467 347 l 597 347 l 597 231 q 710 78 601 78 z "},"ɸ":{"ha":879,"x_min":69,"x_max":810,"o":"m 385 1028 l 496 1028 l 496 738 q 728 628 647 728 q 810 358 810 528 q 728 88 810 188 q 496 -21 647 -11 l 496 -289 l 385 -289 l 385 -21 q 151 88 233 -11 q 69 358 69 188 q 151 628 69 528 q 385 738 233 728 l 385 1028 m 385 642 q 217 358 217 619 q 385 74 217 96 l 385 642 m 496 74 q 663 358 663 96 q 496 642 663 619 l 496 74 z "},"ɹ":{"ha":501,"x_min":28,"x_max":408,"o":"m 343 -11 q 285 25 306 -11 l 265 61 l 243 61 q 173 -1 211 15 q 84 -17 135 -17 q 28 -14 33 -17 l 28 100 l 85 100 q 238 146 193 100 l 238 717 l 376 717 l 376 140 l 408 -11 l 343 -11 z "},"ɺ":{"ha":501,"x_min":28,"x_max":408,"o":"m 343 -11 q 285 25 306 -11 l 265 61 l 243 61 q 173 -1 211 15 q 84 -17 135 -17 q 28 -14 33 -17 l 28 100 l 85 100 q 238 146 193 100 l 238 1028 l 376 1028 l 376 140 l 408 -11 l 343 -11 z "},"ɻ":{"ha":500,"x_min":1,"x_max":547,"o":"m 401 -194 q 410 -202 401 -194 q 453 -211 419 -211 q 521 -199 486 -211 l 547 -283 q 438 -306 494 -306 q 287 -251 336 -306 q 238 -107 238 -197 l 238 61 l 217 61 q 147 -1 185 15 q 58 -17 108 -17 q 1 -14 7 -17 l 1 100 l 58 100 q 238 146 182 100 l 238 717 l 376 717 l 376 -106 q 380 -157 376 -137 q 401 -194 383 -176 z "},"ɼ":{"ha":501,"x_min":93,"x_max":474,"o":"m 158 728 q 217 692 196 728 l 236 656 l 258 656 q 328 717 290 701 q 417 733 367 733 q 474 731 468 733 l 474 617 l 417 617 q 264 571 308 617 l 264 -289 l 125 -289 l 125 576 l 93 728 l 158 728 z "},"ɽ":{"ha":501,"x_min":93,"x_max":474,"o":"m 158 728 q 217 692 196 728 l 236 656 l 258 656 q 328 717 290 701 q 417 733 367 733 q 474 731 468 733 l 474 617 l 417 617 q 264 571 308 617 l 264 -106 q 267 -157 264 -137 q 289 -194 271 -176 q 340 -211 307 -211 q 408 -199 374 -211 l 435 -283 q 325 -306 382 -306 q 174 -251 224 -306 q 125 -107 125 -197 l 125 576 l 93 728 l 158 728 z "},"ɾ":{"ha":482,"x_min":108,"x_max":488,"o":"m 407 594 q 330 639 383 639 q 262 611 276 639 q 247 533 247 583 l 247 0 l 108 0 l 108 535 q 158 679 108 625 q 308 733 207 733 q 488 631 458 733 l 407 594 z "},"ɿ":{"ha":482,"x_min":-6,"x_max":374,"o":"m 158 639 q 75 594 99 639 l -6 631 q 174 733 24 733 q 324 679 275 733 q 374 535 374 625 l 374 -289 l 235 -289 l 235 533 q 231 585 235 565 q 210 622 228 604 q 158 639 192 639 z "},"ʀ":{"ha":747,"x_min":122,"x_max":726,"o":"m 254 0 l 122 0 l 122 758 l 382 758 q 657 532 657 758 q 526 324 657 379 l 726 0 l 579 0 l 408 294 q 335 292 385 292 l 254 292 l 254 0 m 254 389 l 354 389 q 522 532 522 389 q 374 661 522 661 l 254 661 l 254 389 z "},"ʁ":{"ha":747,"x_min":122,"x_max":726,"o":"m 122 758 l 254 758 l 254 467 l 335 467 q 408 463 372 467 l 579 758 l 726 758 l 526 435 q 657 226 657 378 q 382 0 657 0 l 122 0 l 122 758 m 354 369 l 254 369 l 254 97 l 374 97 q 522 226 522 97 q 354 369 522 369 z "},"ʂ":{"ha":699,"x_min":83,"x_max":606,"o":"m 326 78 q 471 182 471 78 q 449 244 471 221 q 358 296 426 268 l 271 331 q 115 524 115 390 q 189 677 115 621 q 367 733 263 733 q 588 689 471 733 l 558 601 q 369 639 460 639 q 242 542 242 639 q 268 481 242 503 q 363 431 294 460 l 457 389 q 569 313 533 356 q 606 201 606 271 q 531 37 606 90 q 342 -17 456 -17 q 190 6 272 -17 l 190 -106 q 233 -206 190 -187 q 295 -215 256 -215 q 367 -203 335 -215 l 393 -283 q 283 -306 340 -306 q 133 -251 182 -306 q 83 -107 83 -197 l 83 47 l 119 133 q 326 78 249 78 z "},"ʃ":{"ha":433,"x_min":-32,"x_max":467,"o":"m 119 721 l 118 765 q 400 1042 118 1042 q 467 1035 439 1042 l 456 943 q 407 946 433 946 q 296 899 336 946 q 256 775 256 851 q 257 729 256 754 l 289 11 q 290 -15 290 -6 q 217 -223 290 -150 q 13 -306 144 -296 l -32 -306 l -32 -212 q 112 -160 71 -212 q 153 -40 153 -108 q 151 0 153 -22 l 119 721 z "},"ʄ":{"ha":504,"x_min":-42,"x_max":500,"o":"m 474 815 q 399 828 439 828 q 344 800 358 828 q 329 722 329 772 l 329 89 l 467 89 l 467 0 l 329 0 l 329 -7 q 264 -235 329 -168 q 68 -306 199 -303 q -42 -296 8 -306 l -24 -197 q 38 -204 32 -204 q 153 -162 118 -204 q 190 -19 189 -121 l 190 0 l 46 0 l 46 89 l 190 89 l 190 724 q 240 868 190 814 q 390 922 289 922 q 500 900 447 922 l 474 815 z "},"ʅ":{"ha":450,"x_min":-14,"x_max":483,"o":"m 322 458 l 300 -37 q 338 -156 300 -107 q 483 -212 381 -212 l 483 -306 l 457 -306 q 243 -229 324 -306 q 163 -19 163 -153 q 185 468 163 -19 q 148 590 185 543 q 46 638 111 638 q -3 635 19 638 l -14 726 q 53 733 14 733 q 322 458 322 733 z "},"ʆ":{"ha":547,"x_min":-97,"x_max":506,"o":"m 344 -42 q 274 -240 342 -174 q 108 -306 207 -306 q -44 -264 8 -306 q -97 -142 -97 -222 q 192 39 -97 17 l 201 39 l 154 738 q 153 772 153 750 q 226 973 153 907 q 432 1042 299 1039 q 506 1035 481 1042 l 494 943 q 458 946 475 946 q 335 899 378 946 q 293 775 293 851 q 294 738 293 757 l 340 50 l 496 61 l 503 -32 l 344 -42 m -3 -153 q 19 -192 -3 -174 q 92 -211 40 -211 q 176 -172 144 -211 q 208 -51 208 -133 q 44 -79 90 -58 q -3 -153 -3 -100 z "},"ʇ":{"ha":549,"x_min":42,"x_max":517,"o":"m 317 -171 l 272 -171 l 272 0 l 67 0 l 67 96 l 272 96 l 272 515 q 251 604 272 574 q 172 635 229 635 q 60 624 115 635 l 42 715 q 174 733 86 733 q 358 676 306 733 q 411 489 411 618 l 411 96 l 517 96 l 517 47 l 411 0 l 393 -92 q 368 -151 386 -132 q 317 -171 350 -171 z "},"ʈ":{"ha":524,"x_min":32,"x_max":482,"o":"m 301 -194 q 310 -202 301 -194 q 353 -211 319 -211 q 421 -199 386 -211 l 447 -283 q 338 -306 394 -306 q 187 -251 236 -306 q 138 -107 138 -197 l 138 621 l 32 621 l 32 669 l 138 717 l 156 808 q 232 888 169 888 l 276 888 l 276 717 l 482 717 l 482 621 l 276 621 l 276 -106 q 280 -157 276 -137 q 301 -194 283 -176 z "},"ʉ":{"ha":832,"x_min":60,"x_max":763,"o":"m 60 319 l 60 408 l 115 408 l 115 717 l 254 717 l 254 408 l 568 408 l 568 717 l 707 717 l 707 408 l 763 408 l 763 319 l 707 319 l 707 140 l 739 -11 l 671 -11 q 613 25 633 -11 l 593 61 l 571 61 q 483 -1 528 15 q 363 -17 439 -17 q 175 55 235 -17 q 115 274 115 126 l 115 319 l 60 319 m 392 78 q 568 131 493 78 l 568 319 l 254 319 l 254 275 q 392 78 254 78 z "},"ʊ":{"ha":826,"x_min":69,"x_max":757,"o":"m 101 636 l 101 717 l 346 717 l 346 636 q 217 329 217 507 q 263 148 217 218 q 414 78 308 78 q 610 329 610 78 q 482 636 610 508 l 482 717 l 726 717 l 726 636 l 600 636 l 594 626 q 709 510 661 588 q 757 329 757 433 q 671 74 757 164 q 413 -17 585 -17 q 155 74 240 -17 q 69 329 69 164 q 117 510 69 433 q 232 626 165 588 l 226 636 l 101 636 z "},"ʋ":{"ha":885,"x_min":111,"x_max":801,"o":"m 665 546 q 644 632 665 610 q 581 654 624 654 l 581 733 l 601 733 q 801 540 801 733 q 686 111 801 254 q 566 19 643 56 q 386 -17 489 -17 q 111 274 111 -17 l 111 717 l 250 717 l 250 275 q 286 132 250 186 q 401 78 322 78 q 665 546 665 78 z "},"ʌ":{"ha":747,"x_min":28,"x_max":719,"o":"m 582 0 l 429 431 q 390 572 406 500 l 385 599 l 363 599 q 318 431 344 504 l 165 0 l 28 0 l 297 717 l 450 717 l 719 0 l 582 0 z "},"ʍ":{"ha":1147,"x_min":31,"x_max":1117,"o":"m 619 315 l 763 717 l 894 717 l 1117 0 l 988 0 l 875 407 q 842 571 856 472 l 838 600 l 815 600 q 776 407 806 489 l 635 0 l 513 0 l 371 407 q 336 569 346 478 l 332 600 l 310 600 q 272 407 296 492 l 160 0 l 31 0 l 253 717 l 385 717 l 528 315 q 560 154 551 251 l 563 124 l 585 124 q 619 315 592 236 z "},"ʎ":{"ha":710,"x_min":24,"x_max":682,"o":"m 299 368 l 161 0 l 24 0 l 417 1006 l 560 1006 l 422 690 l 682 0 l 542 0 l 411 368 q 372 511 388 438 l 367 536 l 344 536 q 299 368 326 442 z "},"ʏ":{"ha":667,"x_min":4,"x_max":663,"o":"m 394 0 l 263 0 l 263 285 l 4 758 l 143 758 l 286 485 q 317 393 308 442 l 319 378 l 338 378 q 375 485 347 433 l 525 758 l 663 758 l 394 285 l 394 0 z "},"ʐ":{"ha":676,"x_min":0,"x_max":735,"o":"m 0 0 l 0 103 l 347 504 l 451 614 l 439 636 q 304 614 374 614 l 42 614 l 42 717 l 593 717 l 593 614 l 246 213 l 144 104 l 154 83 q 281 103 231 103 l 547 103 l 535 -75 q 532 -128 532 -103 q 632 -217 532 -217 q 708 -204 676 -217 l 735 -285 q 625 -307 682 -307 q 476 -258 528 -307 q 425 -128 425 -208 q 428 -76 425 -101 l 435 0 l 0 0 z "},"ʑ":{"ha":868,"x_min":63,"x_max":854,"o":"m 678 243 q 476 69 558 243 q 603 63 575 63 q 710 93 672 63 q 747 171 747 124 q 678 243 747 243 m 399 614 l 132 614 l 132 717 l 683 717 l 683 615 l 301 215 l 190 103 l 196 81 l 375 81 q 501 264 421 190 q 668 338 581 338 q 805 291 756 338 q 854 163 854 244 q 784 28 854 81 q 597 -25 714 -25 q 440 -18 568 -25 q 408 -218 424 -74 l 311 -210 q 339 -12 321 -85 l 63 0 l 63 106 l 426 504 q 521 597 482 564 l 539 614 l 526 636 q 399 614 454 614 z "},"ʒ":{"ha":694,"x_min":-6,"x_max":618,"o":"m 314 614 l 42 614 l 42 717 l 576 717 l 576 614 l 360 344 q 551 233 483 315 q 618 35 618 151 q 513 -214 618 -122 q 262 -306 407 -306 q -6 -244 117 -306 l 29 -158 q 246 -203 147 -203 q 407 -135 344 -203 q 469 33 469 -67 q 264 244 469 214 l 201 254 l 201 343 l 321 490 q 419 597 371 550 l 438 614 l 425 636 q 314 614 354 614 z "},"ʓ":{"ha":694,"x_min":-28,"x_max":618,"o":"m 317 614 l 49 614 l 49 717 l 583 717 l 583 614 l 367 346 q 551 235 485 319 q 618 35 618 151 q 481 -232 618 -132 q 506 -442 506 -331 l 413 -449 q 390 -279 400 -331 q 222 -311 322 -311 q 47 -253 122 -311 q -28 -106 -28 -194 q 27 33 -28 -18 q 163 85 82 85 q 308 46 244 85 q 417 -108 396 -7 l 438 -108 q 476 33 476 -49 q 271 246 476 214 l 208 256 l 208 343 l 328 490 q 425 597 379 551 l 442 614 l 429 636 q 317 614 350 614 m 83 -98 q 83 -122 83 -98 q 128 -178 83 -146 q 241 -211 172 -211 q 361 -178 310 -211 q 356 -166 360 -174 q 350 -152 353 -158 q 344 -140 347 -146 q 174 -6 283 -6 q 109 -28 135 -6 q 83 -98 83 -50 z "},"ʔ":{"ha":624,"x_min":-14,"x_max":568,"o":"m 143 0 l 143 489 l 206 489 q 360 547 300 489 q 419 716 419 606 q 365 887 419 826 q 213 947 310 947 q 119 939 156 947 q 17 906 82 931 l -14 981 q 227 1042 75 1042 q 474 957 379 1042 q 568 715 568 872 q 538 567 568 631 q 458 471 507 504 q 268 407 365 407 l 268 0 l 143 0 z "},"ʕ":{"ha":624,"x_min":56,"x_max":638,"o":"m 481 489 l 481 0 l 356 0 l 356 407 q 165 471 258 407 q 86 567 117 504 q 56 715 56 631 q 150 957 56 872 q 397 1042 244 1042 q 638 981 549 1042 l 607 906 q 505 939 542 931 q 411 947 468 947 q 259 887 314 947 q 204 716 204 826 q 264 547 204 606 q 418 489 324 489 l 481 489 z "},"ʖ":{"ha":624,"x_min":-14,"x_max":568,"o":"m 143 536 l 143 1028 l 268 1028 l 268 618 q 458 554 365 618 q 538 458 507 521 q 568 310 568 394 q 467 69 568 154 q 221 -17 367 -17 q -14 44 75 -17 l 17 119 q 119 86 82 94 q 213 78 156 78 q 365 138 310 78 q 419 309 419 199 q 360 478 419 419 q 206 536 300 536 l 143 536 z "},"ʘ":{"ha":1124,"x_min":83,"x_max":1040,"o":"m 1013 715 q 1026 668 1013 715 q 1040 514 1040 621 q 1013 313 1040 407 q 928 144 985 219 q 778 26 872 69 q 560 -17 683 -17 q 342 26 436 -17 q 193 145 249 69 q 110 313 138 221 q 83 514 83 406 q 110 715 83 622 q 193 883 138 807 q 342 1001 249 958 q 560 1044 436 1044 q 778 1001 683 1044 q 928 883 872 958 q 1013 715 985 808 m 561 74 q 635 74 561 74 q 799 187 708 74 q 890 513 890 300 q 799 840 890 726 q 561 954 708 954 q 322 840 414 954 q 231 513 231 725 q 322 187 231 300 q 561 74 414 74 m 499 450 q 485 463 499 450 q 472 513 472 476 q 499 575 472 549 q 561 601 525 601 q 624 575 597 601 q 650 513 650 549 q 624 450 650 476 q 561 424 597 424 q 499 450 525 424 z "},"ʙ":{"ha":760,"x_min":139,"x_max":683,"o":"m 354 0 l 139 0 l 139 758 l 357 758 q 633 567 633 758 q 606 481 633 522 q 521 418 578 440 l 521 401 q 645 334 607 376 q 683 219 683 292 q 598 51 683 101 q 354 0 513 0 m 364 351 l 271 351 l 271 88 l 354 88 q 503 115 454 88 q 553 210 553 142 q 502 315 553 279 q 364 351 451 351 m 504 564 q 346 672 504 672 l 271 672 l 271 444 l 344 444 q 461 474 418 444 q 504 564 504 503 z "},"ʚ":{"ha":853,"x_min":97,"x_max":783,"o":"m 97 197 q 129 294 97 249 q 232 350 161 340 l 232 372 q 129 426 161 382 q 97 522 97 469 q 424 733 97 733 q 601 699 528 733 q 713 607 675 665 q 767 488 751 549 q 783 358 783 428 q 767 228 783 289 q 713 109 750 167 q 600 17 675 51 q 419 -17 525 -17 q 97 197 97 -17 m 244 515 q 269 438 244 469 q 347 406 294 406 l 435 406 l 435 315 l 347 315 q 268 281 292 315 q 244 203 244 247 q 417 78 244 78 q 636 358 636 78 q 417 639 636 639 q 244 515 244 639 z "},"ʛ":{"ha":793,"x_min":81,"x_max":839,"o":"m 456 665 q 226 379 226 665 q 274 167 226 244 q 440 89 322 89 q 576 149 532 89 l 576 272 l 426 272 l 426 381 l 710 381 l 710 -12 l 686 -12 q 635 17 654 -12 l 618 44 l 599 44 q 524 -1 572 15 q 432 -17 475 -17 q 167 88 253 -17 q 81 379 81 192 q 456 775 81 775 q 529 771 458 775 l 529 865 q 578 1010 529 956 q 729 1064 628 1064 q 839 1042 786 1064 l 813 957 q 748 969 778 969 q 701 961 718 969 q 675 936 683 953 q 664 864 664 908 l 664 635 q 456 665 538 665 z "},"ʜ":{"ha":906,"x_min":132,"x_max":774,"o":"m 271 0 l 132 0 l 132 758 l 271 758 l 271 442 l 635 442 l 635 758 l 774 758 l 774 0 l 635 0 l 635 325 l 271 325 l 271 0 z "},"ʝ":{"ha":454,"x_min":-97,"x_max":494,"o":"m 94 -306 q -44 -260 8 -306 q -97 -135 -97 -215 q -24 8 -97 -54 q 200 85 49 71 l 217 86 l 217 717 l 356 717 l 356 99 l 483 111 l 494 19 l 356 7 l 356 0 q 283 -226 351 -146 q 94 -306 215 -306 m -3 -140 q 85 -211 -3 -211 q 188 -163 156 -211 q 221 -6 221 -115 q 49 -53 100 -15 q -3 -140 -3 -92 m 225 899 q 213 911 225 899 q 200 960 200 924 q 225 1021 200 996 q 286 1046 250 1046 q 347 1021 322 1046 q 372 960 372 996 q 347 899 372 924 q 286 874 322 874 q 225 899 250 874 z "},"ʞ":{"ha":788,"x_min":14,"x_max":679,"o":"m 540 -289 l 540 717 l 679 717 l 679 -289 l 540 -289 m 58 0 l 354 289 l 14 718 l 175 738 l 508 289 l 250 0 l 58 0 z "},"ʟ":{"ha":626,"x_min":121,"x_max":599,"o":"m 121 0 l 121 758 l 260 758 l 260 119 l 599 119 l 599 0 l 121 0 z "},"ʠ":{"ha":806,"x_min":69,"x_max":868,"o":"m 842 815 q 767 828 807 828 q 712 800 726 828 q 697 722 697 772 l 697 -292 l 558 -292 l 558 -46 q 575 71 558 17 l 581 89 l 558 101 q 357 -17 492 -17 q 146 83 222 -17 q 69 358 69 182 q 154 634 69 535 q 401 733 239 733 q 558 718 474 733 l 558 724 q 608 868 558 814 q 758 922 657 922 q 868 900 815 922 l 842 815 m 558 232 l 558 621 q 403 639 478 639 q 259 565 301 639 q 217 357 217 492 q 244 161 217 229 q 393 78 279 78 q 510 115 461 78 q 558 232 558 151 z "},"ʡ":{"ha":658,"x_min":0,"x_max":603,"o":"m 178 314 l 178 489 l 240 489 q 394 547 335 489 q 454 716 454 606 q 399 887 454 826 q 247 947 344 947 q 153 939 190 947 q 51 906 117 931 l 21 981 q 262 1042 110 1042 q 508 957 414 1042 q 603 715 603 872 q 572 567 603 631 q 493 471 542 504 q 303 407 400 407 l 303 314 l 508 314 l 508 225 l 303 225 l 303 0 l 178 0 l 178 225 l 0 225 l 0 314 l 178 314 z "},"ʢ":{"ha":658,"x_min":56,"x_max":658,"o":"m 481 489 l 481 314 l 658 314 l 658 225 l 481 225 l 481 0 l 356 0 l 356 225 l 150 225 l 150 314 l 356 314 l 356 407 q 165 471 258 407 q 86 567 117 504 q 56 715 56 631 q 156 956 56 871 q 403 1042 257 1042 q 638 981 549 1042 l 607 906 q 505 939 542 931 q 411 947 468 947 q 259 887 314 947 q 204 716 204 826 q 264 547 204 606 q 418 489 324 489 l 481 489 z "},"ʣ":{"ha":1382,"x_min":69,"x_max":1319,"o":"m 979 103 l 1319 103 l 1319 0 l 646 0 q 597 36 613 6 l 585 61 l 563 61 q 485 0 531 17 q 365 -17 439 -17 q 144 81 218 -17 q 69 356 69 178 q 156 633 69 533 q 401 733 242 733 q 536 708 469 733 l 558 700 l 558 1028 l 697 1028 l 697 717 l 1306 717 l 1306 614 l 944 213 l 843 104 l 853 83 q 979 103 929 103 m 397 639 q 349 639 397 639 q 258 565 300 639 q 217 358 217 492 q 256 151 217 225 q 395 78 296 78 q 558 133 494 78 l 558 611 q 397 639 494 639 m 1017 614 l 697 614 l 697 265 q 681 146 697 200 l 674 126 l 696 117 l 1164 614 l 1151 636 q 1017 614 1086 614 z "},"ʤ":{"ha":1422,"x_min":69,"x_max":1346,"o":"m 1042 614 l 697 614 l 697 143 l 731 -11 l 664 -11 q 604 25 625 -11 l 585 61 l 563 61 q 485 0 531 17 q 365 -17 439 -17 q 144 81 218 -17 q 69 356 69 178 q 156 633 69 533 q 401 733 242 733 q 536 708 469 733 l 558 700 l 558 1028 l 697 1028 l 697 717 l 1304 717 l 1304 614 l 1088 344 q 1278 233 1211 315 q 1346 35 1346 151 q 1240 -214 1346 -122 q 990 -306 1135 -306 q 722 -244 844 -306 l 757 -158 q 974 -203 875 -203 q 1135 -135 1072 -203 q 1197 33 1197 -67 q 992 244 1197 214 l 929 254 l 929 343 l 1049 490 q 1147 597 1099 550 l 1165 614 l 1153 636 q 1042 614 1082 614 m 397 639 q 349 639 397 639 q 258 565 300 639 q 217 358 217 492 q 256 151 217 225 q 395 78 296 78 q 558 133 494 78 l 558 611 q 397 639 494 639 z "},"ʥ":{"ha":1476,"x_min":69,"x_max":1476,"o":"m 697 1028 l 697 717 l 1306 717 l 1306 615 l 924 215 l 813 103 l 818 81 l 997 81 q 1123 264 1043 190 q 1290 338 1203 338 q 1427 291 1378 338 q 1476 163 1476 244 q 1406 28 1476 81 q 1219 -25 1336 -25 q 1063 -18 1190 -25 q 1031 -218 1046 -74 l 933 -210 q 961 -12 943 -85 l 657 0 q 597 36 615 1 l 585 61 l 563 61 q 485 0 531 17 q 365 -17 439 -17 q 144 81 218 -17 q 69 356 69 178 q 156 633 69 533 q 401 733 242 733 q 536 708 469 733 l 558 700 l 558 1028 l 697 1028 m 397 639 q 349 639 397 639 q 258 565 300 639 q 217 358 217 492 q 256 151 217 225 q 395 78 296 78 q 558 133 494 78 l 558 611 q 397 639 494 639 m 697 614 l 697 265 q 681 146 697 204 l 675 126 l 694 117 l 1049 504 q 1143 597 1089 547 l 1161 614 l 1149 636 q 1021 614 1076 614 l 697 614 m 1300 243 q 1099 69 1181 243 q 1225 63 1197 63 q 1332 93 1294 63 q 1369 171 1369 124 q 1300 243 1369 243 z "},"ʦ":{"ha":1206,"x_min":32,"x_max":1113,"o":"m 276 621 l 276 275 q 313 132 276 186 q 428 78 349 78 q 606 129 533 78 q 825 78 731 78 q 972 181 972 78 q 949 244 972 219 q 854 296 925 268 l 764 331 q 597 525 597 393 q 674 678 597 624 q 863 733 751 733 q 1092 694 975 733 l 1064 611 q 864 639 960 639 q 728 543 728 639 q 786 464 728 496 q 858 431 808 451 l 957 389 q 1074 312 1035 356 q 1113 199 1113 268 q 1035 35 1113 88 q 839 -17 958 -17 q 606 29 719 -17 q 399 -17 532 -17 q 201 54 265 -17 q 138 274 138 125 l 138 621 l 32 621 l 32 669 l 138 717 l 156 811 q 232 890 169 890 l 276 890 l 276 717 l 482 717 l 482 621 l 276 621 z "},"ʧ":{"ha":903,"x_min":32,"x_max":936,"o":"m 724 778 l 786 11 q 788 -26 788 -1 q 713 -226 788 -154 q 510 -306 638 -297 l 467 -306 l 467 -212 q 609 -162 568 -212 q 650 -43 650 -111 l 650 -26 l 596 621 l 276 621 l 276 201 q 298 113 276 143 q 376 82 319 82 q 489 93 433 82 l 507 1 q 375 -17 461 -17 q 190 41 243 -17 q 138 228 138 99 l 138 621 l 32 621 l 32 669 l 138 717 l 156 811 q 232 890 169 890 l 276 890 l 276 717 l 589 721 q 586 771 586 754 q 869 1042 586 1042 q 936 1035 908 1042 l 925 943 q 876 946 903 946 q 765 899 806 946 q 724 778 724 853 z "},"ʨ":{"ha":1188,"x_min":32,"x_max":1153,"o":"m 276 621 l 276 275 q 313 132 276 186 q 429 78 349 78 q 604 147 510 78 q 558 358 558 235 q 647 631 558 529 q 899 733 736 733 q 1093 697 1008 733 l 1065 615 q 899 639 992 639 q 701 358 701 638 q 728 192 701 246 l 750 192 q 974 365 781 365 q 1104 319 1056 365 q 1153 199 1153 272 q 1081 43 1153 103 q 910 -17 1008 -17 q 744 14 813 -17 q 721 -160 733 -37 l 628 -153 q 658 72 628 -37 l 650 81 q 404 -17 543 -17 q 201 54 265 -17 q 138 274 138 125 l 138 621 l 32 621 l 32 669 l 138 717 l 156 811 q 232 890 169 890 l 276 890 l 276 717 l 482 717 l 482 621 l 276 621 m 775 119 q 892 78 824 78 q 1006 110 961 78 q 1050 199 1050 143 q 1028 255 1050 235 q 972 275 1006 275 q 789 149 858 275 q 775 119 783 139 z "},"ʩ":{"ha":1353,"x_min":56,"x_max":1238,"o":"m 1238 443 l 1238 -107 q 1188 -251 1238 -197 q 1038 -306 1139 -306 q 928 -283 981 -306 l 954 -199 q 1029 -211 989 -211 q 1084 -183 1069 -211 q 1099 -106 1099 -156 l 1099 442 q 1067 588 1099 536 q 937 639 1035 639 q 768 586 839 639 l 768 0 l 629 0 l 629 576 l 618 624 l 300 624 l 300 0 l 161 0 l 161 624 l 56 624 l 56 672 l 161 718 l 161 769 q 223 978 161 915 q 426 1042 285 1042 q 553 1028 489 1042 l 538 938 q 428 947 489 947 q 300 796 300 947 l 300 718 l 665 718 q 728 683 708 718 l 743 656 l 765 656 q 849 717 808 701 q 958 733 889 733 q 1171 664 1104 733 q 1238 443 1238 594 z "},"ʪ":{"ha":913,"x_min":115,"x_max":819,"o":"m 254 1028 l 254 283 q 306 164 254 214 q 540 78 396 78 q 685 182 685 78 q 663 244 685 221 q 572 296 640 268 l 485 331 q 329 524 329 390 q 403 677 329 621 q 581 733 476 733 q 801 689 685 733 l 772 601 q 583 639 674 639 q 456 542 456 639 q 482 481 456 503 q 576 431 508 460 l 671 389 q 783 313 747 356 q 819 201 819 271 q 744 37 819 90 q 556 -17 669 -17 q 392 10 481 -17 q 264 100 304 38 l 243 94 q 254 28 254 78 l 254 0 l 115 0 l 115 1028 l 254 1028 z "},"ʫ":{"ha":939,"x_min":115,"x_max":876,"o":"m 535 103 l 876 103 l 876 0 l 115 0 l 115 1028 l 254 1028 l 254 717 l 863 717 l 863 614 l 500 213 l 399 104 l 408 83 q 535 103 485 103 m 574 614 l 254 614 l 254 249 q 236 150 254 224 l 231 126 l 254 118 l 721 614 l 708 636 q 574 614 643 614 z "},"ʬ":{"ha":799,"x_min":42,"x_max":757,"o":"m 388 360 q 369 239 388 289 l 285 0 l 193 0 l 42 450 l 146 450 l 207 250 q 225 147 221 203 l 226 129 l 249 129 q 271 250 251 196 l 342 450 l 456 450 l 529 250 q 550 147 547 201 l 550 129 l 572 129 q 592 250 575 194 l 651 450 l 757 450 l 607 0 l 513 0 l 428 239 q 411 342 413 279 l 410 360 l 388 360 m 388 938 q 369 817 388 867 l 285 578 l 193 578 l 42 1028 l 146 1028 l 207 828 q 225 725 221 781 l 226 707 l 249 707 q 271 828 251 774 l 342 1028 l 456 1028 l 529 828 q 547 725 546 783 l 549 707 l 571 707 q 592 828 575 772 l 651 1028 l 757 1028 l 607 578 l 513 578 l 428 817 q 411 918 413 857 l 410 938 l 388 938 z "},"ʭ":{"ha":768,"x_min":56,"x_max":713,"o":"m 711 0 l 606 0 l 606 244 l 161 244 l 161 0 l 56 0 l 56 361 l 711 361 l 711 0 m 713 664 l 606 664 l 606 908 l 161 908 l 161 664 l 56 664 l 56 1026 l 713 1026 l 713 664 z "},"ʰ":{"ha":471,"x_min":42,"x_max":429,"o":"m 142 1028 l 142 817 q 272 861 192 861 q 391 822 353 861 q 429 697 429 782 l 429 443 l 331 443 l 331 675 q 313 757 331 728 q 239 786 294 786 q 142 758 183 786 l 142 443 l 42 443 l 42 1028 l 142 1028 z "},"ʱ":{"ha":475,"x_min":42,"x_max":433,"o":"m 142 829 l 142 817 q 274 861 192 861 q 394 822 356 861 q 433 694 433 782 l 433 443 l 332 443 l 332 672 q 314 756 332 726 q 240 786 296 786 q 142 756 183 786 l 142 443 l 42 443 l 42 857 q 244 1044 42 1044 q 351 1029 303 1044 l 338 960 q 261 969 300 969 q 166 938 190 969 q 142 829 142 906 z "},"ʲ":{"ha":247,"x_min":-28,"x_max":214,"o":"m -11 350 l 22 346 q 85 369 65 346 q 106 449 106 393 l 106 851 l 206 851 l 206 439 q 165 308 206 346 q 40 267 124 269 q -28 272 17 267 l -11 350 m 115 945 q 106 954 115 945 q 97 986 97 963 q 115 1027 97 1010 q 156 1044 132 1044 q 197 1027 179 1044 q 214 986 214 1010 q 197 945 214 963 q 156 928 179 928 q 115 945 132 928 z "},"ʳ":{"ha":265,"x_min":22,"x_max":261,"o":"m 64 851 q 100 824 86 851 l 113 796 l 125 796 q 169 842 146 831 q 226 854 193 854 q 261 853 260 854 l 261 767 l 228 767 q 142 742 165 767 l 142 443 l 42 443 l 42 765 l 22 851 l 64 851 z "},"ʴ":{"ha":265,"x_min":4,"x_max":243,"o":"m 201 446 q 165 474 179 446 l 153 501 l 140 501 q 96 455 119 467 q 39 443 72 443 q 4 444 6 443 l 4 531 l 38 531 q 124 556 100 531 l 124 851 l 224 851 l 224 532 l 243 446 l 201 446 z "},"ʵ":{"ha":265,"x_min":4,"x_max":344,"o":"m 153 425 l 153 503 l 140 503 q 96 456 119 468 q 39 444 72 444 q 4 446 6 444 l 4 532 l 38 532 q 124 557 100 532 l 124 851 l 224 851 l 224 426 q 226 389 224 403 q 242 363 229 375 q 279 351 254 351 q 326 360 304 351 l 344 300 q 268 285 306 285 q 176 320 199 285 q 153 425 153 356 z "},"ʶ":{"ha":418,"x_min":42,"x_max":404,"o":"m 42 851 l 131 851 l 131 692 l 218 692 l 307 851 l 404 851 l 304 685 q 382 565 382 654 q 217 443 382 443 l 42 443 l 42 851 m 217 631 l 131 631 l 131 511 l 217 511 q 288 565 288 511 q 217 631 288 631 z "},"ʷ":{"ha":672,"x_min":4,"x_max":668,"o":"m 325 774 q 308 661 325 707 l 231 443 l 144 443 l 4 851 l 101 851 l 158 671 q 175 575 171 632 l 176 558 l 196 558 q 217 671 199 621 l 283 851 l 389 851 l 457 671 q 475 575 472 633 l 475 558 l 496 558 q 515 671 500 619 l 571 851 l 668 851 l 529 443 l 442 443 l 363 661 q 347 756 349 703 l 346 774 l 325 774 z "},"ʸ":{"ha":388,"x_min":4,"x_max":383,"o":"m 214 642 l 296 851 l 383 851 l 167 276 l 63 276 l 143 460 l 4 851 l 92 851 l 169 642 q 181 572 179 615 l 182 556 l 201 556 q 214 642 204 615 z "},"ʹ":{"ha":393,"x_min":28,"x_max":333,"o":"m 318 1013 q 333 971 333 997 q 297 919 333 944 l 82 763 l 28 815 l 263 1065 l 318 1013 z "},"ʺ":{"ha":661,"x_min":13,"x_max":643,"o":"m 344 988 q 297 929 344 950 l 56 815 l 13 878 l 290 1079 l 335 1017 q 344 988 344 1003 m 643 988 q 596 929 643 950 l 354 815 l 311 878 l 589 1079 l 633 1017 q 643 988 643 1003 z "},"ʻ":{"ha":253,"x_min":22,"x_max":232,"o":"m 22 838 q 24 853 22 847 l 43 956 q 119 1078 51 994 l 143 1106 l 232 1063 q 211 1015 226 1049 q 189 967 196 982 q 167 882 169 921 l 161 782 l 74 788 q 22 838 22 792 z "},"ʼ":{"ha":253,"x_min":21,"x_max":231,"o":"m 231 1038 q 229 1022 231 1028 l 210 919 q 133 797 201 881 l 110 769 l 21 813 q 42 860 26 826 q 64 908 57 893 q 86 993 83 954 l 92 1093 l 179 1088 q 231 1038 231 1083 z "},"ʽ":{"ha":253,"x_min":22,"x_max":232,"o":"m 22 1038 q 74 1088 22 1083 l 161 1093 l 167 993 q 183 924 169 954 q 211 860 196 893 q 232 813 226 826 l 143 769 q 43 919 51 876 l 24 1022 q 22 1038 22 1028 z "},"ʾ":{"ha":190,"x_min":21,"x_max":169,"o":"m 21 813 l 21 886 q 68 905 49 886 q 88 953 88 924 q 68 1003 88 983 q 21 1022 49 1022 l 21 1096 q 126 1055 83 1096 q 169 953 169 1014 q 126 852 169 892 q 21 813 83 813 z "},"ʿ":{"ha":190,"x_min":21,"x_max":169,"o":"m 169 888 l 169 814 q 64 853 107 814 q 21 954 21 893 q 64 1056 21 1015 q 169 1097 107 1097 l 169 1024 q 122 1004 142 1024 q 103 955 103 985 q 122 906 103 925 q 169 888 142 888 z "},"ˀ":{"ha":439,"x_min":29,"x_max":397,"o":"m 128 443 l 128 739 l 169 739 q 258 769 224 739 q 293 856 293 799 q 261 944 293 913 q 172 976 229 976 q 54 956 115 976 l 29 1010 q 183 1044 86 1044 q 338 996 279 1044 q 397 859 397 947 q 340 725 397 771 q 226 679 282 679 l 226 443 l 128 443 z "},"ˁ":{"ha":439,"x_min":42,"x_max":410,"o":"m 311 739 l 311 443 l 213 443 l 213 679 q 99 725 157 679 q 42 859 42 771 q 101 996 42 947 q 256 1044 160 1044 q 410 1010 353 1044 l 385 956 q 267 976 324 976 q 178 944 210 976 q 146 856 146 913 q 181 769 146 799 q 269 739 215 739 l 311 739 z "},"˂":{"ha":885,"x_min":107,"x_max":763,"o":"m 422 872 l 763 724 l 733 667 l 107 890 l 107 960 l 733 1183 l 763 1126 l 422 978 q 283 940 367 953 l 256 936 l 256 914 q 422 872 358 900 z "},"˃":{"ha":885,"x_min":121,"x_max":776,"o":"m 121 724 l 461 872 q 600 910 517 897 l 628 914 l 628 936 q 461 978 525 950 l 121 1126 l 150 1183 l 776 960 l 776 890 l 150 667 l 121 724 z "},"˄":{"ha":885,"x_min":100,"x_max":783,"o":"m 726 625 l 522 911 q 461 1054 483 967 l 453 1083 l 431 1083 q 361 911 406 974 l 157 625 l 100 654 l 407 1211 l 476 1211 l 783 654 l 726 625 z "},"˅":{"ha":885,"x_min":100,"x_max":783,"o":"m 522 925 l 726 1211 l 783 1182 l 476 625 l 407 625 l 100 1182 l 157 1211 l 361 925 q 398 854 381 897 q 422 782 415 811 l 429 753 l 451 753 q 522 925 478 863 z "},"ˆ":{"ha":454,"x_min":-12,"x_max":464,"o":"m -12 849 l 161 1054 l 290 1054 l 464 849 l 414 804 l 225 961 l 38 804 l -12 849 z "},"ˇ":{"ha":454,"x_min":-12,"x_max":464,"o":"m 464 1033 l 290 828 l 161 828 l -12 1033 l 38 1078 l 226 921 l 414 1078 l 464 1033 z "},"ˈ":{"ha":264,"x_min":69,"x_max":194,"o":"m 194 640 l 69 640 l 69 1067 l 194 1067 l 194 640 z "},"ˉ":{"ha":436,"x_min":0,"x_max":436,"o":"m 0 885 l 0 981 l 436 981 l 436 885 l 0 885 z "},"ˊ":{"ha":338,"x_min":18,"x_max":350,"o":"m 350 988 q 303 929 350 950 l 61 815 l 18 878 l 296 1079 l 340 1017 q 350 988 350 1003 z "},"ˋ":{"ha":338,"x_min":-14,"x_max":318,"o":"m -14 989 q -4 1018 -14 1004 l 40 1081 l 318 879 l 275 817 l 33 931 q -14 989 -14 951 z "},"ˌ":{"ha":375,"x_min":125,"x_max":250,"o":"m 250 -346 l 125 -346 l 125 81 l 250 81 l 250 -346 z "},"ˍ":{"ha":714,"x_min":139,"x_max":575,"o":"m 139 -194 l 139 -99 l 575 -99 l 575 -194 l 139 -194 z "},"ˎ":{"ha":338,"x_min":-14,"x_max":318,"o":"m -14 -165 q -4 -136 -14 -150 l 40 -74 l 318 -275 l 275 -337 l 33 -224 q -14 -165 -14 -203 z "},"ˏ":{"ha":338,"x_min":18,"x_max":350,"o":"m 350 -167 q 303 -225 350 -204 l 61 -339 l 18 -276 l 296 -75 l 340 -137 q 350 -167 350 -151 z "},"ː":{"ha":347,"x_min":21,"x_max":326,"o":"m 174 447 l 21 717 l 326 717 l 174 447 m 174 269 l 326 0 l 21 0 l 174 269 z "},"ˑ":{"ha":347,"x_min":21,"x_max":326,"o":"m 174 447 l 21 717 l 326 717 l 174 447 z "},"˒":{"ha":190,"x_min":21,"x_max":169,"o":"m 21 217 l 21 290 q 68 309 49 290 q 88 358 88 328 q 68 407 88 388 q 21 426 49 426 l 21 500 q 126 459 83 500 q 169 357 169 418 q 126 256 169 296 q 21 217 83 217 z "},"˓":{"ha":190,"x_min":21,"x_max":169,"o":"m 169 290 l 169 217 q 64 256 107 217 q 21 357 21 296 q 64 459 21 418 q 169 500 107 500 l 169 426 q 122 407 142 426 q 103 358 103 388 q 122 309 103 328 q 169 290 142 290 z "},"˔":{"ha":356,"x_min":58,"x_max":372,"o":"m 174 501 l 257 501 l 257 374 l 372 374 l 372 290 l 58 290 l 58 374 l 174 374 l 174 501 z "},"˕":{"ha":356,"x_min":57,"x_max":371,"o":"m 256 250 l 172 250 l 172 378 l 57 378 l 57 461 l 371 461 l 371 378 l 256 378 l 256 250 z "},"˖":{"ha":381,"x_min":57,"x_max":396,"o":"m 396 400 l 396 317 l 268 317 l 268 201 l 185 201 l 185 317 l 57 317 l 57 400 l 185 400 l 185 515 l 268 515 l 268 400 l 396 400 z "},"˗":{"ha":408,"x_min":21,"x_max":388,"o":"m 388 401 l 388 318 l 21 318 l 21 401 l 388 401 z "},"˘":{"ha":561,"x_min":28,"x_max":533,"o":"m 533 1044 q 281 840 533 840 q 28 1044 28 840 l 107 1057 q 155 955 117 981 q 281 929 193 929 q 406 955 368 929 q 454 1057 444 981 l 533 1044 z "},"˙":{"ha":253,"x_min":28,"x_max":225,"o":"m 57 865 q 42 880 57 865 q 28 935 28 894 q 57 1004 28 975 q 126 1033 86 1033 q 196 1004 167 1033 q 225 935 225 975 q 196 865 225 894 q 126 836 167 836 q 57 865 86 836 z "},"˚":{"ha":356,"x_min":28,"x_max":328,"o":"m 71 828 q 49 848 71 828 q 28 929 28 868 q 71 1031 28 990 q 176 1072 114 1072 q 283 1031 239 1072 q 328 929 328 990 q 283 828 328 868 q 176 789 239 789 q 71 828 114 789 m 177 999 q 163 999 177 999 q 129 979 149 999 q 110 930 110 960 q 129 881 110 900 q 177 863 149 863 q 226 881 206 863 q 246 930 246 900 q 226 979 246 960 q 177 999 206 999 z "},"˛":{"ha":792,"x_min":349,"x_max":631,"o":"m 442 -164 q 461 -212 442 -194 q 513 -229 481 -229 q 575 -210 546 -229 l 615 -272 q 492 -306 558 -306 q 388 -265 426 -306 q 349 -162 349 -225 q 403 -44 349 -100 q 569 76 457 11 l 631 18 q 495 -66 549 -18 q 442 -164 442 -114 z "},"˜":{"ha":618,"x_min":57,"x_max":561,"o":"m 401 853 q 299 881 356 853 q 215 910 242 910 q 172 898 188 910 q 133 856 156 886 l 57 906 q 215 1014 113 1014 q 319 985 260 1014 q 400 957 378 957 q 483 1008 461 957 l 561 960 q 401 853 508 853 z "},"˝":{"ha":613,"x_min":28,"x_max":567,"o":"m 301 1085 q 319 1042 319 1069 q 289 989 319 1015 l 86 815 l 28 864 l 242 1132 l 301 1085 m 549 1085 q 567 1042 567 1069 q 536 989 567 1015 l 333 815 l 275 864 l 489 1132 l 549 1085 z "},"˞":{"ha":175,"x_min":-197,"x_max":222,"o":"m 111 469 q 160 547 160 469 l 222 538 q 108 410 222 410 q 31 438 64 410 q -35 526 -1 467 q -168 443 -94 478 l -197 499 q -19 626 -89 551 q 40 514 6 558 q 111 469 74 469 z "},"˟":{"ha":340,"x_min":57,"x_max":356,"o":"m 356 826 l 296 768 l 206 858 l 117 768 l 57 828 l 147 917 l 57 1007 l 115 1067 l 206 976 l 297 1067 l 356 1008 l 265 917 l 356 826 z "},"ˠ":{"ha":464,"x_min":4,"x_max":460,"o":"m 275 508 q 353 365 353 407 q 321 297 353 324 q 231 269 289 269 q 142 297 174 269 q 111 372 111 324 q 189 507 111 419 q 122 621 143 579 l 4 851 l 110 851 l 194 678 q 222 596 214 642 l 225 581 l 238 581 q 268 678 247 638 l 354 851 l 460 851 l 342 621 l 275 508 m 186 378 q 186 367 186 378 q 201 347 186 356 q 231 339 217 339 q 260 347 246 339 q 274 374 274 356 q 231 457 274 408 q 186 378 186 400 z "},"ˡ":{"ha":183,"x_min":42,"x_max":142,"o":"m 142 1028 l 142 443 l 42 443 l 42 1028 l 142 1028 z "},"ˢ":{"ha":360,"x_min":14,"x_max":346,"o":"m 346 558 q 179 433 346 433 q 14 469 101 433 l 40 526 q 158 494 110 494 q 228 506 207 494 q 249 547 249 517 q 215 596 249 578 q 142 624 182 614 q 68 663 101 633 q 35 744 35 693 q 81 828 35 796 q 193 861 128 861 q 335 835 258 861 l 315 776 q 190 800 256 800 q 125 750 125 800 q 236 675 125 710 q 311 631 276 661 q 346 558 346 601 z "},"ˣ":{"ha":458,"x_min":3,"x_max":456,"o":"m 349 443 l 281 542 l 238 610 l 221 610 q 179 542 207 582 l 110 443 l 3 443 l 169 661 l 26 851 l 131 851 l 186 772 l 221 713 l 238 713 q 272 772 253 743 l 329 851 l 433 851 l 289 661 l 456 443 l 349 443 z "},"ˤ":{"ha":342,"x_min":28,"x_max":338,"o":"m 272 656 l 272 443 l 174 443 l 174 596 q 77 634 126 596 q 28 743 28 672 q 80 860 28 814 q 213 906 132 906 q 338 871 294 906 l 313 817 q 222 838 264 838 q 156 813 179 838 q 132 745 132 789 q 160 678 132 701 q 231 656 189 656 l 272 656 z "},"˥":{"ha":614,"x_min":56,"x_max":406,"o":"m 56 939 l 56 1028 l 406 1028 l 406 0 l 297 0 l 297 939 l 56 939 z "},"˦":{"ha":614,"x_min":56,"x_max":406,"o":"m 297 1028 l 406 1028 l 406 0 l 297 0 l 297 733 l 56 733 l 56 822 l 297 822 l 297 1028 z "},"˧":{"ha":614,"x_min":56,"x_max":406,"o":"m 56 468 l 56 557 l 297 557 l 297 1028 l 406 1028 l 406 0 l 297 0 l 297 468 l 56 468 z "},"˨":{"ha":614,"x_min":56,"x_max":406,"o":"m 56 204 l 56 293 l 297 293 l 297 1028 l 406 1028 l 406 0 l 297 0 l 297 204 l 56 204 z "},"˩":{"ha":614,"x_min":56,"x_max":406,"o":"m 56 0 l 56 89 l 297 89 l 297 1028 l 406 1028 l 406 0 l 56 0 z "},"˪":{"ha":614,"x_min":208,"x_max":558,"o":"m 558 200 l 558 111 l 208 111 l 208 533 l 297 533 l 297 200 l 558 200 z "},"˫":{"ha":594,"x_min":208,"x_max":539,"o":"m 208 115 l 208 533 l 297 533 l 297 368 l 539 368 l 539 281 l 297 281 l 297 115 l 208 115 z "},"ˬ":{"ha":496,"x_min":21,"x_max":475,"o":"m 186 -289 l 21 -93 l 63 -54 l 247 -204 l 433 -54 l 475 -93 l 310 -289 l 186 -289 z "},"˭":{"ha":575,"x_min":69,"x_max":506,"o":"m 69 768 l 69 856 l 506 856 l 506 768 l 69 768 m 69 629 l 69 717 l 506 717 l 506 629 l 69 629 z "},"ˮ":{"ha":653,"x_min":72,"x_max":525,"o":"m 382 694 l 394 858 q 386 932 394 899 l 353 1047 l 433 1071 q 464 1075 446 1075 q 497 1058 482 1075 q 514 1015 511 1040 l 524 904 q 525 873 525 889 q 514 807 525 857 q 492 721 503 757 l 481 685 l 382 694 m 101 694 l 114 858 q 106 932 114 899 l 72 1047 l 153 1071 q 183 1075 165 1075 q 216 1058 201 1075 q 233 1015 231 1040 l 243 904 q 244 873 244 889 q 233 807 244 857 q 211 721 222 757 l 200 685 l 101 694 z "},"˳":{"ha":342,"x_min":21,"x_max":321,"o":"m 64 -322 q 42 -302 64 -322 q 21 -221 21 -282 q 64 -119 21 -160 q 169 -78 107 -78 q 276 -119 232 -78 q 321 -221 321 -160 q 276 -322 321 -282 q 169 -361 232 -361 q 64 -322 107 -361 m 170 -151 q 156 -151 170 -151 q 122 -171 142 -151 q 103 -220 103 -190 q 122 -269 103 -250 q 170 -287 142 -287 q 219 -269 199 -287 q 239 -220 239 -250 q 219 -171 239 -190 q 170 -151 199 -151 z "},"˴":{"ha":385,"x_min":43,"x_max":317,"o":"m 78 596 q 43 645 43 619 q 57 683 43 671 l 110 735 l 317 514 l 264 464 l 78 596 z "},"˵":{"ha":0,"x_min":0,"x_max":0,"o":""},"˶":{"ha":640,"x_min":0,"x_max":0,"o":""},"˷":{"ha":507,"x_min":-640,"x_max":-161,"o":"m -312 -262 q -410 -235 -356 -262 q -490 -208 -465 -208 q -532 -220 -515 -208 q -568 -260 -549 -232 l -640 -217 q -490 -117 -592 -117 q -392 -144 -447 -117 q -317 -171 -337 -171 q -281 -163 -297 -171 q -256 -147 -264 -156 q -235 -121 -247 -137 l -161 -165 q -312 -262 -208 -262 z "},"˸":{"ha":375,"x_min":97,"x_max":278,"o":"m 124 756 q 110 769 124 756 q 97 819 97 782 q 124 883 97 857 q 188 910 150 910 q 251 883 225 910 q 278 819 278 857 q 251 756 278 782 q 188 729 225 729 q 124 756 150 729 m 124 251 q 110 265 124 251 q 97 315 97 278 q 124 379 97 353 q 188 406 150 406 q 251 379 225 406 q 278 315 278 353 q 251 251 278 278 q 188 225 225 225 q 124 251 150 225 z "},"˹":{"ha":424,"x_min":28,"x_max":396,"o":"m 396 843 l 396 768 l 103 768 l 103 385 l 28 385 l 28 843 l 396 843 z "},"˺":{"ha":424,"x_min":28,"x_max":396,"o":"m 28 768 l 28 843 l 396 843 l 396 385 l 321 385 l 321 768 l 28 768 z "},"˻":{"ha":424,"x_min":28,"x_max":396,"o":"m 396 -140 l 396 -215 l 28 -215 l 28 243 l 103 243 l 103 -140 l 396 -140 z "},"˼":{"ha":424,"x_min":28,"x_max":396,"o":"m 28 -215 l 28 -140 l 321 -140 l 321 243 l 396 243 l 396 -215 l 28 -215 z "},"˽":{"ha":775,"x_min":28,"x_max":747,"o":"m 747 -201 l 28 -201 l 28 22 l 103 22 l 103 -121 l 671 -121 l 671 22 l 747 22 l 747 -201 z "},"˾":{"ha":1110,"x_min":29,"x_max":1038,"o":"m 1038 -121 l 1038 -237 l 29 -237 l 29 157 l 132 157 l 132 -121 l 1038 -121 z "},"˿":{"ha":893,"x_min":0,"x_max":893,"o":"m 172 -303 l 172 -312 q 297 -349 247 -317 l 392 -410 l 367 -457 l 0 -292 l 0 -239 l 367 -74 l 392 -121 l 297 -182 q 192 -217 253 -210 l 172 -218 l 172 -229 l 893 -229 l 893 -303 l 172 -303 z "},"̀":{"ha":0,"x_min":-600,"x_max":-268,"o":"m -600 989 q -590 1018 -600 1004 l -546 1081 l -268 879 l -311 817 l -553 931 q -600 989 -600 951 z "},"́":{"ha":0,"x_min":-572,"x_max":-240,"o":"m -240 988 q -287 929 -240 950 l -529 815 l -572 878 l -294 1079 l -250 1017 q -240 988 -240 1003 z "},"̃":{"ha":0,"x_min":-658,"x_max":-154,"o":"m -314 853 q -417 881 -360 853 q -501 910 -474 910 q -544 898 -528 910 q -582 856 -560 886 l -658 906 q -500 1014 -603 1014 q -397 985 -456 1014 q -315 957 -337 957 q -232 1008 -254 957 l -154 960 q -314 853 -207 853 z "},"̄":{"ha":0,"x_min":-624,"x_max":-187,"o":"m -624 790 l -624 886 l -187 886 l -187 790 l -624 790 z "},"̅":{"ha":0,"x_min":-693,"x_max":-118,"o":"m -693 953 l -693 1040 l -118 1040 l -118 953 l -693 953 z "},"̆":{"ha":0,"x_min":-658,"x_max":-153,"o":"m -153 1044 q -406 840 -153 840 q -658 1044 -658 840 l -579 1057 q -531 955 -569 981 q -406 929 -493 929 q -280 955 -318 929 q -232 1057 -242 981 l -153 1044 z "},"̇":{"ha":0,"x_min":-504,"x_max":-307,"o":"m -475 865 q -490 880 -475 865 q -504 935 -504 894 q -475 1004 -504 975 q -406 1033 -446 1033 q -336 1004 -365 1033 q -307 935 -307 975 q -336 865 -307 894 q -406 836 -365 836 q -475 865 -446 836 z "},"̈":{"ha":0,"x_min":-637,"x_max":-174,"o":"m -612 869 q -625 881 -612 869 q -637 928 -637 893 q -612 987 -637 963 q -553 1011 -587 1011 q -495 987 -519 1011 q -471 928 -471 963 q -495 869 -471 893 q -553 844 -519 844 q -612 869 -587 844 m -199 987 q -186 975 -199 987 q -174 928 -174 963 q -199 869 -174 893 q -258 844 -224 844 q -316 869 -292 844 q -340 928 -340 893 q -316 987 -340 963 q -258 1011 -292 1011 q -199 987 -224 1011 z "},"̉":{"ha":0,"x_min":-468,"x_max":-269,"o":"m -443 717 l -443 838 l -407 838 q -361 856 -378 838 q -344 902 -344 874 q -361 945 -344 931 q -405 960 -378 960 q -451 950 -432 960 l -468 996 q -387 1017 -436 1017 q -304 988 -339 1017 q -269 901 -269 958 q -302 815 -269 843 q -372 786 -335 786 l -372 717 l -443 717 z "},"̊":{"ha":0,"x_min":-556,"x_max":-256,"o":"m -512 828 q -534 848 -512 828 q -556 929 -556 868 q -512 1031 -556 990 q -407 1072 -469 1072 q -300 1031 -344 1072 q -256 929 -256 990 q -300 828 -256 868 q -407 789 -344 789 q -512 828 -469 789 m -406 999 q -420 999 -406 999 q -454 979 -435 999 q -474 930 -474 960 q -454 881 -474 900 q -406 863 -435 863 q -358 881 -378 863 q -337 930 -337 900 q -358 979 -337 960 q -406 999 -378 999 z "},"̋":{"ha":0,"x_min":-706,"x_max":-106,"o":"m -106 988 q -153 929 -106 950 l -394 815 l -437 878 l -160 1079 l -115 1017 q -106 988 -106 1003 m -374 988 q -421 929 -374 950 l -662 815 l -706 878 l -428 1079 l -383 1017 q -374 988 -374 1003 z "},"̌":{"ha":0,"x_min":-644,"x_max":-168,"o":"m -168 1033 l -342 828 l -471 828 l -644 1033 l -594 1078 l -406 921 l -218 1078 l -168 1033 z "},"̍":{"ha":0,"x_min":-461,"x_max":-350,"o":"m -350 814 l -461 814 l -461 1065 l -350 1065 l -350 814 z "},"̎":{"ha":0,"x_min":-572,"x_max":-239,"o":"m -461 814 l -572 814 l -572 1065 l -461 1065 l -461 814 m -239 814 l -350 814 l -350 1065 l -239 1065 l -239 814 z "},"̏":{"ha":0,"x_min":-707,"x_max":-107,"o":"m -439 989 q -429 1018 -439 1004 l -385 1081 l -107 879 l -150 817 l -392 931 q -439 989 -439 951 m -707 989 q -697 1018 -707 1004 l -653 1081 l -375 879 l -418 817 l -660 931 q -707 989 -707 951 z "},"̐":{"ha":0,"x_min":-658,"x_max":-153,"o":"m -475 1007 q -490 1022 -475 1007 q -504 1076 -504 1036 q -475 1146 -504 1117 q -406 1175 -446 1175 q -336 1146 -365 1175 q -307 1076 -307 1117 q -336 1007 -307 1036 q -406 978 -365 978 q -475 1007 -446 978 m -153 1018 q -406 814 -153 814 q -658 1018 -658 814 l -579 1031 q -531 928 -569 954 q -406 903 -493 903 q -280 928 -318 903 q -232 1031 -242 954 l -153 1018 z "},"̑":{"ha":0,"x_min":-696,"x_max":-190,"o":"m -317 927 q -336 940 -317 927 q -443 953 -356 953 q -569 927 -531 953 q -617 825 -607 901 l -696 838 q -443 1042 -696 1042 q -190 838 -190 1042 l -269 825 q -317 927 -279 901 z "},"̒":{"ha":0,"x_min":-511,"x_max":-301,"o":"m -511 838 q -510 853 -511 847 l -490 956 q -414 1078 -482 994 l -390 1106 l -301 1063 q -322 1015 -307 1049 q -344 967 -337 982 q -367 882 -364 921 l -372 782 l -460 788 q -511 838 -511 792 z "},"̓":{"ha":0,"x_min":-511,"x_max":-301,"o":"m -301 1038 q -303 1022 -301 1028 l -322 919 q -400 797 -331 881 l -422 769 l -511 813 q -490 860 -506 826 q -468 908 -475 893 q -446 993 -449 954 l -440 1093 l -353 1088 q -301 1038 -301 1083 z "},"̔":{"ha":0,"x_min":-511,"x_max":-301,"o":"m -511 1038 q -460 1088 -511 1083 l -372 1093 l -367 993 q -351 924 -364 954 q -322 860 -337 893 q -301 813 -307 826 l -390 769 q -490 919 -482 876 l -510 1022 q -511 1038 -511 1028 z "},"̕":{"ha":211,"x_min":0,"x_max":210,"o":"m 210 1038 q 208 1022 210 1028 l 189 919 q 111 797 181 881 l 89 769 l 0 813 q 21 860 6 826 q 43 908 36 893 q 65 993 63 954 l 71 1093 l 158 1088 q 210 1038 210 1083 z "},"̖":{"ha":0,"x_min":-572,"x_max":-240,"o":"m -572 -167 q -562 -137 -572 -151 l -518 -75 l -240 -276 l -283 -339 l -525 -225 q -572 -167 -572 -204 z "},"̗":{"ha":0,"x_min":-572,"x_max":-240,"o":"m -240 -167 q -287 -225 -240 -204 l -529 -339 l -572 -276 l -294 -75 l -250 -137 q -240 -167 -240 -151 z "},"̘":{"ha":0,"x_min":-533,"x_max":-322,"o":"m -533 -271 l -533 -187 l -406 -187 l -406 -72 l -322 -72 l -322 -386 l -406 -386 l -406 -271 l -533 -271 z "},"̙":{"ha":0,"x_min":-512,"x_max":-301,"o":"m -301 -187 l -301 -271 l -429 -271 l -429 -386 l -512 -386 l -512 -72 l -429 -72 l -429 -187 l -301 -187 z "},"̚":{"ha":0,"x_min":-312,"x_max":-4,"o":"m -312 944 l -312 1028 l -4 1028 l -4 769 l -87 769 l -87 944 l -312 944 z "},"̛":{"ha":75,"x_min":-139,"x_max":103,"o":"m -22 775 l 68 775 q 103 743 103 775 q 35 563 103 633 q -139 461 -32 492 l -139 563 q -22 775 -22 594 z "},"̜":{"ha":0,"x_min":-492,"x_max":-343,"o":"m -343 -267 l -343 -340 q -449 -301 -406 -340 q -492 -200 -492 -261 q -449 -98 -492 -139 q -343 -57 -406 -57 l -343 -131 q -390 -150 -371 -131 q -410 -199 -410 -169 q -390 -248 -410 -229 q -343 -267 -371 -267 z "},"̝":{"ha":0,"x_min":-562,"x_max":-249,"o":"m -447 -110 l -364 -110 l -364 -237 l -249 -237 l -249 -321 l -562 -321 l -562 -237 l -447 -237 l -447 -110 z "},"̞":{"ha":0,"x_min":-562,"x_max":-249,"o":"m -364 -321 l -447 -321 l -447 -193 l -562 -193 l -562 -110 l -249 -110 l -249 -193 l -364 -193 l -364 -321 z "},"̟":{"ha":0,"x_min":-575,"x_max":-236,"o":"m -236 -187 l -236 -271 l -364 -271 l -364 -386 l -447 -386 l -447 -271 l -575 -271 l -575 -187 l -447 -187 l -447 -72 l -364 -72 l -364 -187 l -236 -187 z "},"̠":{"ha":0,"x_min":-575,"x_max":-236,"o":"m -236 -178 l -236 -261 l -575 -261 l -575 -178 l -236 -178 z "},"̡":{"ha":0,"x_min":-246,"x_max":64,"o":"m -139 -126 q -39 -215 -139 -215 q 38 -203 6 -215 l 64 -283 q -46 -306 11 -306 q -194 -256 -143 -306 q -246 -126 -246 -207 q -243 -75 -246 -103 l -232 119 l -126 119 l -136 -74 q -139 -126 -139 -104 z "},"̢":{"ha":0,"x_min":-443,"x_max":-125,"o":"m -333 -306 q -443 -283 -390 -306 l -417 -203 q -337 -215 -385 -215 q -266 -196 -289 -215 q -240 -114 -243 -176 l -231 119 l -125 119 l -133 -114 q -333 -306 -140 -306 z "},"̣":{"ha":0,"x_min":-504,"x_max":-307,"o":"m -475 -262 q -490 -248 -475 -262 q -504 -193 -504 -233 q -475 -124 -504 -153 q -406 -94 -446 -94 q -336 -124 -365 -94 q -307 -193 -307 -153 q -336 -262 -307 -233 q -406 -292 -365 -292 q -475 -262 -446 -292 z "},"̤":{"ha":0,"x_min":-681,"x_max":-203,"o":"m -656 -249 q -668 -237 -656 -249 q -681 -190 -681 -225 q -656 -131 -681 -156 q -597 -107 -631 -107 q -538 -131 -562 -107 q -514 -190 -514 -156 q -538 -249 -514 -225 q -597 -274 -562 -274 q -656 -249 -631 -274 m -228 -131 q -215 -143 -228 -131 q -203 -190 -203 -156 q -228 -249 -203 -225 q -287 -274 -253 -274 q -345 -249 -321 -274 q -369 -190 -369 -225 q -345 -131 -369 -156 q -287 -107 -321 -107 q -228 -131 -253 -107 z "},"̥":{"ha":0,"x_min":-590,"x_max":-290,"o":"m -547 -301 q -569 -281 -547 -301 q -590 -200 -590 -261 q -547 -98 -590 -139 q -442 -57 -504 -57 q -335 -98 -379 -57 q -290 -200 -290 -139 q -335 -301 -290 -261 q -442 -340 -379 -340 q -547 -301 -504 -340 m -441 -131 q -455 -131 -441 -131 q -489 -150 -469 -131 q -508 -199 -508 -169 q -489 -248 -508 -229 q -441 -267 -469 -267 q -392 -248 -412 -267 q -372 -199 -372 -229 q -392 -150 -372 -169 q -441 -131 -412 -131 z "},"̦":{"ha":0,"x_min":-532,"x_max":-322,"o":"m -322 -183 q -324 -199 -322 -193 l -343 -301 q -419 -424 -351 -340 l -443 -451 l -532 -408 q -511 -361 -526 -394 q -489 -311 -496 -328 q -467 -228 -469 -267 l -461 -128 l -374 -133 q -322 -183 -322 -137 z "},"̧":{"ha":0,"x_min":-508,"x_max":-258,"o":"m -419 -246 q -344 -179 -344 -246 q -376 -133 -344 -146 q -467 -117 -407 -121 l -437 6 l -362 6 l -382 -67 q -291 -106 -324 -75 q -258 -181 -258 -137 q -414 -306 -258 -306 q -508 -292 -467 -306 l -494 -236 q -419 -246 -458 -246 z "},"̨":{"ha":0,"x_min":-517,"x_max":-235,"o":"m -424 -164 q -404 -212 -424 -194 q -352 -229 -385 -229 q -290 -210 -319 -229 l -250 -272 q -373 -306 -307 -306 q -478 -265 -439 -306 q -517 -162 -517 -225 q -462 -44 -517 -100 q -296 76 -408 11 l -235 18 q -370 -66 -317 -18 q -424 -164 -424 -114 z "},"̩":{"ha":0,"x_min":-461,"x_max":-350,"o":"m -350 -326 l -461 -326 l -461 -75 l -350 -75 l -350 -326 z "},"̪":{"ha":0,"x_min":-611,"x_max":-200,"o":"m -611 -118 l -200 -118 l -200 -307 l -283 -307 l -283 -201 l -528 -201 l -528 -307 l -611 -307 l -611 -118 z "},"̫":{"ha":0,"x_min":-654,"x_max":-157,"o":"m -294 -283 q -406 -247 -369 -283 q -515 -283 -442 -283 q -654 -139 -654 -283 l -599 -129 q -576 -200 -593 -183 q -517 -217 -558 -217 q -457 -202 -475 -217 q -433 -140 -439 -187 l -376 -140 q -353 -202 -371 -187 q -293 -217 -335 -217 q -233 -200 -251 -217 q -212 -129 -215 -183 l -157 -139 q -294 -283 -157 -283 z "},"̬":{"ha":0,"x_min":-668,"x_max":-214,"o":"m -503 -289 l -668 -93 l -626 -54 l -442 -204 l -256 -54 l -214 -93 l -379 -289 l -503 -289 z "},"̭":{"ha":0,"x_min":-669,"x_max":-215,"o":"m -669 -287 l -504 -92 l -381 -92 l -215 -287 l -257 -326 l -443 -176 l -628 -326 l -669 -287 z "},"̮":{"ha":0,"x_min":-658,"x_max":-153,"o":"m -153 -101 q -406 -306 -153 -306 q -658 -101 -658 -306 l -579 -89 q -531 -191 -569 -165 q -406 -217 -493 -217 q -280 -191 -318 -217 q -232 -89 -242 -165 l -153 -101 z "},"̯":{"ha":0,"x_min":-694,"x_max":-189,"o":"m -316 -203 q -335 -191 -316 -203 q -442 -178 -354 -178 q -567 -203 -529 -178 q -615 -306 -606 -229 l -694 -293 q -442 -89 -694 -89 q -189 -293 -189 -89 l -268 -306 q -316 -203 -278 -229 z "},"̰":{"ha":0,"x_min":-682,"x_max":-203,"o":"m -354 -262 q -452 -235 -397 -262 q -532 -208 -507 -208 q -574 -220 -557 -208 q -610 -260 -590 -232 l -682 -217 q -532 -117 -633 -117 q -434 -144 -489 -117 q -359 -171 -379 -171 q -322 -163 -339 -171 q -297 -147 -306 -156 q -276 -121 -289 -137 l -203 -165 q -354 -262 -250 -262 z "},"̱":{"ha":0,"x_min":-624,"x_max":-187,"o":"m -624 -236 l -624 -140 l -187 -140 l -187 -236 l -624 -236 z "},"̲":{"ha":0,"x_min":-693,"x_max":-118,"o":"m -693 -214 l -693 -126 l -118 -126 l -118 -214 l -693 -214 z "},"̳":{"ha":0,"x_min":-728,"x_max":-14,"o":"m -728 -214 l -728 -126 l -14 -126 l -14 -214 l -728 -214 m -728 -353 l -728 -265 l -14 -265 l -14 -353 l -728 -353 z "},"̴":{"ha":0,"x_min":-671,"x_max":-136,"o":"m -306 285 q -415 313 -354 285 q -503 342 -475 342 q -549 330 -532 342 q -589 288 -565 318 l -671 338 q -503 446 -614 446 q -394 417 -456 446 q -307 389 -332 389 q -219 440 -242 389 l -136 392 q -306 285 -190 285 z "},"̵":{"ha":0,"x_min":-624,"x_max":-187,"o":"m -624 322 l -624 410 l -187 410 l -187 322 l -624 322 z "},"̶":{"ha":0,"x_min":-804,"x_max":-7,"o":"m -804 322 l -804 410 l -7 410 l -7 322 l -804 322 z "},"̷":{"ha":0,"x_min":-578,"x_max":-233,"o":"m -460 -11 l -578 31 l -351 731 l -233 689 l -460 -11 z "},"̸":{"ha":0,"x_min":-685,"x_max":-126,"o":"m -553 -289 l -685 -289 l -258 1028 l -126 1028 l -553 -289 z "},"̹":{"ha":0,"x_min":-457,"x_max":-308,"o":"m -457 -340 l -457 -267 q -410 -248 -429 -267 q -390 -199 -390 -229 q -410 -150 -390 -169 q -457 -131 -429 -131 l -457 -57 q -351 -98 -394 -57 q -308 -200 -308 -139 q -351 -301 -308 -261 q -457 -340 -394 -340 z "},"̺":{"ha":0,"x_min":-611,"x_max":-200,"o":"m -200 -306 l -611 -306 l -611 -117 l -528 -117 l -528 -222 l -283 -222 l -283 -117 l -200 -117 l -200 -306 z "},"̻":{"ha":0,"x_min":-611,"x_max":-200,"o":"m -611 -54 l -200 -54 l -200 -326 l -611 -326 l -611 -54 m -528 -137 l -528 -243 l -283 -243 l -283 -137 l -528 -137 z "},"̼":{"ha":0,"x_min":-696,"x_max":-115,"o":"m -282 -129 q -115 -193 -165 -129 l -160 -229 q -268 -193 -199 -193 q -378 -286 -361 -193 l -433 -286 q -543 -193 -450 -193 q -651 -229 -612 -193 l -696 -193 q -529 -129 -646 -129 q -407 -179 -450 -129 q -282 -129 -364 -129 z "},"̽":{"ha":0,"x_min":-519,"x_max":-221,"o":"m -221 849 l -281 790 l -371 881 l -460 790 l -519 850 l -429 939 l -519 1029 l -461 1089 l -371 999 l -279 1089 l -221 1031 l -311 939 l -221 849 z "},"̾":{"ha":0,"x_min":-479,"x_max":-333,"o":"m -479 1047 q -382 1185 -479 1142 l -337 1111 q -364 1094 -356 1100 q -387 1049 -387 1074 q -360 979 -387 1025 q -333 897 -333 933 q -433 761 -333 806 l -476 833 q -450 851 -457 846 q -425 904 -425 869 q -452 965 -425 919 q -479 1047 -479 1011 z "},"̿":{"ha":0,"x_min":-764,"x_max":-50,"o":"m -764 953 l -764 1040 l -50 1040 l -50 953 l -764 953 m -764 814 l -764 901 l -50 901 l -50 814 l -764 814 z "},"̓":{"ha":0,"x_min":-547,"x_max":-299,"o":"m -299 1081 q -300 1061 -299 1068 l -322 943 q -356 877 -326 921 q -411 801 -385 833 l -437 769 l -547 819 l -522 872 q -472 1028 -475 978 l -465 1143 l -357 1138 q -299 1081 -299 1133 z "},"̈́":{"ha":810,"x_min":96,"x_max":715,"o":"m 511 1019 q 529 978 529 1003 q 499 929 529 953 l 340 801 l 283 847 l 454 1065 l 511 1019 m 121 834 q 108 846 121 834 q 96 893 96 858 q 121 952 96 928 q 180 976 146 976 q 238 952 214 976 q 263 893 263 928 q 238 834 263 858 q 180 810 214 810 q 121 834 146 810 m 690 951 q 703 939 690 951 q 715 892 715 926 q 690 833 715 857 q 631 808 665 808 q 573 833 597 808 q 549 892 549 857 q 573 951 549 926 q 631 975 597 975 q 690 951 665 975 z "},"ͅ":{"ha":0,"x_min":-472,"x_max":-246,"o":"m -472 -72 l -347 -72 l -347 -153 q -306 -221 -347 -221 l -265 -215 l -246 -292 q -319 -306 -278 -306 q -433 -263 -393 -306 q -472 -154 -472 -221 l -472 -72 z "},"͆":{"ha":0,"x_min":-649,"x_max":-237,"o":"m -649 1065 l -237 1065 l -237 876 l -321 876 l -321 982 l -565 982 l -565 876 l -649 876 l -649 1065 z "},"͇":{"ha":0,"x_min":-624,"x_max":-187,"o":"m -624 -187 l -624 -100 l -187 -100 l -187 -187 l -624 -187 m -624 -326 l -624 -239 l -187 -239 l -187 -326 l -624 -326 z "},"͈":{"ha":0,"x_min":-572,"x_max":-239,"o":"m -461 -325 l -572 -325 l -572 -74 l -461 -74 l -461 -325 m -239 -325 l -350 -325 l -350 -74 l -239 -74 l -239 -325 z "},"͉":{"ha":0,"x_min":-531,"x_max":-319,"o":"m -531 -194 l -531 -111 l -319 -111 l -319 -342 l -403 -342 l -403 -194 l -531 -194 z "},"͊":{"ha":0,"x_min":-674,"x_max":-139,"o":"m -467 926 q -508 933 -487 933 q -549 926 -529 933 q -576 910 -568 918 q -601 882 -585 901 l -674 925 q -510 1025 -622 1025 q -411 1004 -464 1025 l -332 1114 l -276 1074 l -346 976 q -301 971 -329 971 q -212 1021 -254 971 l -139 976 q -304 879 -189 879 q -401 899 -353 879 l -481 790 l -537 829 l -467 926 z "},"͋":{"ha":0,"x_min":-646,"x_max":-167,"o":"m -473 813 q -482 822 -473 813 q -490 853 -490 831 q -473 892 -490 875 q -433 910 -456 910 q -394 892 -411 910 q -376 853 -376 875 q -394 813 -376 831 q -433 796 -411 796 q -473 813 -456 796 m -318 921 q -416 948 -361 921 q -496 975 -471 975 q -537 963 -521 975 q -574 924 -554 951 l -646 967 q -496 1067 -597 1067 q -398 1040 -453 1067 q -323 1013 -343 1013 q -286 1020 -303 1013 q -261 1037 -269 1028 q -240 1063 -253 1046 l -167 1018 q -318 921 -214 921 m -420 1094 q -429 1102 -420 1094 q -437 1133 -437 1111 q -420 1173 -437 1156 q -381 1190 -403 1190 q -341 1173 -358 1190 q -324 1133 -324 1156 q -341 1094 -324 1111 q -381 1076 -358 1076 q -420 1094 -403 1076 z "},"͌":{"ha":0,"x_min":-646,"x_max":-167,"o":"m -318 949 q -416 976 -361 949 q -496 1003 -471 1003 q -537 992 -521 1003 q -574 951 -553 981 l -646 994 q -496 1094 -597 1094 q -398 1067 -453 1094 q -323 1040 -343 1040 q -286 1048 -303 1040 q -261 1065 -269 1056 q -240 1090 -253 1074 l -167 1046 q -318 949 -214 949 m -318 789 q -416 816 -361 789 q -496 843 -471 843 q -537 832 -521 843 q -574 792 -553 821 l -646 835 q -496 935 -597 935 q -398 908 -453 935 q -323 881 -343 881 q -286 888 -303 881 q -261 905 -269 896 q -240 931 -253 914 l -167 886 q -318 789 -214 789 z "},"͍":{"ha":0,"x_min":-632,"x_max":-179,"o":"m -283 -185 l -528 -185 l -481 -243 l -499 -264 l -632 -174 l -632 -143 l -499 -53 l -481 -74 l -529 -133 l -282 -133 l -331 -74 l -312 -53 l -179 -143 l -179 -174 l -312 -264 l -331 -243 l -283 -185 z "},"͎":{"ha":0,"x_min":-511,"x_max":-300,"o":"m -432 -282 l -432 -162 l -490 -210 l -511 -192 l -421 -58 l -390 -58 l -300 -192 l -321 -210 l -381 -161 l -381 -282 l -432 -282 z "},"͐":{"ha":0,"x_min":-650,"x_max":-161,"o":"m -650 811 l -415 917 q -312 943 -378 935 l -292 946 l -292 968 q -415 994 -369 974 l -650 1100 l -625 1147 l -161 982 l -161 929 l -625 764 l -650 811 z "},"͑":{"ha":0,"x_min":-499,"x_max":-350,"o":"m -350 888 l -350 814 q -456 853 -412 814 q -499 954 -499 893 q -456 1056 -499 1015 q -350 1097 -412 1097 l -350 1024 q -397 1004 -378 1024 q -417 955 -417 985 q -397 906 -417 925 q -350 888 -378 888 z "},"͒":{"ha":0,"x_min":-658,"x_max":-153,"o":"m -475 857 q -490 872 -475 857 q -504 926 -504 886 q -475 996 -504 967 q -406 1025 -446 1025 q -336 996 -365 1025 q -307 926 -307 967 q -336 857 -307 886 q -406 828 -365 828 q -475 857 -446 828 m -280 1047 q -299 1059 -280 1047 q -406 1072 -318 1072 q -531 1047 -493 1072 q -579 944 -569 1021 l -658 957 q -406 1161 -658 1161 q -153 957 -153 1161 l -232 944 q -280 1047 -242 1021 z "},"͓":{"ha":0,"x_min":-556,"x_max":-257,"o":"m -257 -319 l -317 -378 l -407 -287 l -496 -378 l -556 -318 l -465 -229 l -556 -139 l -497 -79 l -407 -169 l -315 -79 l -257 -137 l -347 -229 l -257 -319 z "},"͔":{"ha":0,"x_min":-650,"x_max":-161,"o":"m -396 -281 l -161 -386 l -186 -433 l -650 -268 l -650 -215 l -186 -50 l -161 -97 l -396 -203 q -499 -228 -437 -222 l -519 -231 l -519 -253 q -396 -281 -442 -260 z "},"͕":{"ha":0,"x_min":-650,"x_max":-161,"o":"m -650 -386 l -415 -281 q -312 -254 -378 -262 l -292 -251 l -292 -229 q -415 -203 -369 -224 l -650 -97 l -625 -50 l -161 -215 l -161 -268 l -625 -433 l -650 -386 z "},"͖":{"ha":0,"x_min":-807,"x_max":-4,"o":"m -807 -386 l -600 -281 q -497 -253 -554 -260 l -476 -251 l -476 -229 q -600 -203 -554 -225 l -807 -97 l -782 -50 l -346 -215 l -346 -268 l -782 -433 l -807 -386 m -51 -464 l -157 -285 q -183 -182 -178 -239 l -186 -161 l -208 -161 q -235 -285 -212 -239 l -340 -464 l -387 -439 l -222 -31 l -169 -31 l -4 -439 l -51 -464 z "},"͗":{"ha":0,"x_min":-456,"x_max":-307,"o":"m -456 813 l -456 886 q -408 905 -428 886 q -389 953 -389 924 q -408 1003 -389 983 q -456 1022 -428 1022 l -456 1096 q -350 1055 -393 1096 q -307 953 -307 1014 q -350 852 -307 892 q -456 813 -393 813 z "},"͘":{"ha":0,"x_min":-197,"x_max":0,"o":"m -168 865 q -183 880 -168 865 q -197 935 -197 894 q -168 1004 -197 975 q -99 1033 -139 1033 q -29 1004 -58 1033 q 0 935 0 975 q -29 865 0 894 q -99 836 -58 836 q -168 865 -139 836 z "},"͙":{"ha":0,"x_min":-586,"x_max":-225,"o":"m -228 -203 q -225 -217 -225 -208 q -237 -233 -225 -225 q -264 -244 -249 -242 l -372 -262 l -294 -340 q -278 -373 -278 -360 q -290 -394 -278 -386 l -304 -407 q -326 -412 -311 -412 q -356 -385 -340 -412 l -406 -287 l -457 -386 q -485 -412 -469 -412 q -507 -407 -500 -412 l -522 -396 q -535 -374 -535 -387 q -517 -340 -535 -361 l -440 -264 l -550 -246 q -586 -214 -586 -239 q -585 -206 -586 -208 l -579 -186 q -556 -168 -574 -168 q -525 -174 -537 -168 l -426 -225 l -444 -114 q -446 -103 -446 -108 q -417 -65 -446 -67 l -397 -65 q -368 -103 -368 -65 q -369 -114 -368 -108 l -386 -224 l -286 -174 q -256 -165 -269 -165 q -233 -185 -242 -165 l -228 -203 z "},"͚":{"ha":0,"x_min":-674,"x_max":-136,"o":"m -631 -294 q -652 -275 -631 -294 q -674 -194 -674 -256 q -631 -93 -674 -133 q -519 -53 -587 -53 q -406 -106 -450 -53 q -293 -53 -361 -53 q -181 -93 -225 -53 q -136 -194 -136 -133 q -181 -294 -136 -256 q -293 -333 -225 -333 q -406 -282 -361 -333 q -519 -333 -450 -333 q -631 -294 -587 -333 m -290 -126 q -304 -126 -290 -126 q -339 -145 -318 -126 q -360 -194 -360 -164 q -339 -242 -360 -224 q -290 -260 -318 -260 q -240 -242 -261 -260 q -218 -194 -218 -224 q -240 -145 -218 -164 q -290 -126 -261 -126 m -522 -126 q -536 -126 -522 -126 q -571 -145 -550 -126 q -592 -194 -592 -164 q -571 -242 -592 -224 q -522 -260 -550 -260 q -472 -242 -493 -260 q -450 -194 -450 -224 q -472 -145 -450 -164 q -522 -126 -493 -126 z "},"͛":{"ha":0,"x_min":-549,"x_max":-262,"o":"m -360 913 l -549 913 l -507 1129 l -424 1129 l -451 996 l -262 996 l -304 779 l -387 779 l -360 913 z "},"͜":{"ha":0,"x_min":-722,"x_max":721,"o":"m -354 -169 q -282 -177 -354 -169 q 0 -185 -210 -185 q 353 -169 210 -185 q 547 -141 497 -154 q 681 -97 597 -128 l 721 -162 q 433 -272 600 -239 q -1 -306 265 -306 q -434 -272 -267 -306 q -722 -162 -601 -239 l -682 -97 q -549 -141 -599 -128 q -354 -169 -499 -154 z "},"͝":{"ha":0,"x_min":-722,"x_max":721,"o":"m -354 950 q -282 942 -354 950 q 0 935 -210 935 q 353 950 210 935 q 547 978 497 965 q 681 1022 597 992 l 721 957 q 433 847 600 881 q -1 814 265 814 q -434 847 -267 814 q -722 957 -601 881 l -682 1022 q -549 978 -599 992 q -354 950 -499 965 z "},"͞":{"ha":0,"x_min":-436,"x_max":436,"o":"m -436 907 l -436 994 l 436 994 l 436 907 l -436 907 z "},"͟":{"ha":0,"x_min":-436,"x_max":436,"o":"m -436 -186 l -436 -99 l 436 -99 l 436 -186 l -436 -186 z "},"͠":{"ha":0,"x_min":-739,"x_max":740,"o":"m 740 953 q 603 856 679 883 q 386 828 526 828 q 89 855 246 828 q -193 909 -68 882 q -401 936 -318 936 q -535 925 -485 936 q -606 903 -585 914 q -667 867 -628 892 l -739 914 q -422 1042 -624 1042 q -89 1015 -246 1042 q 193 960 68 988 q 415 933 318 933 q 667 1001 588 933 l 740 953 z "},"͡":{"ha":0,"x_min":-722,"x_max":721,"o":"m 353 904 q 282 912 353 904 q 0 919 210 919 q -354 904 -210 919 q -549 876 -499 889 q -682 832 -599 863 l -722 897 q -434 1007 -601 974 q -1 1040 -267 1040 q 433 1007 265 1040 q 721 897 600 974 l 681 832 q 547 876 597 863 q 353 904 497 889 z "},"͢":{"ha":0,"x_min":-503,"x_max":501,"o":"m 329 -285 l -503 -285 l -503 -211 l 329 -211 l 329 -200 q 204 -164 254 -196 l 110 -103 l 135 -56 l 501 -221 l 501 -274 l 135 -439 l 110 -392 l 204 -331 q 308 -297 249 -303 l 329 -294 l 329 -285 z "},"β":{"ha":910,"x_min":139,"x_max":833,"o":"m 285 801 l 285 -289 l 139 -289 l 139 801 q 229 1016 139 939 q 462 1093 319 1093 q 694 1010 604 1093 q 785 797 785 928 q 749 654 785 708 q 615 571 713 600 l 615 549 q 778 467 724 539 q 833 305 833 396 q 811 158 833 214 q 753 69 789 103 q 658 17 717 36 q 397 -17 564 -17 l 397 74 q 614 119 540 74 q 688 292 688 164 q 424 510 688 510 l 397 510 l 397 599 q 583 642 526 599 q 639 797 639 686 q 464 1003 639 1003 q 326 953 368 1003 q 285 801 285 904 z "},"θ":{"ha":929,"x_min":90,"x_max":839,"o":"m 839 514 q 828 346 839 421 q 792 201 818 271 q 725 85 767 132 q 617 11 683 39 q 463 -17 550 -17 q 309 11 375 -17 q 202 85 243 39 q 136 201 161 132 q 90 514 90 324 q 196 942 90 821 q 463 1044 285 1044 q 731 942 640 1044 q 839 514 839 818 m 238 479 q 463 74 240 74 q 689 479 686 74 l 238 479 m 689 574 q 463 954 685 954 q 238 574 242 954 l 689 574 z "},"π":{"ha":854,"x_min":28,"x_max":826,"o":"m 742 -17 q 619 35 663 -17 q 588 108 596 64 q 579 276 579 151 l 579 601 l 267 601 l 267 0 l 132 0 l 132 601 l 28 601 l 28 717 l 826 717 l 826 601 l 714 601 l 714 264 q 725 123 714 163 q 774 81 736 83 l 747 -17 l 742 -17 z "}}}
